{
.appVersion = "3151";
.formatVersion = 3;
DisplayStrings = (
"ɬ",
"/q.alt",
"sş"
);
axes = (
{
name = Weight;
tag = wght;
}
);
classes = (
{
automatic = 1;
code = "A Aacute Abreve Acircumflex Adieresis Agrave Amacron Aogonek Aring Atilde AE B C Cacute Ccaron Ccedilla D Eth Dcaron Dcroat E Eacute Ecaron Ecircumflex Edieresis Edotaccent Egrave Emacron Eogonek F G Gcommaaccent H I IJ Iacute Icircumflex Idieresis Igrave Imacron Iogonek J Jacute K Kcommaaccent L Lacute Lcaron Lcommaaccent Lslash M N Nacute Ncaron Ncommaaccent Ntilde O Oacute Ocircumflex Odieresis Ograve Ohungarumlaut Omacron Oslash Otilde OE P Thorn Q R Racute Rcaron Rcommaaccent S Sacute Scaron Scedilla Germandbls T Tcaron Tcedilla U Uacute Ucircumflex Udieresis Ugrave Uhorn Uhungarumlaut Umacron Uogonek Uring V W Wacute Wcircumflex Wdieresis Wgrave X Y Yacute Ycircumflex Ydieresis Ygrave Z Zacute Zcaron Zdotaccent";
name = Uppercase;
}
);
customParameters = (
{
name = fsType;
value = (
);
},
{
name = panose;
value = (
0,
0,
0,
0,
0,
0,
0,
0,
0,
0
);
},
{
name = "Use Typo Metrics";
value = 1;
},
{
name = "Use Line Breaks";
value = 1;
},
{
name = "Enforce Compatibility Check";
value = 1;
}
);
date = "2023-10-02 05:34:29 +0000";
familyName = "Sankofa Display";
featurePrefixes = (
{
automatic = 1;
code = "languagesystem DFLT dflt;
";
name = Languagesystems;
}
);
fontMaster = (
{
axesValues = (
0
);
id = m01;
metricValues = (
{
over = 16;
pos = 800;
},
{
over = 16;
pos = 700;
},
{
over = 16;
pos = 450;
},
{
over = -16;
},
{
over = -16;
pos = -200;
},
{
over = -16;
}
);
name = Regular;
stemValues = (
0,
0,
0
);
}
);
glyphs = (
{
glyphname = A;
kernRight = "-80";
lastChange = "2023-11-03 10:39:56 +0000";
layers = (
{
anchors = (
{
name = bottom;
pos = (266,1);
},
{
name = ogonek;
pos = (543,29);
},
{
name = top;
pos = (101,700);
}
);
layerId = m01;
shapes = (
{
closed = 1;
nodes = (
(278,1,o),
(359,2,o),
(371,1,cs),
(385,1,o),
(395,8,o),
(409,9,c),
(443,1,l),
(453,1,o),
(482,1,o),
(482,17,cs),
(482,21,o),
(481,27,o),
(477,33,cs),
(459,69,o),
(440,103,o),
(421,137,cs),
(415,149,o),
(406,161,o),
(403,173,cs),
(400,187,o),
(377,237,o),
(367,246,cs),
(355,256,o),
(356,271,o),
(347,281,cs),
(329,302,o),
(322,329,o),
(305,351,c),
(305,364,o),
(303,372,o),
(294,381,cs),
(285,391,o),
(284,404,o),
(276,414,cs),
(268,422,o),
(263,432,o),
(257,441,cs),
(232,489,o),
(208,535,o),
(183,581,cs),
(178,592,o),
(169,601,o),
(168,611,cs),
(168,626,o),
(150,630,o),
(150,644,c),
(139,653,o),
(134,665,o),
(127,677,cs),
(122,684,o),
(116,691,o),
(109,696,cs),
(98,707,o),
(78,697,o),
(78,681,cs),
(78,594,ls),
(78,591,o),
(77,586,o),
(79,584,cs),
(85,578,o),
(87,570,o),
(87,564,cs),
(87,558,o),
(86,553,o),
(86,548,cs),
(86,451,ls),
(86,444,o),
(85,439,o),
(84,432,c),
(72,427,o),
(92,416,o),
(79,411,c),
(79,401,o),
(78,391,o),
(78,48,cs),
(78,37,o),
(80,28,o),
(71,19,cs),
(67,16,o),
(73,9,o),
(78,8,cs),
(85,8,o),
(126,7,o),
(133,2,cs),
(134,1,o),
(154,8,o),
(162,8,cs),
(231,8,ls),
(254,8,o),
(248,1,o),
(266,1,cs)
);
},
{
closed = 1;
nodes = (
(260,166,o),
(263,173,o),
(264,179,cs),
(267,186,o),
(264,192,o),
(259,197,cs),
(250,208,o),
(217,224,o),
(206,213,c),
(201,205,o),
(195,196,o),
(193,186,cs),
(193,180,o),
(201,172,o),
(203,164,cs),
(207,145,o),
(232,145,o),
(256,162,cs)
);
},
{
closed = 1;
nodes = (
(231,174,o),
(224,174,o),
(223,179,cs),
(222,181,o),
(220,183,o),
(220,185,cs),
(220,188,o),
(222,190,o),
(223,192,c),
(226,195,o),
(236,191,o),
(238,188,cs),
(239,187,o),
(240,185,o),
(239,183,cs),
(239,181,o),
(238,179,o),
(237,178,cs)
);
},
{
closed = 1;
nodes = (
(422,35,o),
(409,33,o),
(402,32,cs),
(398,31,o),
(392,31,o),
(390,32,cs),
(381,42,o),
(341,40,o),
(333,32,c),
(323,43,o),
(294,42,o),
(285,32,c),
(277,38,o),
(269,39,o),
(259,39,cs),
(250,38,o),
(240,39,o),
(134,39,cs),
(128,39,o),
(123,38,o),
(118,39,cs),
(107,45,o),
(99,53,o),
(106,61,cs),
(112,67,o),
(111,72,o),
(105,77,c),
(101,82,o),
(107,83,o),
(108,86,cs),
(111,92,o),
(110,108,o),
(110,113,cs),
(110,120,o),
(111,127,o),
(117,133,c),
(111,140,o),
(109,147,o),
(109,156,cs),
(109,163,o),
(111,172,o),
(111,180,cs),
(111,187,o),
(110,297,o),
(110,304,cs),
(110,313,o),
(112,323,o),
(118,331,cs),
(119,333,o),
(115,339,o),
(113,342,c),
(113,347,o),
(136,355,o),
(140,351,cs),
(147,347,o),
(155,347,o),
(163,347,cs),
(256,347,ls),
(269,347,o),
(276,343,o),
(281,332,cs),
(285,321,o),
(290,309,o),
(297,299,cs),
(307,285,o),
(311,267,o),
(326,255,cs),
(333,249,o),
(326,237,o),
(335,232,cs),
(344,226,o),
(343,217,o),
(346,210,cs),
(352,194,o),
(386,141,o),
(386,126,c),
(387,121,o),
(391,115,o),
(395,110,cs),
(415,90,o),
(423,64,o),
(437,42,c),
(442,28,o),
(438,32,o),
(427,31,c)
);
},
{
closed = 1;
nodes = (
(169,388,o),
(145,387,o),
(124,379,c),
(123,378,o),
(119,381,o),
(119,382,cs),
(118,390,o),
(118,417,o),
(118,421,cs),
(118,427,o),
(117,434,o),
(112,440,cs),
(109,443,o),
(109,466,o),
(111,469,cs),
(120,482,o),
(122,494,o),
(113,507,c),
(117,517,o),
(120,524,o),
(118,527,cs),
(111,536,o),
(111,617,o),
(111,626,cs),
(111,630,o),
(118,629,o),
(118,627,cs),
(118,616,o),
(134,613,o),
(134,603,cs),
(134,593,o),
(139,587,o),
(145,580,cs),
(152,572,o),
(155,563,o),
(163,556,cs),
(171,550,o),
(163,538,o),
(173,532,c),
(189,501,o),
(224,433,o),
(226,432,cs),
(241,423,o),
(238,405,o),
(247,393,cs),
(248,392,o),
(245,385,o),
(242,385,cs),
(231,383,o),
(219,385,o),
(208,377,cs),
(204,375,o),
(194,375,o),
(189,377,cs)
);
}
);
width = 482;
}
);
unicode = 65;
},
{
glyphname = Astroke;
lastChange = "2023-11-03 10:39:56 +0000";
layers = (
{
anchors = (
{
name = bottom;
pos = (266,1);
},
{
name = ogonek;
pos = (543,29);
},
{
name = top;
pos = (101,700);
}
);
layerId = m01;
shapes = (
{
closed = 1;
nodes = (
(105,-18,o),
(108,-6,o),
(110,6,c),
(121,6,o),
(130,4,o),
(133,2,cs),
(134,1,o),
(154,8,o),
(162,8,cs),
(231,8,ls),
(254,8,o),
(248,1,o),
(266,1,cs),
(278,1,o),
(359,2,o),
(371,1,cs),
(385,1,o),
(395,8,o),
(409,9,c),
(443,1,l),
(453,1,o),
(482,1,o),
(482,17,cs),
(482,21,o),
(481,27,o),
(477,33,c),
(459,69,o),
(440,103,o),
(421,137,cs),
(415,149,o),
(406,161,o),
(403,173,cs),
(400,187,o),
(377,237,o),
(367,246,cs),
(355,256,o),
(356,271,o),
(347,281,cs),
(329,302,o),
(322,329,o),
(305,351,c),
(305,364,o),
(303,372,o),
(294,381,cs),
(285,391,o),
(284,404,o),
(276,414,cs),
(268,422,o),
(263,432,o),
(257,441,cs),
(254,447,o),
(250,453,o),
(247,460,c),
(270,532,o),
(293,604,o),
(315,678,c),
(320,689,o),
(320,703,o),
(318,713,cs),
(316,721,o),
(313,725,o),
(307,728,c),
(304,724,o),
(291,718,o),
(282,682,cs),
(280,673,o),
(272,640,o),
(269,632,cs),
(256,588,o),
(242,543,o),
(227,498,c),
(212,526,o),
(198,554,o),
(183,581,cs),
(178,592,o),
(169,601,o),
(168,611,cs),
(168,626,o),
(150,630,o),
(150,644,c),
(139,653,o),
(134,665,o),
(127,677,cs),
(122,684,o),
(116,691,o),
(109,696,c),
(98,707,o),
(78,697,o),
(78,681,cs),
(78,594,ls),
(78,591,o),
(77,586,o),
(79,584,cs),
(85,578,o),
(87,570,o),
(87,564,cs),
(87,558,o),
(86,553,o),
(86,548,cs),
(86,451,ls),
(86,444,o),
(85,439,o),
(84,432,c),
(72,427,o),
(92,416,o),
(79,411,c),
(79,401,o),
(78,391,o),
(78,48,cs),
(78,37,o),
(80,28,o),
(71,19,cs),
(67,16,o),
(73,9,o),
(78,8,cs),
(80,8,l),
(76,-2,o),
(74,-9,o),
(73,-12,cs),
(61,-40,o),
(89,-41,o),
(96,-27,c)
);
},
{
closed = 1;
nodes = (
(111,142,o),
(109,148,o),
(109,156,cs),
(109,163,o),
(111,172,o),
(111,180,cs),
(110,304,ls),
(110,313,o),
(112,323,o),
(118,331,cs),
(119,333,o),
(115,339,o),
(113,342,c),
(113,347,o),
(136,355,o),
(140,351,c),
(147,347,o),
(155,347,o),
(163,347,cs),
(181,347,l),
(177,320,o),
(157,310,o),
(159,283,c),
(153,265,o),
(143,255,o),
(139,235,cs),
(134,216,o),
(113,159,o),
(115,136,c)
);
},
{
closed = 1;
nodes = (
(422,35,o),
(409,33,o),
(402,32,cs),
(398,31,o),
(392,31,o),
(390,32,c),
(381,42,o),
(341,40,o),
(333,32,c),
(323,43,o),
(294,42,o),
(285,32,c),
(277,38,o),
(269,39,o),
(259,39,cs),
(250,38,o),
(240,39,o),
(134,39,cs),
(129,39,o),
(124,38,o),
(119,39,c),
(127,53,o),
(129,68,o),
(128,84,c),
(149,152,o),
(168,220,o),
(190,287,cs),
(194,300,o),
(206,310,o),
(205,325,cs),
(204,335,o),
(205,341,o),
(208,347,c),
(256,347,ls),
(269,347,o),
(276,343,o),
(281,332,cs),
(285,321,o),
(290,309,o),
(297,299,cs),
(307,285,o),
(311,267,o),
(326,255,cs),
(333,249,o),
(326,237,o),
(335,232,cs),
(344,226,o),
(343,217,o),
(346,210,cs),
(352,194,o),
(386,141,o),
(386,126,c),
(387,121,o),
(391,115,o),
(395,110,cs),
(415,90,o),
(423,64,o),
(437,42,c),
(442,28,o),
(438,32,o),
(427,31,c)
);
},
{
closed = 1;
nodes = (
(236,422,l),
(240,413,o),
(241,401,o),
(247,393,cs),
(248,392,o),
(245,385,o),
(242,385,cs),
(236,384,o),
(230,384,o),
(224,383,c)
);
},
{
closed = 1;
nodes = (
(169,388,o),
(145,387,o),
(124,379,c),
(123,378,o),
(119,381,o),
(119,382,cs),
(118,390,o),
(118,417,o),
(118,421,cs),
(118,427,o),
(117,434,o),
(112,440,cs),
(109,443,o),
(109,466,o),
(111,469,cs),
(120,482,o),
(122,494,o),
(113,507,c),
(117,517,o),
(120,524,o),
(118,527,cs),
(111,536,o),
(111,617,o),
(111,626,cs),
(111,630,o),
(118,629,o),
(118,627,cs),
(118,616,o),
(134,613,o),
(134,603,cs),
(134,593,o),
(139,587,o),
(145,580,cs),
(152,572,o),
(155,563,o),
(163,556,cs),
(171,550,o),
(163,538,o),
(173,532,c),
(183,512,o),
(201,478,o),
(213,455,c),
(209,441,o),
(204,426,o),
(200,412,cs),
(188,377,l)
);
}
);
width = 482;
}
);
unicode = 570;
},
{
glyphname = AE;
lastChange = "2023-11-03 10:39:56 +0000";
layers = (
{
anchors = (
{
name = bottom;
pos = (236,1);
},
{
name = ogonek;
pos = (35,20);
},
{
name = top;
pos = (401,700);
}
);
layerId = m01;
shapes = (
{
closed = 1;
nodes = (
(370,-2,o),
(463,1,o),
(464,1,cs),
(509,7,o),
(549,2,o),
(556,2,c),
(692,2,l),
(714,5,o),
(712,37,o),
(693,37,c),
(433,37,l),
(423,38,o),
(428,293,o),
(424,348,c),
(434,347,o),
(451,347,o),
(457,347,c),
(459,346,o),
(497,347,o),
(506,347,cs),
(528,347,o),
(551,352,o),
(573,356,cs),
(580,358,o),
(580,369,o),
(573,370,cs),
(566,371,o),
(566,376,o),
(560,377,cs),
(553,378,o),
(545,379,o),
(537,379,cs),
(522,379,o),
(502,378,o),
(487,378,c),
(413,378,o),
(453,378,o),
(423,378,c),
(423,411,l),
(410,416,o),
(430,427,o),
(418,432,c),
(417,439,o),
(416,444,o),
(416,451,cs),
(416,548,ls),
(416,553,o),
(415,558,o),
(415,564,cs),
(415,570,o),
(417,578,o),
(423,584,cs),
(425,586,o),
(424,591,o),
(424,594,cs),
(424,662,l),
(466,663,o),
(555,663,o),
(590,663,cs),
(596,663,o),
(624,671,o),
(633,671,cs),
(640,671,o),
(647,669,o),
(653,666,cs),
(658,664,o),
(663,663,o),
(667,663,cs),
(680,663,o),
(690,678,o),
(703,679,cs),
(704,679,o),
(704,686,o),
(703,689,c),
(699,694,o),
(694,699,o),
(686,699,cs),
(421,699,ls),
(418,699,o),
(416,699,o),
(413,698,c),
(406,702,o),
(399,702,o),
(393,696,cs),
(386,691,o),
(380,684,o),
(375,677,cs),
(368,665,o),
(363,653,o),
(352,644,c),
(352,630,o),
(334,626,o),
(334,611,cs),
(333,601,o),
(324,592,o),
(319,581,cs),
(294,535,o),
(270,489,o),
(245,441,c),
(239,432,o),
(234,422,o),
(226,414,cs),
(218,404,o),
(217,391,o),
(208,381,cs),
(199,372,o),
(197,364,o),
(197,351,c),
(180,329,o),
(173,302,o),
(155,281,cs),
(146,271,o),
(147,256,o),
(135,246,cs),
(125,237,o),
(102,187,o),
(99,173,cs),
(96,161,o),
(87,149,o),
(81,137,cs),
(62,103,o),
(43,69,o),
(25,33,c),
(21,27,o),
(20,21,o),
(20,17,cs),
(20,1,o),
(49,1,o),
(59,1,c),
(93,9,l),
(107,8,o),
(117,1,o),
(131,1,cs),
(143,2,o),
(224,2,o),
(236,1,cs),
(257,0,o),
(258,9,o),
(271,8,cs),
(347,0,ls)
);
},
{
closed = 1;
nodes = (
(64,32,o),
(60,28,o),
(65,42,c),
(79,64,o),
(87,90,o),
(107,110,cs),
(111,115,o),
(115,121,o),
(116,126,c),
(116,141,o),
(150,194,o),
(156,210,cs),
(159,217,o),
(158,226,o),
(167,232,cs),
(176,237,o),
(169,249,o),
(176,255,cs),
(191,267,o),
(195,285,o),
(205,299,cs),
(212,309,o),
(217,321,o),
(221,332,cs),
(226,343,o),
(233,347,o),
(246,347,cs),
(339,347,ls),
(347,347,o),
(355,347,o),
(362,351,c),
(366,355,o),
(389,347,o),
(389,342,c),
(387,339,o),
(383,333,o),
(384,331,cs),
(390,323,o),
(392,313,o),
(392,304,cs),
(391,180,ls),
(391,172,o),
(393,163,o),
(393,156,cs),
(393,147,o),
(391,140,o),
(385,133,c),
(391,127,o),
(392,120,o),
(392,113,cs),
(392,108,o),
(391,92,o),
(394,86,cs),
(395,83,o),
(401,82,o),
(397,77,c),
(391,72,o),
(390,67,o),
(396,61,cs),
(403,53,o),
(395,45,o),
(384,39,c),
(379,38,o),
(374,39,o),
(368,39,cs),
(262,39,o),
(252,38,o),
(243,39,cs),
(233,39,o),
(225,38,o),
(217,32,c),
(208,42,o),
(179,43,o),
(169,32,c),
(161,40,o),
(121,42,o),
(112,32,c),
(110,31,o),
(104,31,o),
(100,32,cs),
(93,33,o),
(80,35,o),
(75,31,c)
);
},
{
closed = 1;
nodes = (
(283,385,o),
(271,383,o),
(260,385,cs),
(257,385,o),
(254,392,o),
(255,393,cs),
(264,405,o),
(261,423,o),
(276,432,cs),
(278,433,o),
(313,501,o),
(329,532,c),
(339,538,o),
(331,550,o),
(339,556,cs),
(347,563,o),
(350,572,o),
(357,580,cs),
(363,587,o),
(368,593,o),
(368,603,cs),
(368,613,o),
(384,616,o),
(384,627,cs),
(384,629,o),
(391,630,o),
(391,626,cs),
(391,617,o),
(391,536,o),
(384,527,cs),
(382,524,o),
(385,517,o),
(389,507,c),
(380,494,o),
(382,482,o),
(391,469,cs),
(393,466,o),
(393,443,o),
(390,440,cs),
(385,434,o),
(384,427,o),
(384,421,cs),
(384,417,o),
(384,390,o),
(383,382,cs),
(383,381,o),
(333,388,o),
(313,377,cs),
(308,375,o),
(298,375,o),
(294,377,c)
);
},
{
closed = 1;
nodes = (
(673,357,ls),
(676,360,o),
(677,365,o),
(677,370,cs),
(677,381,o),
(670,394,o),
(660,398,cs),
(649,400,o),
(622,404,o),
(622,385,c),
(616,368,o),
(603,369,o),
(615,357,cs),
(626,345,o),
(641,325,o),
(653,337,cs)
);
},
{
closed = 1;
nodes = (
(645,357,o),
(640,362,o),
(638,366,cs),
(634,369,o),
(638,369,o),
(639,373,c),
(639,379,o),
(647,377,o),
(650,376,cs),
(652,376,o),
(654,372,o),
(654,369,cs),
(654,368,o),
(654,367,o),
(653,366,cs),
(648,360,ls)
);
}
);
width = 728;
}
);
unicode = 198;
},
{
glyphname = B;
lastChange = "2023-11-03 10:39:56 +0000";
layers = (
{
anchors = (
{
name = bottom;
pos = (243,0);
},
{
name = center;
pos = (111,350);
},
{
name = top;
pos = (264,696);
}
);
layerId = m01;
shapes = (
{
closed = 1;
nodes = (
(98,2,o),
(106,6,o),
(114,5,c),
(256,5,ls),
(262,5,o),
(267,4,o),
(271,1,cs),
(279,-4,o),
(282,5,o),
(289,5,cs),
(315,1,o),
(380,14,o),
(403,1,cs),
(404,0,o),
(425,4,o),
(436,1,cs),
(442,-2,o),
(460,5,o),
(468,12,cs),
(476,18,o),
(463,25,o),
(461,32,cs),
(460,37,o),
(428,60,o),
(424,70,cs),
(420,80,o),
(408,81,o),
(403,90,cs),
(399,98,o),
(274,223,o),
(256,226,c),
(243,251,o),
(217,264,o),
(198,284,cs),
(192,290,o),
(185,296,o),
(179,303,c),
(181,315,o),
(162,310,o),
(162,320,cs),
(162,332,o),
(146,333,o),
(138,338,cs),
(130,343,o),
(129,352,o),
(130,353,cs),
(139,364,o),
(146,376,o),
(158,384,cs),
(201,406,o),
(380,627,o),
(416,662,cs),
(420,665,o),
(421,670,o),
(423,675,cs),
(425,678,o),
(429,680,o),
(424,684,cs),
(421,686,o),
(418,690,o),
(415,690,c),
(376,698,l),
(330,698,o),
(305,695,o),
(299,690,cs),
(293,684,o),
(284,698,o),
(272,698,cs),
(128,698,ls),
(115,698,o),
(105,690,o),
(91,690,cs),
(79,692,o),
(71,682,o),
(71,673,cs),
(71,658,l),
(71,478,ls),
(71,471,o),
(71,463,o),
(77,457,c),
(71,429,l),
(71,420,o),
(72,412,o),
(77,404,cs),
(80,399,o),
(79,391,o),
(77,384,cs),
(71,359,o),
(79,318,o),
(78,317,cs),
(71,310,o),
(70,302,o),
(70,294,cs),
(73,236,o),
(72,87,o),
(71,23,cs),
(71,18,o),
(69,13,o),
(70,8,cs),
(71,3,o),
(87,-6,o),
(91,-2,cs)
);
},
{
closed = 1;
nodes = (
(214,105,o),
(225,112,o),
(236,129,c),
(236,134,ls),
(236,136,o),
(236,138,o),
(235,138,cs),
(226,147,o),
(220,152,o),
(213,160,cs),
(204,164,o),
(188,165,o),
(181,158,cs),
(167,143,ls),
(158,134,o),
(157,131,o),
(169,119,cs),
(180,109,o),
(191,105,o),
(200,105,cs)
);
},
{
closed = 1;
nodes = (
(194,125,o),
(191,127,o),
(188,130,cs),
(185,133,o),
(185,135,o),
(187,137,cs),
(192,141,ls),
(195,143,o),
(199,144,o),
(202,142,cs),
(203,140,o),
(206,137,o),
(208,136,cs),
(208,136,o),
(208,136,o),
(208,134,cs),
(208,132,l),
(206,128,o),
(202,125,o),
(198,125,cs)
);
},
{
closed = 1;
nodes = (
(106,35,o),
(104,37,o),
(104,47,cs),
(104,58,o),
(93,227,o),
(105,256,c),
(99,263,o),
(103,271,o),
(104,306,cs),
(104,310,o),
(105,313,o),
(106,317,cs),
(106,319,o),
(114,319,o),
(117,318,cs),
(122,315,o),
(119,304,o),
(129,304,cs),
(140,304,o),
(135,287,o),
(148,289,c),
(154,285,o),
(160,279,o),
(167,275,cs),
(175,269,o),
(177,261,o),
(182,254,c),
(222,215,o),
(255,195,o),
(275,164,c),
(289,167,o),
(284,147,o),
(298,148,c),
(306,140,o),
(385,66,o),
(394,57,cs),
(397,54,o),
(400,50,o),
(403,45,c),
(403,39,o),
(401,38,o),
(384,38,cs),
(238,35,o),
(151,35,o),
(118,35,cs)
);
},
{
closed = 1;
nodes = (
(104,386,l),
(100,402,ls),
(100,403,o),
(100,417,o),
(103,433,cs),
(108,459,o),
(110,483,o),
(104,514,cs),
(100,531,o),
(98,553,o),
(100,613,c),
(104,653,o),
(99,662,o),
(137,662,cs),
(341,662,ls),
(348,662,o),
(356,666,o),
(363,668,c),
(369,664,l),
(363,656,o),
(358,647,o),
(351,640,cs),
(340,629,o),
(290,549,o),
(272,544,c),
(266,536,o),
(264,522,o),
(251,519,cs),
(241,517,o),
(234,510,o),
(234,500,c),
(216,494,o),
(184,454,o),
(178,442,cs),
(175,436,o),
(126,396,o),
(111,383,c)
);
},
{
closed = 1;
nodes = (
(209,554,o),
(221,562,o),
(230,578,c),
(230,583,ls),
(230,585,o),
(230,587,o),
(229,587,cs),
(222,595,o),
(215,600,o),
(208,608,cs),
(200,613,o),
(185,613,o),
(178,606,cs),
(163,592,ls),
(155,584,o),
(155,580,o),
(166,569,cs),
(177,559,o),
(187,554,o),
(196,554,cs)
);
},
{
closed = 1;
nodes = (
(190,574,o),
(187,576,o),
(184,579,cs),
(181,582,o),
(181,584,o),
(183,586,cs),
(188,590,ls),
(191,592,o),
(195,593,o),
(198,591,cs),
(199,589,o),
(202,586,o),
(204,585,cs),
(204,585,o),
(204,585,o),
(204,583,cs),
(204,581,l),
(202,577,o),
(198,574,o),
(194,574,cs)
);
}
);
width = 471;
}
);
unicode = 66;
},
{
glyphname = C;
lastChange = "2023-11-03 10:39:56 +0000";
layers = (
{
anchors = (
{
name = bottom;
pos = (309,51);
},
{
name = top;
pos = (273,697);
}
);
layerId = m01;
shapes = (
{
closed = 1;
nodes = (
(94,-40,o),
(192,0,o),
(205,10,cs),
(221,22,o),
(240,23,o),
(257,31,cs),
(403,102,o),
(294,51,o),
(445,112,c),
(445,4,o),
(444,-8,o),
(444,-19,cs),
(444,-26,o),
(458,-33,o),
(467,-33,cs),
(477,-33,o),
(478,-27,o),
(479,-20,cs),
(480,-16,o),
(486,8,o),
(487,15,c),
(480,22,o),
(478,29,o),
(478,36,cs),
(478,106,o),
(479,72,o),
(478,142,cs),
(478,145,o),
(474,149,o),
(471,149,cs),
(464,150,o),
(454,152,o),
(450,149,cs),
(441,140,o),
(429,144,o),
(419,139,cs),
(400,129,o),
(321,88,o),
(296,88,cs),
(294,88,o),
(173,28,o),
(128,8,cs),
(120,5,o),
(107,10,o),
(105,17,c),
(102,175,o),
(105,86,o),
(105,169,cs),
(105,173,o),
(108,178,o),
(111,182,c),
(113,187,o),
(102,189,o),
(108,195,c),
(114,199,o),
(114,267,o),
(110,271,cs),
(100,279,o),
(114,283,o),
(113,290,cs),
(112,296,o),
(113,303,o),
(113,309,cs),
(113,328,o),
(104,329,o),
(108,333,cs),
(115,339,o),
(113,347,o),
(113,354,cs),
(113,586,ls),
(113,592,o),
(114,600,o),
(111,604,cs),
(106,611,o),
(105,617,o),
(105,624,cs),
(105,646,o),
(116,654,o),
(126,654,cs),
(146,654,o),
(178,624,o),
(198,622,cs),
(206,621,o),
(215,618,o),
(220,613,cs),
(235,599,o),
(415,526,o),
(435,513,cs),
(448,504,o),
(477,508,o),
(479,526,cs),
(479,534,o),
(477,542,o),
(477,550,cs),
(477,562,o),
(486,572,o),
(486,583,cs),
(486,588,o),
(485,593,o),
(481,597,c),
(494,606,o),
(475,612,o),
(478,621,cs),
(481,629,o),
(479,638,o),
(479,681,cs),
(479,688,o),
(474,692,o),
(468,696,c),
(464,700,o),
(456,699,o),
(454,695,cs),
(450,684,o),
(445,675,o),
(445,663,cs),
(445,648,o),
(446,563,o),
(445,556,cs),
(445,548,o),
(438,545,o),
(431,549,cs),
(400,564,o),
(270,627,o),
(251,630,cs),
(231,635,o),
(114,700,o),
(94,700,cs),
(88,700,o),
(83,698,o),
(78,695,cs),
(63,683,o),
(96,654,o),
(85,638,cs),
(75,623,o),
(74,620,o),
(85,608,c),
(92,598,o),
(77,593,o),
(77,578,cs),
(77,488,o),
(82,482,o),
(82,474,cs),
(82,473,o),
(77,439,o),
(77,363,cs),
(77,354,o),
(78,345,o),
(85,336,cs),
(87,333,o),
(87,327,o),
(85,324,c),
(78,318,o),
(77,310,o),
(77,302,cs),
(74,164,o),
(78,152,o),
(78,105,c),
(71,26,o),
(70,17,o),
(70,8,cs),
(70,-21,ls),
(70,-33,o),
(79,-40,o),
(91,-40,cs)
);
},
{
closed = 1;
nodes = (
(302,308,o),
(315,322,o),
(325,332,cs),
(330,339,o),
(330,348,o),
(325,355,cs),
(317,365,o),
(309,371,o),
(296,369,cs),
(271,369,o),
(256,356,o),
(256,340,cs),
(256,331,o),
(264,308,o),
(288,308,cs)
);
},
{
closed = 1;
nodes = (
(285,331,o),
(284,338,o),
(284,340,cs),
(284,344,o),
(287,347,o),
(294,347,cs),
(297,348,o),
(299,346,o),
(301,344,cs),
(302,341,o),
(302,339,o),
(301,338,cs),
(299,334,o),
(295,331,o),
(291,331,cs)
);
}
);
width = 497;
}
);
unicode = 67;
},
{
glyphname = Cstroke;
lastChange = "2023-11-03 10:39:56 +0000";
layers = (
{
anchors = (
{
name = bottom;
pos = (309,51);
},
{
name = top;
pos = (273,697);
}
);
layerId = m01;
shapes = (
{
closed = 1;
nodes = (
(174,-46,o),
(175,-25,o),
(176,-6,cs),
(176,-5,o),
(177,-5,o),
(177,-4,c),
(191,2,o),
(201,7,o),
(205,10,cs),
(221,22,o),
(240,23,o),
(257,31,cs),
(403,102,o),
(294,51,o),
(445,112,c),
(445,4,o),
(444,-8,o),
(444,-19,cs),
(444,-26,o),
(458,-33,o),
(467,-33,cs),
(477,-33,o),
(478,-27,o),
(479,-20,cs),
(480,-16,o),
(486,8,o),
(487,15,c),
(480,22,o),
(478,29,o),
(478,36,cs),
(478,106,o),
(479,72,o),
(478,142,cs),
(478,145,o),
(474,149,o),
(471,149,cs),
(464,150,o),
(454,152,o),
(450,149,cs),
(441,140,o),
(429,144,o),
(419,139,cs),
(400,129,o),
(321,88,o),
(296,88,cs),
(295,88,o),
(241,62,o),
(192,38,c),
(192,50,l),
(213,118,o),
(232,186,o),
(254,253,cs),
(258,266,o),
(270,276,o),
(269,291,cs),
(266,316,o),
(280,322,o),
(285,339,cs),
(348,553,l),
(389,535,o),
(427,519,o),
(435,513,cs),
(448,504,o),
(477,508,o),
(479,526,cs),
(479,534,o),
(477,542,o),
(477,550,cs),
(477,562,o),
(486,572,o),
(486,583,cs),
(486,588,o),
(485,593,o),
(481,597,c),
(494,606,o),
(475,612,o),
(478,621,cs),
(481,629,o),
(479,638,o),
(479,681,cs),
(479,688,o),
(474,692,o),
(468,696,c),
(464,700,o),
(456,699,o),
(454,695,cs),
(450,684,o),
(445,675,o),
(445,663,cs),
(445,648,o),
(446,563,o),
(445,556,cs),
(445,548,o),
(438,545,o),
(431,549,cs),
(357,584,l),
(369,623,o),
(379,660,o),
(389,693,c),
(394,704,o),
(394,718,o),
(392,728,cs),
(390,736,o),
(387,740,o),
(381,743,c),
(378,739,o),
(365,733,o),
(356,697,cs),
(354,688,o),
(346,655,o),
(343,647,cs),
(329,598,l),
(293,614,o),
(260,629,o),
(251,630,c),
(231,635,o),
(114,700,o),
(94,700,cs),
(88,700,o),
(83,698,o),
(78,695,cs),
(63,683,o),
(96,654,o),
(85,638,cs),
(75,623,o),
(74,620,o),
(85,608,c),
(92,598,o),
(77,593,o),
(77,578,cs),
(77,488,o),
(82,482,o),
(82,474,cs),
(82,473,o),
(77,439,o),
(77,363,cs),
(77,354,o),
(78,345,o),
(85,336,cs),
(87,333,o),
(87,327,o),
(85,324,c),
(78,318,o),
(77,310,o),
(77,302,cs),
(74,164,o),
(78,152,o),
(78,105,c),
(71,26,o),
(70,17,o),
(70,8,cs),
(70,-21,ls),
(70,-33,o),
(79,-40,o),
(91,-40,cs),
(93,-40,o),
(118,-30,o),
(145,-18,c),
(140,-36,o),
(134,-51,o),
(133,-55,c),
(121,-83,o),
(162,-100,o),
(160,-61,c)
);
},
{
closed = 1;
nodes = (
(120,5,o),
(107,10,o),
(105,17,c),
(102,175,o),
(105,86,o),
(105,169,cs),
(105,173,o),
(108,178,o),
(111,182,c),
(113,187,o),
(102,189,o),
(108,195,c),
(114,199,o),
(114,267,o),
(110,271,cs),
(100,279,o),
(114,283,o),
(113,290,cs),
(112,296,o),
(113,303,o),
(113,309,cs),
(113,328,o),
(104,329,o),
(108,333,cs),
(115,339,o),
(113,347,o),
(113,354,cs),
(113,586,ls),
(113,592,o),
(114,600,o),
(111,604,cs),
(106,611,o),
(105,617,o),
(105,624,cs),
(105,646,o),
(116,654,o),
(126,654,cs),
(146,654,o),
(178,624,o),
(198,622,cs),
(206,621,o),
(215,618,o),
(220,613,cs),
(227,606,o),
(272,586,o),
(319,565,c),
(264,378,ls),
(257,357,o),
(248,333,o),
(245,313,cs),
(241,286,o),
(221,276,o),
(223,249,c),
(217,231,o),
(207,221,o),
(203,201,cs),
(198,181,o),
(176,122,o),
(179,100,c),
(171,85,o),
(168,72,o),
(167,54,cs),
(167,51,o),
(163,38,o),
(158,22,c),
(147,16,o),
(136,12,o),
(128,8,cs)
);
}
);
width = 497;
}
);
unicode = 571;
},
{
glyphname = D;
lastChange = "2023-11-03 10:39:56 +0000";
layers = (
{
anchors = (
{
name = bottom;
pos = (89,-38);
},
{
name = center;
pos = (97,352);
},
{
name = top;
pos = (83,699);
}
);
layerId = m01;
shapes = (
{
closed = 1;
nodes = (
(98,-39,o),
(104,-34,o),
(112,-31,cs),
(118,-28,o),
(120,-26,o),
(123,-20,cs),
(132,-6,o),
(388,237,o),
(400,238,c),
(425,260,o),
(483,319,o),
(483,326,cs),
(483,341,o),
(444,361,o),
(436,375,cs),
(430,386,o),
(418,395,o),
(407,403,cs),
(368,434,o),
(343,478,o),
(290,523,cs),
(280,531,o),
(268,535,o),
(262,545,cs),
(254,556,o),
(183,629,o),
(149,647,c),
(151,659,o),
(134,657,o),
(133,663,cs),
(132,677,o),
(100,693,o),
(94,698,c),
(88,702,o),
(83,699,o),
(79,696,c),
(71,675,o),
(66,662,o),
(78,647,c),
(82,639,o),
(82,628,o),
(76,620,cs),
(70,611,o),
(68,603,o),
(75,594,cs),
(83,586,o),
(79,576,o),
(79,567,c),
(67,555,o),
(68,516,o),
(77,499,c),
(72,495,o),
(68,408,o),
(74,400,cs),
(82,392,o),
(68,387,o),
(71,380,cs),
(73,371,o),
(82,358,o),
(75,351,c),
(78,303,l),
(75,299,o),
(74,297,o),
(74,292,cs),
(74,285,o),
(80,279,o),
(80,270,cs),
(80,262,o),
(71,253,o),
(74,248,cs),
(78,241,o),
(79,233,o),
(79,226,cs),
(79,153,ls),
(79,148,o),
(81,140,o),
(78,137,cs),
(72,131,o),
(71,124,o),
(71,116,c),
(71,-23,l),
(71,-36,o),
(74,-38,o),
(89,-38,cs)
);
},
{
closed = 1;
nodes = (
(246,317,o),
(259,330,o),
(269,341,cs),
(274,348,o),
(274,357,o),
(269,364,cs),
(261,374,o),
(253,379,o),
(240,378,cs),
(215,378,o),
(200,365,o),
(200,349,cs),
(200,340,o),
(208,317,o),
(232,317,cs)
);
},
{
closed = 1;
nodes = (
(229,340,o),
(228,346,o),
(228,348,cs),
(228,352,o),
(231,355,o),
(238,355,cs),
(241,356,o),
(243,355,o),
(245,352,cs),
(246,350,o),
(246,347,o),
(245,346,cs),
(243,343,o),
(239,340,o),
(235,340,cs)
);
},
{
closed = 1;
nodes = (
(96,21,o),
(100,24,o),
(103,30,cs),
(104,32,o),
(106,36,o),
(105,37,cs),
(94,45,o),
(105,53,o),
(105,60,c),
(106,308,l),
(106,315,o),
(103,393,o),
(110,399,c),
(111,401,o),
(112,405,o),
(111,406,cs),
(107,411,o),
(105,415,o),
(105,421,cs),
(105,493,o),
(105,565,o),
(106,636,cs),
(106,644,o),
(109,643,o),
(113,639,c),
(141,613,o),
(214,542,o),
(228,536,c),
(233,535,o),
(235,526,o),
(239,522,cs),
(251,509,o),
(315,455,o),
(325,431,c),
(349,413,o),
(365,386,o),
(395,373,cs),
(399,372,o),
(405,365,o),
(406,362,c),
(406,351,o),
(420,354,o),
(422,347,cs),
(425,340,o),
(428,335,o),
(436,334,cs),
(439,334,o),
(442,323,o),
(438,321,c),
(404,289,o),
(371,257,o),
(338,225,c),
(326,223,o),
(322,211,o),
(314,206,cs),
(303,202,o),
(296,193,o),
(288,186,cs),
(280,178,o),
(256,158,o),
(247,152,cs),
(234,142,o),
(153,69,o),
(146,55,cs),
(139,41,o),
(124,32,o),
(113,22,cs),
(101,11,o),
(99,10,o),
(98,15,cs)
);
}
);
width = 483;
}
);
unicode = 68;
},
{
glyphname = Eth;
lastChange = "2023-11-03 10:39:56 +0000";
layers = (
{
layerId = m01;
shapes = (
{
closed = 1;
nodes = (
(117,0,o),
(123,5,o),
(131,8,cs),
(137,10,o),
(139,12,o),
(142,18,cs),
(151,31,o),
(407,261,o),
(419,262,c),
(444,283,o),
(502,339,o),
(502,346,cs),
(502,360,o),
(463,379,o),
(455,392,cs),
(449,403,o),
(437,411,o),
(426,419,cs),
(387,448,o),
(362,490,o),
(309,532,cs),
(299,540,o),
(287,544,o),
(281,553,cs),
(273,564,o),
(202,633,o),
(168,650,c),
(170,661,o),
(153,659,o),
(152,665,cs),
(151,678,o),
(119,693,o),
(113,698,c),
(107,702,o),
(102,699,o),
(98,696,c),
(90,676,o),
(85,664,o),
(97,650,c),
(101,642,o),
(101,632,o),
(95,624,cs),
(89,616,o),
(87,608,o),
(94,600,cs),
(102,592,o),
(98,583,o),
(98,574,c),
(86,563,o),
(87,526,o),
(96,510,c),
(91,506,o),
(87,423,o),
(93,416,cs),
(101,408,o),
(87,404,o),
(90,397,cs),
(92,388,o),
(101,376,o),
(94,369,cs),
(89,365,o),
(84,362,o),
(76,362,cs),
(63,362,o),
(40,362,o),
(27,361,cs),
(16,361,o),
(18,339,o),
(29,339,cs),
(82,339,ls),
(89,339,o),
(101,327,o),
(97,324,cs),
(94,320,o),
(93,318,o),
(93,314,cs),
(93,307,o),
(99,301,o),
(99,293,cs),
(99,285,o),
(90,277,o),
(93,272,cs),
(97,265,o),
(98,258,o),
(98,251,cs),
(98,182,ls),
(98,177,o),
(100,170,o),
(97,167,cs),
(91,161,o),
(90,154,o),
(90,147,c),
(90,15,l),
(90,3,o),
(93,1,o),
(108,1,cs)
);
},
{
closed = 1;
nodes = (
(115,57,o),
(119,60,o),
(122,65,cs),
(123,67,o),
(125,71,o),
(124,72,cs),
(113,80,o),
(124,87,o),
(124,94,c),
(125,329,l),
(125,335,o),
(127,339,o),
(134,339,cs),
(277,339,ls),
(281,339,o),
(286,339,o),
(289,341,cs),
(305,350,o),
(299,357,o),
(287,361,cs),
(282,363,o),
(276,362,o),
(140,362,cs),
(135,362,o),
(125,373,o),
(127,375,cs),
(137,382,o),
(122,409,o),
(129,415,c),
(130,417,o),
(131,421,o),
(130,422,cs),
(126,426,o),
(124,430,o),
(124,436,cs),
(124,504,o),
(124,572,o),
(125,639,cs),
(125,647,o),
(128,646,o),
(132,642,c),
(160,618,o),
(233,550,o),
(247,545,c),
(252,544,o),
(254,535,o),
(258,531,cs),
(270,519,o),
(334,468,o),
(344,445,c),
(368,428,o),
(384,403,o),
(414,390,cs),
(418,389,o),
(424,383,o),
(425,380,c),
(425,369,o),
(439,372,o),
(441,366,cs),
(444,359,o),
(447,354,o),
(455,353,cs),
(458,353,o),
(461,343,o),
(457,341,c),
(423,311,o),
(390,280,o),
(357,250,c),
(345,248,o),
(341,237,o),
(333,232,cs),
(322,228,o),
(315,220,o),
(307,213,cs),
(299,206,o),
(288,202,o),
(279,196,cs),
(266,187,o),
(172,102,o),
(165,89,cs),
(158,76,o),
(143,67,o),
(132,58,cs),
(120,47,o),
(118,46,o),
(117,51,cs)
);
}
);
width = 502;
}
);
unicode = 208;
},
{
glyphname = Dcroat;
lastChange = "2023-11-03 10:39:56 +0000";
layers = (
{
layerId = m01;
shapes = (
{
closed = 1;
nodes = (
(97,0,o),
(103,5,o),
(111,8,cs),
(117,10,o),
(119,12,o),
(122,18,cs),
(131,31,o),
(387,261,o),
(399,262,c),
(424,283,o),
(482,339,o),
(482,346,cs),
(482,360,o),
(443,379,o),
(435,392,cs),
(429,403,o),
(417,411,o),
(406,419,cs),
(367,448,o),
(342,490,o),
(289,532,cs),
(279,540,o),
(267,544,o),
(261,553,cs),
(253,564,o),
(182,633,o),
(148,650,c),
(150,661,o),
(133,659,o),
(132,665,cs),
(131,678,o),
(99,693,o),
(93,698,c),
(87,702,o),
(82,699,o),
(78,696,c),
(70,676,o),
(65,664,o),
(77,650,c),
(81,642,o),
(81,632,o),
(75,624,cs),
(69,616,o),
(67,608,o),
(74,600,cs),
(82,592,o),
(78,583,o),
(78,574,c),
(66,563,o),
(67,526,o),
(76,510,c),
(71,506,o),
(67,423,o),
(73,416,cs),
(81,408,o),
(67,404,o),
(70,397,cs),
(72,388,o),
(81,376,o),
(74,369,cs),
(69,365,o),
(64,362,o),
(56,362,cs),
(43,362,o),
(20,362,o),
(7,361,cs),
(-4,361,o),
(-2,339,o),
(9,339,cs),
(62,339,ls),
(69,339,o),
(81,327,o),
(77,324,cs),
(74,320,o),
(73,318,o),
(73,314,cs),
(73,307,o),
(79,301,o),
(79,293,cs),
(79,285,o),
(70,277,o),
(73,272,cs),
(77,265,o),
(78,258,o),
(78,251,cs),
(78,182,ls),
(78,177,o),
(80,170,o),
(77,167,cs),
(71,161,o),
(70,154,o),
(70,147,c),
(70,15,l),
(70,3,o),
(73,1,o),
(88,1,cs)
);
},
{
closed = 1;
nodes = (
(95,57,o),
(99,60,o),
(102,65,cs),
(103,67,o),
(105,71,o),
(104,72,cs),
(93,80,o),
(104,87,o),
(104,94,c),
(105,329,l),
(105,335,o),
(107,339,o),
(114,339,cs),
(237,339,ls),
(241,339,o),
(246,339,o),
(249,341,cs),
(265,350,o),
(259,357,o),
(247,361,cs),
(242,363,o),
(236,362,o),
(120,362,cs),
(115,362,o),
(105,373,o),
(107,375,cs),
(117,382,o),
(102,409,o),
(109,415,c),
(110,417,o),
(111,421,o),
(110,422,cs),
(106,426,o),
(104,430,o),
(104,436,cs),
(104,504,o),
(104,572,o),
(105,639,cs),
(105,647,o),
(108,646,o),
(112,642,c),
(140,618,o),
(213,550,o),
(227,545,c),
(232,544,o),
(234,535,o),
(238,531,cs),
(250,519,o),
(314,468,o),
(324,445,c),
(348,428,o),
(364,403,o),
(394,390,cs),
(398,389,o),
(404,383,o),
(405,380,c),
(405,369,o),
(419,372,o),
(421,366,cs),
(424,359,o),
(427,354,o),
(435,353,cs),
(438,353,o),
(441,343,o),
(437,341,c),
(403,311,o),
(370,280,o),
(337,250,c),
(325,248,o),
(321,237,o),
(313,232,cs),
(302,228,o),
(295,220,o),
(287,213,cs),
(279,206,o),
(268,202,o),
(259,196,cs),
(246,187,o),
(152,102,o),
(145,89,cs),
(138,76,o),
(123,67,o),
(112,58,cs),
(100,47,o),
(98,46,o),
(97,51,cs)
);
}
);
width = 482;
}
);
unicode = 272;
},
{
glyphname = E;
lastChange = "2023-11-03 10:39:56 +0000";
layers = (
{
anchors = (
{
name = bottom;
pos = (272,0);
},
{
name = ogonek;
pos = (487,44);
},
{
name = top;
pos = (271,700);
},
{
name = topleft;
pos = (75,700);
}
);
layerId = m01;
shapes = (
{
closed = 1;
nodes = (
(417,-4,o),
(431,0,o),
(434,2,c),
(444,12,o),
(440,36,o),
(427,36,c),
(401,36,l),
(392,35,o),
(211,30,o),
(203,34,cs),
(193,39,o),
(186,36,o),
(178,34,cs),
(174,33,o),
(169,33,o),
(166,35,cs),
(149,45,o),
(132,46,o),
(116,34,cs),
(111,31,o),
(104,35,o),
(104,41,cs),
(104,298,ls),
(104,303,o),
(102,310,o),
(105,314,cs),
(111,322,o),
(113,330,o),
(113,339,cs),
(113,345,o),
(113,517,o),
(113,523,cs),
(113,533,o),
(111,543,o),
(104,551,c),
(104,569,o),
(111,572,o),
(111,582,c),
(105,590,o),
(103,603,o),
(104,645,c),
(104,659,o),
(113,666,o),
(127,666,cs),
(396,660,ls),
(432,659,o),
(441,665,o),
(441,681,c),
(441,687,o),
(438,691,o),
(431,691,cs),
(394,692,o),
(383,690,o),
(378,694,cs),
(371,698,o),
(282,698,o),
(131,697,c),
(126,693,o),
(123,693,o),
(117,697,cs),
(115,699,o),
(109,700,o),
(106,699,cs),
(88,692,o),
(62,683,o),
(73,667,c),
(75,666,o),
(77,662,o),
(77,661,c),
(70,573,o),
(71,556,o),
(78,544,c),
(78,521,o),
(79,475,o),
(78,452,cs),
(78,447,o),
(72,441,o),
(73,438,c),
(77,433,o),
(76,430,o),
(73,424,cs),
(69,418,o),
(69,412,o),
(73,405,cs),
(75,400,o),
(78,395,o),
(78,390,cs),
(79,375,o),
(77,268,o),
(75,264,cs),
(72,257,o),
(70,251,o),
(70,244,cs),
(70,194,o),
(71,95,o),
(70,45,cs),
(69,35,o),
(77,9,o),
(89,9,cs),
(102,8,o),
(145,9,o),
(150,6,cs),
(157,1,o),
(164,0,o),
(171,0,cs),
(175,0,o),
(178,0,o),
(182,0,cs),
(368,3,ls),
(377,3,o),
(398,-1,o),
(413,-3,cs)
);
},
{
closed = 1;
nodes = (
(285,246,o),
(290,253,o),
(290,256,cs),
(292,261,o),
(291,265,o),
(291,270,cs),
(290,275,o),
(287,282,o),
(286,288,cs),
(286,296,o),
(290,303,o),
(289,311,cs),
(286,349,o),
(295,388,o),
(291,427,cs),
(290,437,ls),
(289,443,o),
(289,448,o),
(292,453,c),
(292,459,o),
(297,468,o),
(289,475,cs),
(279,472,o),
(260,454,o),
(252,447,c),
(246,439,o),
(226,417,o),
(223,414,cs),
(216,406,o),
(210,401,o),
(204,394,cs),
(193,382,ls),
(186,374,o),
(181,367,o),
(170,359,cs),
(164,355,o),
(163,349,o),
(167,345,cs),
(203,312,o),
(275,245,o),
(279,246,cs)
);
},
{
closed = 1;
nodes = (
(258,298,o),
(257,299,o),
(256,300,cs),
(240,318,o),
(237,321,o),
(234,321,cs),
(223,324,o),
(216,330,o),
(214,339,cs),
(214,342,o),
(211,344,o),
(210,347,cs),
(205,355,o),
(205,355,o),
(211,361,cs),
(255,408,ls),
(272,427,o),
(260,332,o),
(262,299,c)
);
}
);
width = 471;
}
);
unicode = 69;
},
{
glyphname = Estroke;
lastChange = "2023-11-03 10:39:56 +0000";
layers = (
{
anchors = (
{
name = bottom;
pos = (272,0);
},
{
name = ogonek;
pos = (487,44);
},
{
name = top;
pos = (271,700);
},
{
name = topleft;
pos = (75,700);
}
);
layerId = m01;
shapes = (
{
closed = 1;
nodes = (
(124,-30,l),
(119,-21,o),
(124,-13,o),
(126,-4,cs),
(145,55,o),
(180,147,o),
(182,153,cs),
(185,161,o),
(188,167,o),
(196,170,c),
(197,171,o),
(198,179,o),
(197,182,cs),
(193,193,o),
(231,300,o),
(238,307,cs),
(246,316,o),
(252,323,o),
(248,336,c),
(256,341,o),
(259,347,o),
(262,356,cs),
(272,388,o),
(385,746,o),
(387,750,cs),
(389,757,o),
(389,761,o),
(386,768,cs),
(385,782,o),
(383,787,o),
(362,785,c),
(346,741,o),
(347,737,o),
(345,728,cs),
(252,439,ls),
(251,433,o),
(246,409,o),
(238,409,c),
(236,401,o),
(226,353,o),
(223,345,cs),
(142,144,o),
(135,121,o),
(126,116,cs),
(122,113,o),
(117,101,o),
(119,96,cs),
(122,83,o),
(108,22,o),
(94,26,c),
(94,12,o),
(89,-23,o),
(86,-36,c),
(80,-67,o),
(110,-50,o),
(111,-49,cs)
);
},
{
ref = E;
}
);
width = 471;
}
);
unicode = 582;
},
{
glyphname = Schwa;
lastChange = "2023-11-03 10:39:56 +0000";
layers = (
{
anchors = (
{
name = bottom;
pos = (200,0);
},
{
name = bottomright;
pos = (396,0);
},
{
name = ogonek;
pos = (-16,656);
},
{
name = top;
pos = (199,700);
}
);
layerId = m01;
shapes = (
{
closed = 1;
nodes = (
(443,8,o),
(469,17,o),
(458,33,c),
(456,34,o),
(454,38,o),
(454,39,cs),
(461,127,o),
(460,144,o),
(453,156,c),
(453,179,o),
(452,225,o),
(453,248,cs),
(453,253,o),
(459,259,o),
(458,262,c),
(454,267,o),
(455,270,o),
(458,276,cs),
(462,282,o),
(462,288,o),
(458,295,cs),
(456,300,o),
(453,305,o),
(453,310,cs),
(452,325,o),
(454,432,o),
(456,436,cs),
(459,443,o),
(461,449,o),
(461,456,cs),
(461,506,o),
(460,605,o),
(461,655,cs),
(462,665,o),
(454,691,o),
(442,691,cs),
(429,692,o),
(386,691,o),
(381,694,cs),
(374,699,o),
(367,700,o),
(360,700,cs),
(349,700,l),
(103,697,ls),
(94,697,o),
(73,701,o),
(58,703,cs),
(54,704,o),
(40,700,o),
(37,698,c),
(27,688,o),
(31,664,o),
(44,664,cs),
(70,664,ls),
(79,664,o),
(320,670,o),
(328,666,cs),
(338,661,o),
(345,664,o),
(353,666,cs),
(357,667,o),
(362,667,o),
(365,665,cs),
(382,655,o),
(399,654,o),
(415,666,cs),
(420,669,o),
(427,665,o),
(427,659,cs),
(427,402,ls),
(427,397,o),
(429,390,o),
(426,386,cs),
(420,378,o),
(418,371,o),
(418,362,c),
(397,362,o),
(390,362,o),
(386,364,c),
(380,369,o),
(232,369,o),
(83,368,c),
(78,364,o),
(75,364,o),
(69,368,cs),
(67,370,o),
(61,371,o),
(58,369,c),
(41,363,o),
(15,354,o),
(26,338,c),
(28,337,o),
(30,333,o),
(30,332,cs),
(23,244,o),
(24,227,o),
(31,215,c),
(31,192,o),
(32,146,o),
(31,122,cs),
(31,118,o),
(25,112,o),
(26,109,c),
(30,104,o),
(29,101,o),
(26,95,cs),
(22,89,o),
(22,83,o),
(26,75,cs),
(28,71,o),
(30,20,o),
(30,14,c),
(31,14,l),
(32,11,o),
(35,9,o),
(40,9,cs),
(77,8,o),
(88,10,o),
(93,6,cs),
(100,2,o),
(249,2,o),
(400,3,c),
(405,7,o),
(408,7,o),
(414,3,cs),
(416,1,o),
(422,0,o),
(425,1,cs)
);
},
{
closed = 1;
nodes = (
(75,40,ls),
(71,40,o),
(68,40,o),
(65,40,c),
(65,194,ls),
(65,204,o),
(63,214,o),
(57,222,c),
(57,240,o),
(63,243,o),
(63,253,c),
(57,261,o),
(56,274,o),
(57,316,cs),
(57,330,o),
(65,336,o),
(79,336,cs),
(404,330,ls),
(409,330,o),
(414,330,o),
(418,330,c),
(418,177,ls),
(418,167,o),
(420,157,o),
(427,149,c),
(427,131,o),
(420,128,o),
(420,118,c),
(426,110,o),
(428,97,o),
(427,55,cs),
(427,41,o),
(418,34,o),
(404,34,cs)
);
},
{
closed = 1;
nodes = (
(251,158,o),
(264,172,o),
(274,182,cs),
(279,189,o),
(279,198,o),
(274,205,cs),
(266,215,o),
(258,221,o),
(245,219,cs),
(220,219,o),
(205,206,o),
(205,190,cs),
(205,181,o),
(213,158,o),
(237,158,cs)
);
},
{
closed = 1;
nodes = (
(234,181,o),
(233,188,o),
(233,190,cs),
(233,194,o),
(236,197,o),
(243,197,cs),
(246,198,o),
(248,196,o),
(250,194,cs),
(251,191,o),
(251,189,o),
(250,188,cs),
(248,184,o),
(244,181,o),
(240,181,cs)
);
}
);
width = 471;
}
);
unicode = 399;
},
{
glyphname = Ezh;
lastChange = "2023-11-03 10:39:56 +0000";
layers = (
{
anchors = (
{
name = bottom;
pos = (232,0);
},
{
name = top;
pos = (232,700);
}
);
layerId = m01;
shapes = (
{
closed = 1;
nodes = (
(398,0,o),
(416,1,o),
(421,1,cs),
(434,0,o),
(453,45,o),
(440,70,c),
(449,82,o),
(448,191,o),
(443,201,cs),
(433,215,o),
(445,221,o),
(445,233,cs),
(443,315,ls),
(443,329,o),
(441,338,o),
(423,344,c),
(412,346,o),
(345,348,o),
(274,350,cs),
(257,350,o),
(226,348,o),
(224,354,cs),
(222,360,o),
(113,352,o),
(94,351,c),
(328,565,o),
(340,574,o),
(346,587,cs),
(351,598,o),
(400,641,o),
(415,652,cs),
(425,659,o),
(428,672,o),
(435,680,cs),
(439,685,o),
(432,696,o),
(425,698,cs),
(420,699,o),
(392,689,o),
(274,699,cs),
(253,701,o),
(230,699,o),
(204,699,cs),
(192,699,o),
(171,692,o),
(166,699,cs),
(161,706,o),
(152,698,o),
(144,699,cs),
(115,704,o),
(84,699,o),
(49,699,cs),
(31,700,o),
(20,655,o),
(52,666,cs),
(65,671,o),
(129,667,o),
(203,668,cs),
(214,668,o),
(225,663,o),
(236,668,cs),
(245,672,o),
(254,670,o),
(264,668,cs),
(310,659,o),
(354,669,o),
(376,669,c),
(389,667,o),
(363,641,o),
(351,637,cs),
(341,635,o),
(336,626,o),
(333,618,c),
(318,592,o),
(72,379,o),
(51,358,cs),
(10,321,o),
(47,314,o),
(73,314,cs),
(136,315,l),
(150,310,l),
(181,317,l),
(401,311,ls),
(405,311,o),
(412,52,o),
(407,32,c),
(381,34,o),
(321,35,o),
(217,32,c),
(170,35,o),
(154,38,o),
(122,38,cs),
(-20,38,o),
(34,0,o),
(73,0,cs)
);
},
{
closed = 1;
nodes = (
(263,172,o),
(266,179,o),
(267,185,cs),
(270,192,o),
(267,198,o),
(262,204,cs),
(253,215,o),
(220,231,o),
(209,220,c),
(204,212,o),
(198,203,o),
(196,192,cs),
(196,186,o),
(204,178,o),
(206,170,cs),
(210,150,o),
(235,150,o),
(259,168,cs)
);
},
{
closed = 1;
nodes = (
(234,180,o),
(227,180,o),
(226,185,cs),
(225,187,o),
(223,189,o),
(223,191,cs),
(223,194,o),
(225,196,o),
(226,198,c),
(229,202,o),
(239,197,o),
(241,194,cs),
(242,193,o),
(243,191,o),
(242,189,cs),
(242,187,o),
(241,185,o),
(240,184,cs)
);
}
);
width = 477;
}
);
unicode = 439;
},
{
glyphname = F;
lastChange = "2023-11-03 10:39:56 +0000";
layers = (
{
anchors = (
{
name = bottom;
pos = (153,7);
},
{
name = top;
pos = (253,700);
}
);
layerId = m01;
shapes = (
{
closed = 1;
nodes = (
(194,5,ls),
(201,5,o),
(207,8,o),
(213,10,cs),
(219,12,o),
(228,5,o),
(235,5,cs),
(245,5,o),
(330,4,o),
(331,6,c),
(336,10,o),
(342,15,o),
(344,21,cs),
(346,28,o),
(338,28,o),
(334,31,cs),
(325,36,o),
(317,39,o),
(307,39,cs),
(285,39,o),
(199,39,o),
(177,39,cs),
(174,39,o),
(169,40,o),
(169,72,cs),
(169,377,l),
(290,377,l),
(304,384,o),
(295,386,o),
(316,389,cs),
(320,389,o),
(320,394,o),
(319,396,cs),
(309,409,o),
(307,410,o),
(291,410,c),
(168,410,l),
(168,610,o),
(169,628,o),
(169,647,cs),
(169,652,o),
(171,655,o),
(175,656,c),
(189,655,o),
(199,668,o),
(221,664,c),
(224,658,o),
(228,653,o),
(235,647,cs),
(258,630,o),
(282,614,o),
(296,588,cs),
(301,578,o),
(320,575,o),
(329,569,cs),
(334,566,o),
(332,558,o),
(342,555,cs),
(358,550,o),
(371,540,o),
(379,524,cs),
(389,505,o),
(415,494,o),
(427,491,c),
(436,472,o),
(458,497,o),
(457,514,cs),
(457,521,o),
(458,562,o),
(465,574,cs),
(470,581,o),
(461,593,o),
(459,601,cs),
(458,605,o),
(466,608,o),
(462,615,cs),
(455,628,o),
(455,637,o),
(462,650,cs),
(469,660,o),
(467,670,o),
(462,681,cs),
(454,698,o),
(454,698,o),
(439,698,cs),
(219,702,o),
(183,698,o),
(181,696,cs),
(173,688,o),
(163,690,o),
(153,689,cs),
(144,688,o),
(135,680,o),
(135,670,c),
(136,555,o),
(134,545,o),
(128,535,c),
(139,522,o),
(135,512,o),
(135,495,cs),
(135,50,ls),
(135,41,o),
(133,38,o),
(122,38,cs),
(28,38,ls),
(23,38,o),
(17,38,o),
(12,37,cs),
(7,36,o),
(-2,25,o),
(0,22,cs),
(3,16,o),
(7,10,o),
(12,6,cs),
(15,4,o),
(20,5,o),
(25,5,cs)
);
},
{
closed = 1;
nodes = (
(73,361,o),
(86,375,o),
(96,385,cs),
(101,392,o),
(101,401,o),
(96,408,cs),
(88,418,o),
(80,424,o),
(67,422,cs),
(42,422,o),
(27,409,o),
(27,393,cs),
(27,384,o),
(35,361,o),
(59,361,cs)
);
},
{
closed = 1;
nodes = (
(57,385,o),
(56,391,o),
(56,393,cs),
(56,397,o),
(58,399,o),
(65,399,cs),
(68,400,o),
(70,399,o),
(71,397,cs),
(72,394,o),
(72,392,o),
(71,391,cs),
(70,387,o),
(66,385,o),
(62,385,cs)
);
},
{
closed = 1;
nodes = (
(399,553,o),
(297,640,o),
(267,664,c),
(419,664,l),
(424,655,o),
(429,604,o),
(425,545,c)
);
}
);
width = 477;
}
);
unicode = 70;
},
{
glyphname = G;
lastChange = "2023-11-03 10:39:56 +0000";
layers = (
{
anchors = (
{
name = bottom;
pos = (304,0);
},
{
name = top;
pos = (282,697);
}
);
layerId = m01;
shapes = (
{
closed = 1;
nodes = (
(175,-1,o),
(178,-1,o),
(182,-1,cs),
(398,0,ls),
(407,0,o),
(419,7,o),
(427,-1,cs),
(430,-4,o),
(471,-1,o),
(474,1,c),
(484,11,o),
(473,115,o),
(479,318,cs),
(479,324,o),
(476,328,o),
(469,328,c),
(386,333,o),
(417,327,o),
(334,336,c),
(327,330,o),
(319,328,o),
(311,328,cs),
(289,328,o),
(284,331,o),
(262,328,c),
(259,327,o),
(255,323,o),
(254,320,c),
(254,304,o),
(255,296,o),
(263,290,cs),
(297,260,o),
(324,222,o),
(363,197,cs),
(378,188,o),
(424,139,o),
(437,126,c),
(441,35,l),
(432,34,o),
(211,29,o),
(203,33,cs),
(193,38,o),
(186,35,o),
(178,33,cs),
(174,32,o),
(169,32,o),
(166,34,cs),
(149,44,o),
(132,45,o),
(116,33,cs),
(111,30,o),
(104,34,o),
(104,40,cs),
(104,302,ls),
(104,307,o),
(102,314,o),
(105,318,cs),
(111,326,o),
(113,334,o),
(113,343,cs),
(113,349,o),
(113,521,o),
(113,527,cs),
(113,537,o),
(111,547,o),
(104,555,c),
(104,573,o),
(111,576,o),
(111,586,c),
(105,594,o),
(103,608,o),
(104,650,c),
(104,664,o),
(113,671,o),
(127,671,cs),
(427,671,ls),
(433,671,o),
(437,668,o),
(437,661,c),
(437,532,o),
(437,520,o),
(438,514,cs),
(439,506,o),
(446,500,o),
(446,491,cs),
(446,483,o),
(451,481,o),
(461,482,cs),
(468,482,o),
(471,486,o),
(471,492,cs),
(471,686,ls),
(471,692,o),
(468,696,o),
(461,696,cs),
(424,697,o),
(413,695,o),
(408,699,cs),
(401,703,o),
(282,703,o),
(131,702,c),
(126,698,o),
(123,698,o),
(117,702,cs),
(115,704,o),
(109,705,o),
(106,704,cs),
(88,697,o),
(62,688,o),
(73,672,c),
(75,671,o),
(77,667,o),
(77,666,c),
(70,578,o),
(71,560,o),
(78,548,c),
(78,525,o),
(79,479,o),
(78,456,cs),
(78,451,o),
(72,445,o),
(73,442,c),
(77,437,o),
(76,434,o),
(73,428,cs),
(69,422,o),
(69,416,o),
(73,409,cs),
(75,404,o),
(78,399,o),
(78,394,cs),
(79,379,o),
(77,272,o),
(75,268,cs),
(72,261,o),
(70,255,o),
(70,248,cs),
(70,198,o),
(71,94,o),
(70,44,cs),
(69,34,o),
(77,8,o),
(89,8,cs),
(102,7,o),
(145,8,o),
(150,5,cs),
(157,0,o),
(164,-1,o),
(171,-1,cs)
);
},
{
closed = 1;
nodes = (
(415,195,o),
(321,277,o),
(313,294,c),
(316,301,l),
(327,304,o),
(342,306,o),
(352,300,c),
(426,295,o),
(435,294,o),
(444,291,c),
(445,259,o),
(446,226,o),
(446,192,cs),
(446,173,o),
(432,180,o),
(429,183,cs)
);
},
{
closed = 1;
nodes = (
(282,460,o),
(295,474,o),
(305,484,cs),
(310,491,o),
(310,500,o),
(305,507,cs),
(297,517,o),
(289,523,o),
(276,521,cs),
(251,521,o),
(236,508,o),
(236,492,cs),
(236,483,o),
(244,460,o),
(268,460,cs)
);
},
{
closed = 1;
nodes = (
(265,483,o),
(264,490,o),
(264,492,cs),
(264,496,o),
(267,499,o),
(274,499,cs),
(277,500,o),
(279,498,o),
(281,496,cs),
(282,493,o),
(282,491,o),
(281,490,cs),
(279,486,o),
(275,483,o),
(271,483,cs)
);
}
);
width = 549;
}
);
unicode = 71;
},
{
glyphname = Glottalstop;
lastChange = "2023-11-03 10:39:56 +0000";
layers = (
{
layerId = m01;
shapes = (
{
closed = 1;
nodes = (
(154,75,o),
(155,279,o),
(163,298,cs),
(166,304,o),
(178,308,o),
(186,310,cs),
(192,311,o),
(199,310,o),
(204,310,c),
(233,317,o),
(244,324,o),
(256,324,cs),
(265,324,o),
(315,357,o),
(370,363,cs),
(384,365,o),
(395,391,o),
(395,411,cs),
(395,418,o),
(394,424,o),
(391,428,c),
(401,436,o),
(396,445,o),
(390,453,c),
(391,513,l),
(391,519,o),
(402,525,o),
(395,532,cs),
(384,541,o),
(398,546,o),
(398,553,cs),
(397,600,o),
(397,646,o),
(397,693,cs),
(397,702,o),
(387,712,o),
(378,712,cs),
(58,712,ls),
(42,712,o),
(42,711,o),
(35,694,cs),
(30,684,o),
(28,673,o),
(34,663,cs),
(42,651,o),
(42,640,o),
(35,627,cs),
(31,621,o),
(38,618,o),
(37,614,cs),
(36,607,o),
(26,592,o),
(31,587,c),
(38,575,o),
(40,562,o),
(40,549,cs),
(40,541,o),
(39,533,o),
(39,525,cs),
(39,514,o),
(44,507,o),
(52,501,cs),
(55,498,o),
(58,489,o),
(65,496,c),
(70,505,o),
(112,522,o),
(119,535,cs),
(127,552,o),
(140,562,o),
(156,567,cs),
(166,570,o),
(164,578,o),
(169,581,cs),
(182,590,o),
(195,587,o),
(203,601,cs),
(216,626,o),
(241,643,o),
(264,660,cs),
(271,666,o),
(278,672,o),
(281,678,cs),
(281,679,o),
(315,678,o),
(320,678,cs),
(354,678,ls),
(361,678,o),
(363,673,o),
(363,667,cs),
(364,633,o),
(361,545,o),
(364,536,cs),
(369,525,o),
(350,487,o),
(361,476,c),
(360,468,o),
(355,434,o),
(355,406,cs),
(355,401,o),
(352,398,o),
(348,398,cs),
(338,397,o),
(320,391,o),
(240,357,cs),
(233,354,o),
(223,361,o),
(220,356,cs),
(212,340,o),
(203,345,o),
(194,345,cs),
(165,347,o),
(170,339,o),
(141,338,c),
(132,338,o),
(122,323,o),
(126,313,cs),
(131,299,o),
(128,271,o),
(128,259,c),
(122,253,o),
(121,97,o),
(121,90,cs),
(121,85,o),
(121,101,o),
(121,6,c),
(122,-5,o),
(148,-1,o),
(154,3,c)
);
},
{
closed = 1;
nodes = (
(73,558,o),
(65,652,o),
(78,675,c),
(96,675,o),
(114,676,o),
(133,676,cs),
(231,676,l),
(201,651,o),
(171,626,o),
(140,602,cs),
(119,586,o),
(102,563,o),
(76,555,c)
);
}
);
width = 428;
}
);
unicode = 577;
},
{
glyphname = H;
lastChange = "2023-11-03 10:39:56 +0000";
layers = (
{
anchors = (
{
name = bottom;
pos = (287,0);
},
{
name = center;
pos = (268,350);
},
{
name = top;
pos = (268,700);
},
{
name = topleft;
pos = (8,700);
}
);
layerId = m01;
shapes = (
{
closed = 1;
nodes = (
(92,4,o),
(103,11,o),
(104,18,c),
(101,55,o),
(104,250,o),
(104,323,cs),
(104,337,o),
(106,337,o),
(129,337,cs),
(419,337,ls),
(456,337,o),
(458,335,o),
(458,303,c),
(458,137,o),
(458,128,o),
(459,119,cs),
(460,110,o),
(446,101,o),
(458,92,cs),
(459,91,o),
(457,87,o),
(456,85,cs),
(444,63,o),
(451,43,o),
(452,18,cs),
(452,-1,o),
(485,-7,o),
(485,19,cs),
(485,29,o),
(485,38,o),
(484,139,c),
(492,162,l),
(492,224,o),
(494,417,o),
(494,478,cs),
(494,488,o),
(495,564,o),
(501,571,c),
(495,579,o),
(494,665,o),
(494,677,cs),
(494,681,ls),
(494,691,o),
(482,698,o),
(470,697,cs),
(466,697,o),
(460,695,o),
(460,692,c),
(458,684,o),
(459,674,o),
(459,665,cs),
(459,393,ls),
(459,379,o),
(454,373,o),
(438,370,cs),
(433,368,o),
(427,368,o),
(421,368,cs),
(119,368,ls),
(115,368,o),
(110,369,o),
(107,370,cs),
(102,375,o),
(107,379,o),
(109,384,cs),
(112,390,o),
(113,396,o),
(113,402,cs),
(113,496,o),
(113,578,o),
(114,671,cs),
(114,684,o),
(95,705,o),
(87,698,c),
(71,682,o),
(70,677,o),
(72,675,cs),
(80,667,o),
(78,658,o),
(78,649,c),
(78,511,o),
(77,499,o),
(71,493,c),
(70,469,o),
(70,460,o),
(70,433,cs),
(70,388,o),
(70,122,o),
(70,11,cs),
(70,6,o),
(75,3,o),
(82,3,cs)
);
},
{
closed = 1;
nodes = (
(299,146,o),
(307,152,o),
(315,162,cs),
(320,169,o),
(320,178,o),
(315,185,cs),
(305,195,o),
(292,209,o),
(278,209,cs),
(254,209,o),
(246,186,o),
(246,177,cs),
(246,161,o),
(261,148,o),
(286,148,cs)
);
},
{
closed = 1;
nodes = (
(277,171,o),
(274,174,o),
(274,178,cs),
(274,180,o),
(275,187,o),
(281,187,cs),
(285,187,o),
(289,184,o),
(291,180,cs),
(292,179,o),
(292,177,o),
(291,174,cs),
(289,172,o),
(287,170,o),
(284,171,cs)
);
},
{
closed = 1;
nodes = (
(309,500,o),
(315,509,o),
(317,519,cs),
(317,525,o),
(309,533,o),
(307,541,cs),
(303,560,o),
(278,560,o),
(254,543,cs),
(250,539,o),
(247,532,o),
(246,526,cs),
(243,519,o),
(246,513,o),
(251,508,cs),
(260,497,o),
(293,481,o),
(304,492,c)
);
},
{
closed = 1;
nodes = (
(284,510,o),
(274,514,o),
(272,517,cs),
(271,518,o),
(270,520,o),
(271,522,cs),
(271,524,o),
(272,526,o),
(273,527,cs),
(279,531,o),
(286,531,o),
(287,526,cs),
(288,524,o),
(290,522,o),
(290,520,cs),
(290,517,o),
(288,515,o),
(287,513,c)
);
}
);
width = 571;
}
);
unicode = 72;
},
{
glyphname = Hbar;
lastChange = "2023-11-03 10:39:56 +0000";
layers = (
{
layerId = m01;
shapes = (
{
closed = 1;
nodes = (
(156,4,o),
(167,11,o),
(168,18,c),
(165,55,o),
(168,250,o),
(168,323,cs),
(168,337,o),
(170,337,o),
(193,337,cs),
(483,337,ls),
(520,337,o),
(522,335,o),
(522,303,cs),
(522,137,o),
(522,128,o),
(523,119,cs),
(524,110,o),
(510,101,o),
(522,92,cs),
(523,91,o),
(521,87,o),
(520,85,cs),
(508,63,o),
(515,43,o),
(516,18,cs),
(516,-1,o),
(548,-7,o),
(549,19,cs),
(556,162,l),
(556,224,o),
(558,417,o),
(558,478,cs),
(558,483,o),
(558,502,o),
(559,522,c),
(599,523,o),
(639,527,o),
(659,537,c),
(657,544,l),
(630,568,o),
(572,571,o),
(563,567,c),
(564,569,o),
(558,665,o),
(558,677,cs),
(558,681,ls),
(558,691,o),
(546,698,o),
(534,697,cs),
(530,697,o),
(524,695,o),
(524,692,c),
(522,684,o),
(523,674,o),
(523,665,cs),
(523,562,l),
(501,562,ls),
(465,562,o),
(254,562,o),
(216,563,cs),
(203,563,o),
(190,564,o),
(177,564,c),
(177,599,o),
(178,634,o),
(178,671,cs),
(178,684,o),
(159,705,o),
(151,698,cs),
(135,682,o),
(134,677,o),
(136,675,cs),
(144,667,o),
(142,658,o),
(142,649,cs),
(142,566,l),
(134,566,o),
(127,566,o),
(119,566,cs),
(97,566,ls),
(71,566,o),
(57,557,o),
(37,556,cs),
(29,555,o),
(28,540,o),
(35,538,cs),
(56,531,o),
(77,524,o),
(100,524,cs),
(109,524,o),
(118,526,o),
(127,528,cs),
(141,531,l),
(140,487,o),
(134,477,o),
(134,433,cs),
(134,11,ls),
(134,6,o),
(139,3,o),
(146,3,cs)
);
},
{
closed = 1;
nodes = (
(188,368,o),
(183,369,o),
(180,370,c),
(175,375,o),
(171,379,o),
(173,384,cs),
(176,390,o),
(177,396,o),
(177,402,cs),
(177,533,l),
(203,533,o),
(229,531,o),
(246,531,cs),
(268,530,o),
(298,532,o),
(320,532,cs),
(328,532,o),
(336,532,o),
(341,530,cs),
(361,524,o),
(383,522,o),
(403,522,cs),
(425,522,o),
(447,524,o),
(468,523,cs),
(482,523,o),
(501,522,o),
(523,522,c),
(523,393,ls),
(523,371,o),
(503,368,o),
(485,368,cs),
(192,368,ls)
);
}
);
width = 689;
}
);
unicode = 294;
},
{
glyphname = Hbrevebelow;
lastChange = "2023-11-03 10:39:56 +0000";
layers = (
{
layerId = m01;
shapes = (
{
closed = 1;
nodes = (
(360,-158,o),
(385,-144,o),
(384,-129,cs),
(378,-50,l),
(351,-42,o),
(348,-56,o),
(348,-64,cs),
(348,-68,o),
(348,-87,o),
(349,-98,cs),
(351,-106,o),
(348,-115,o),
(344,-122,c),
(328,-123,o),
(290,-125,o),
(274,-121,cs),
(270,-120,o),
(268,-116,o),
(263,-120,cs),
(260,-123,o),
(256,-123,o),
(252,-123,cs),
(241,-124,o),
(230,-128,o),
(219,-125,cs),
(211,-125,o),
(198,-113,o),
(205,-102,c),
(209,-73,l),
(209,-64,o),
(203,-44,o),
(188,-53,cs),
(175,-61,o),
(176,-121,o),
(178,-136,cs),
(178,-143,o),
(189,-153,o),
(196,-153,cs),
(212,-155,o),
(311,-150,o),
(326,-150,cs),
(337,-150,o),
(348,-151,o),
(359,-157,cs)
);
},
{
ref = H;
}
);
width = 571;
}
);
unicode = 7722;
},
{
glyphname = I;
lastChange = "2023-11-03 10:39:56 +0000";
layers = (
{
anchors = (
{
name = bottom;
pos = (272,0);
},
{
name = ogonek;
pos = (349,15);
},
{
name = top;
pos = (272,700);
},
{
name = topleft;
pos = (2,700);
}
);
layerId = m01;
shapes = (
{
closed = 1;
nodes = (
(418,-1,o),
(433,7,o),
(450,9,cs),
(465,10,o),
(472,17,o),
(472,32,cs),
(472,86,o),
(472,141,o),
(473,195,c),
(459,212,l),
(451,215,o),
(441,213,o),
(440,206,cs),
(439,201,o),
(439,89,o),
(439,60,cs),
(439,41,o),
(436,42,o),
(421,42,cs),
(406,42,o),
(394,44,o),
(380,34,c),
(352,34,o),
(324,34,o),
(296,35,cs),
(293,35,o),
(289,40,o),
(289,43,cs),
(288,52,o),
(289,538,o),
(289,653,c),
(297,657,o),
(320,657,o),
(394,667,c),
(402,667,o),
(410,664,o),
(417,659,c),
(423,656,o),
(428,659,o),
(432,663,cs),
(435,665,o),
(437,665,o),
(438,661,cs),
(439,654,o),
(439,647,o),
(439,502,cs),
(439,478,o),
(472,491,o),
(472,511,cs),
(472,678,ls),
(472,680,o),
(473,681,o),
(472,682,cs),
(464,694,o),
(452,700,o),
(437,700,c),
(378,699,o),
(371,701,o),
(368,698,cs),
(358,690,o),
(293,685,o),
(272,699,c),
(249,696,o),
(209,707,o),
(182,692,cs),
(160,681,o),
(151,700,o),
(126,700,cs),
(106,700,o),
(71,698,o),
(71,670,cs),
(70,627,o),
(71,542,o),
(71,499,cs),
(71,485,o),
(104,483,o),
(104,505,cs),
(104,649,o),
(104,655,o),
(105,660,cs),
(105,662,o),
(108,665,o),
(110,665,cs),
(117,666,o),
(127,668,o),
(131,665,cs),
(139,659,o),
(147,658,o),
(156,658,cs),
(170,658,o),
(245,657,o),
(254,660,c),
(256,645,o),
(252,630,o),
(262,616,c),
(253,581,l),
(253,492,o),
(254,131,o),
(254,42,cs),
(254,36,o),
(249,33,o),
(242,34,cs),
(239,34,o),
(237,34,o),
(234,35,cs),
(193,48,o),
(165,28,o),
(105,47,c),
(105,61,o),
(101,72,o),
(108,84,cs),
(113,90,o),
(112,95,o),
(108,102,cs),
(105,108,o),
(104,115,o),
(104,122,cs),
(104,184,ls),
(104,189,o),
(105,194,o),
(103,196,cs),
(99,202,o),
(93,206,o),
(87,209,cs),
(84,211,o),
(73,201,o),
(72,197,cs),
(71,194,o),
(70,192,o),
(70,189,cs),
(70,30,ls),
(70,18,o),
(79,9,o),
(91,9,cs),
(102,8,o),
(122,10,o),
(132,7,cs),
(148,2,o),
(179,6,o),
(183,6,cs),
(186,6,o),
(190,4,o),
(193,1,c),
(237,1,o),
(333,1,o),
(374,1,cs),
(380,1,o),
(387,0,o),
(401,-1,c)
);
}
);
width = 543;
}
);
unicode = 73;
},
{
glyphname = J;
lastChange = "2023-11-03 10:39:56 +0000";
layers = (
{
anchors = (
{
name = bottom;
pos = (260,0);
},
{
name = top;
pos = (260,700);
}
);
layerId = m01;
shapes = (
{
closed = 1;
nodes = (
(83,-2,o),
(482,-14,o),
(483,11,cs),
(483,83,o),
(483,38,o),
(483,110,c),
(475,152,o),
(485,270,o),
(491,315,c),
(484,324,o),
(482,334,o),
(482,344,cs),
(482,397,o),
(482,424,o),
(482,462,cs),
(482,473,o),
(484,483,o),
(491,493,cs),
(492,495,o),
(491,500,o),
(490,501,cs),
(467,524,o),
(483,643,o),
(483,674,c),
(484,707,o),
(457,698,o),
(430,697,cs),
(419,697,o),
(409,698,o),
(403,702,cs),
(395,707,o),
(388,710,o),
(381,702,c),
(337,699,o),
(326,700,o),
(315,704,cs),
(311,705,o),
(306,708,o),
(304,707,cs),
(286,693,o),
(200,700,o),
(184,701,c),
(176,712,o),
(114,708,o),
(104,708,cs),
(86,708,o),
(78,696,o),
(71,684,cs),
(70,682,o),
(74,670,o),
(76,669,c),
(84,668,o),
(420,669,o),
(432,668,cs),
(438,668,o),
(442,666,o),
(443,659,cs),
(443,651,o),
(440,642,o),
(447,635,c),
(448,633,o),
(443,558,o),
(443,555,c),
(455,539,o),
(453,521,o),
(443,504,cs),
(439,498,o),
(451,484,o),
(450,478,c),
(448,426,l),
(453,421,o),
(453,412,o),
(449,407,cs),
(443,399,o),
(443,392,o),
(443,383,cs),
(443,348,ls),
(443,344,o),
(441,339,o),
(443,336,cs),
(450,328,o),
(452,319,o),
(452,310,c),
(447,187,l),
(447,180,o),
(451,165,o),
(448,160,cs),
(443,154,o),
(442,146,o),
(442,139,cs),
(442,123,o),
(442,83,o),
(442,66,c),
(437,57,o),
(432,56,o),
(419,72,cs),
(404,88,o),
(384,100,o),
(374,121,cs),
(370,129,o),
(362,139,o),
(354,142,cs),
(340,147,o),
(331,158,o),
(322,168,cs),
(254,235,o),
(186,303,o),
(94,395,c),
(90,398,o),
(77,400,o),
(75,397,cs),
(72,394,o),
(70,390,o),
(70,386,c),
(70,30,o),
(77,14,o),
(80,5,cs)
);
},
{
closed = 1;
nodes = (
(310,27,o),
(187,34,o),
(115,34,cs),
(105,34,o),
(103,37,o),
(103,47,cs),
(103,142,o),
(103,236,o),
(104,330,cs),
(104,337,o),
(106,340,o),
(113,333,cs),
(144,302,o),
(144,290,o),
(169,265,cs),
(278,160,ls),
(296,142,o),
(319,131,o),
(335,112,cs),
(352,93,o),
(413,35,o),
(401,34,c),
(374,34,o),
(367,33,o),
(361,27,c)
);
},
{
closed = 1;
nodes = (
(293,404,o),
(304,410,o),
(315,417,c),
(326,428,o),
(326,447,o),
(309,463,cs),
(293,475,o),
(293,478,o),
(273,464,cs),
(253,451,o),
(246,435,o),
(256,417,cs),
(262,407,o),
(273,397,o),
(282,400,cs)
);
},
{
closed = 1;
nodes = (
(285,426,o),
(282,429,o),
(281,431,cs),
(278,436,o),
(280,440,o),
(284,444,cs),
(290,447,o),
(290,447,o),
(294,443,cs),
(298,439,o),
(298,434,o),
(295,431,c),
(293,429,o),
(290,428,o),
(287,427,cs)
);
}
);
width = 561;
}
);
unicode = 74;
},
{
glyphname = K;
lastChange = "2023-11-03 10:39:56 +0000";
layers = (
{
anchors = (
{
name = bottom;
pos = (271,0);
},
{
name = top;
pos = (271,700);
}
);
layerId = m01;
shapes = (
{
closed = 1;
nodes = (
(103,23,o),
(113,31,o),
(113,41,cs),
(113,46,o),
(110,51,o),
(105,56,c),
(95,96,o),
(112,138,o),
(112,146,cs),
(111,162,o),
(111,151,o),
(109,167,c),
(113,189,o),
(117,209,o),
(106,229,cs),
(102,236,o),
(103,244,o),
(109,250,cs),
(114,255,o),
(113,259,o),
(109,263,cs),
(105,267,o),
(102,271,o),
(106,276,cs),
(110,280,o),
(111,284,o),
(107,288,cs),
(104,293,o),
(115,298,o),
(107,304,cs),
(104,306,o),
(104,311,o),
(104,314,cs),
(104,324,o),
(108,323,o),
(113,319,c),
(170,269,o),
(188,257,o),
(199,242,cs),
(210,227,o),
(258,186,o),
(268,175,c),
(285,171,o),
(320,137,o),
(323,131,cs),
(332,111,o),
(353,102,o),
(367,86,c),
(389,79,o),
(402,62,o),
(454,16,cs),
(466,6,o),
(485,2,o),
(485,17,cs),
(485,43,o),
(477,58,o),
(477,84,cs),
(477,90,o),
(479,96,o),
(483,108,cs),
(484,110,o),
(485,116,o),
(483,118,cs),
(476,124,o),
(477,131,o),
(477,139,cs),
(477,225,ls),
(477,229,o),
(476,234,o),
(478,237,cs),
(484,243,o),
(486,250,o),
(486,257,c),
(488,316,o),
(485,352,o),
(485,362,cs),
(485,380,o),
(486,463,o),
(486,469,cs),
(486,478,o),
(484,487,o),
(478,495,c),
(474,499,o),
(487,507,o),
(484,512,c),
(483,518,o),
(478,523,o),
(478,528,cs),
(478,543,o),
(493,549,o),
(484,560,cs),
(475,571,o),
(474,581,o),
(483,591,cs),
(484,592,o),
(481,594,o),
(480,596,cs),
(475,602,o),
(475,608,o),
(478,614,cs),
(489,629,o),
(489,644,o),
(478,659,c),
(476,665,o),
(490,678,o),
(480,686,cs),
(476,689,o),
(472,693,o),
(469,696,cs),
(465,700,o),
(441,688,o),
(434,682,cs),
(411,659,o),
(384,640,o),
(364,613,cs),
(358,603,o),
(262,518,o),
(250,513,cs),
(235,509,o),
(239,493,o),
(226,489,cs),
(220,487,o),
(213,484,o),
(209,479,c),
(203,475,o),
(201,467,o),
(195,462,cs),
(120,395,ls),
(116,391,o),
(114,395,o),
(112,399,c),
(112,516,o),
(113,527,o),
(109,533,cs),
(101,543,o),
(116,547,o),
(113,557,cs),
(106,575,o),
(118,586,o),
(105,600,c),
(104,611,o),
(101,619,o),
(110,628,cs),
(112,630,o),
(112,636,o),
(110,638,cs),
(104,645,o),
(113,656,o),
(113,662,cs),
(113,672,o),
(106,682,o),
(100,691,cs),
(96,698,o),
(81,685,o),
(79,679,cs),
(77,671,o),
(78,662,o),
(78,344,cs),
(78,339,o),
(77,317,o),
(71,311,cs),
(70,311,o),
(72,304,o),
(74,303,cs),
(79,296,o),
(79,291,o),
(74,286,cs),
(70,281,o),
(68,277,o),
(73,272,cs),
(77,269,o),
(78,264,o),
(78,259,cs),
(78,156,o),
(77,147,o),
(77,139,c),
(66,134,o),
(80,126,o),
(74,120,cs),
(67,113,o),
(82,110,o),
(78,104,cs),
(71,97,o),
(70,88,o),
(70,79,cs),
(70,65,o),
(79,30,o),
(82,16,cs),
(84,9,o),
(94,7,o),
(98,14,cs)
);
},
{
closed = 1;
nodes = (
(439,62,o),
(395,104,o),
(368,127,cs),
(337,155,o),
(337,134,o),
(320,172,cs),
(317,182,o),
(300,178,o),
(297,191,cs),
(296,199,o),
(285,204,o),
(140,333,cs),
(134,338,o),
(128,343,o),
(123,349,cs),
(121,351,o),
(121,357,o),
(123,359,cs),
(134,367,o),
(142,380,o),
(158,385,cs),
(167,388,o),
(176,396,o),
(180,407,cs),
(182,411,o),
(359,569,o),
(444,644,c),
(448,647,o),
(451,647,o),
(451,640,c),
(451,157,o),
(452,151,o),
(452,145,cs),
(452,137,o),
(451,130,o),
(444,124,c),
(453,115,o),
(451,76,o),
(449,62,c)
);
},
{
closed = 1;
nodes = (
(352,317,o),
(360,340,o),
(360,349,cs),
(360,365,o),
(345,378,o),
(320,378,cs),
(307,380,o),
(299,374,o),
(291,364,cs),
(286,357,o),
(286,348,o),
(291,341,cs),
(301,331,o),
(314,317,o),
(328,317,cs)
);
},
{
closed = 1;
nodes = (
(321,339,o),
(317,342,o),
(315,346,cs),
(314,347,o),
(314,349,o),
(315,352,cs),
(317,354,o),
(319,356,o),
(322,355,cs),
(329,355,o),
(332,352,o),
(332,348,cs),
(332,346,o),
(331,339,o),
(325,339,cs)
);
}
);
width = 557;
}
);
unicode = 75;
},
{
glyphname = L;
lastChange = "2023-11-03 10:42:22 +0000";
layers = (
{
anchors = (
{
name = bottom;
pos = (251,0);
},
{
name = center;
pos = (97,350);
},
{
name = top;
pos = (97,691);
},
{
name = topright;
pos = (169,800);
}
);
layerId = m01;
shapes = (
{
closed = 1;
nodes = (
(478,1,ls),
(495,1,o),
(494,1,o),
(502,19,cs),
(507,30,o),
(510,42,o),
(503,52,cs),
(496,63,o),
(496,76,o),
(502,88,cs),
(507,95,o),
(505,112,o),
(506,118,c),
(508,122,o),
(508,127,o),
(506,131,cs),
(495,151,o),
(498,175,o),
(498,190,cs),
(499,201,o),
(488,227,o),
(481,220,cs),
(469,208,o),
(474,212,o),
(461,208,cs),
(446,202,o),
(432,197,o),
(425,183,cs),
(417,167,o),
(403,155,o),
(386,151,cs),
(376,148,o),
(378,139,o),
(373,136,cs),
(359,128,o),
(346,130,o),
(338,116,cs),
(324,89,o),
(299,73,o),
(275,54,cs),
(268,49,o),
(263,43,o),
(261,36,c),
(200,36,ls),
(188,36,o),
(169,33,o),
(157,37,cs),
(145,41,o),
(133,45,o),
(120,45,c),
(116,46,o),
(113,49,o),
(113,55,cs),
(113,676,l),
(95,704,o),
(78,699,o),
(78,678,c),
(78,213,l),
(78,207,o),
(79,202,o),
(79,196,cs),
(79,187,o),
(77,179,o),
(70,172,c),
(77,161,o),
(79,150,o),
(79,139,cs),
(79,127,o),
(78,42,o),
(78,30,cs),
(78,20,o),
(87,11,o),
(97,10,cs),
(107,9,o),
(117,11,o),
(126,3,cs),
(128,1,o),
(134,3,o),
(137,5,cs),
(160,21,o),
(181,1,o),
(207,1,cs)
);
},
{
closed = 1;
nodes = (
(335,62,o),
(438,152,o),
(464,161,c),
(467,158,o),
(472,57,o),
(462,37,c),
(443,37,o),
(424,36,o),
(304,36,c)
);
}
);
width = 542;
}
);
unicode = 76;
},
{
glyphname = Lslash;
lastChange = "2023-11-03 10:39:56 +0000";
layers = (
{
layerId = m01;
shapes = (
{
closed = 1;
nodes = (
(46,358,o),
(65,365,o),
(71,368,cs),
(114,384,o),
(131,392,o),
(170,412,cs),
(184,419,o),
(197,424,o),
(213,426,cs),
(221,427,o),
(230,430,o),
(237,433,cs),
(256,442,o),
(272,456,o),
(288,469,cs),
(293,474,o),
(287,488,o),
(280,486,cs),
(274,484,o),
(271,491,o),
(266,490,cs),
(259,488,o),
(253,486,o),
(245,483,cs),
(232,477,o),
(217,469,o),
(204,463,cs),
(191,457,o),
(177,451,o),
(163,444,cs),
(129,426,o),
(124,425,o),
(88,411,cs),
(77,406,o),
(17,378,o),
(-3,369,c),
(2,358,o),
(9,350,o),
(43,357,c)
);
},
{
ref = L;
}
);
width = 542;
}
);
unicode = 321;
},
{
glyphname = M;
lastChange = "2023-11-03 10:39:56 +0000";
layers = (
{
anchors = (
{
name = bottom;
pos = (355,0);
},
{
name = top;
pos = (355,700);
}
);
layerId = m01;
shapes = (
{
closed = 1;
nodes = (
(628,2,o),
(642,3,o),
(656,3,c),
(660,10,o),
(661,17,o),
(661,24,cs),
(661,30,o),
(660,37,o),
(659,300,c),
(659,313,o),
(671,324,o),
(666,329,cs),
(656,339,o),
(656,489,o),
(665,500,cs),
(667,503,o),
(668,508,o),
(668,512,cs),
(668,568,o),
(668,624,o),
(669,680,cs),
(669,693,o),
(657,690,o),
(652,695,cs),
(646,701,o),
(642,696,o),
(639,692,cs),
(621,667,o),
(558,564,o),
(535,545,c),
(532,528,o),
(515,522,o),
(509,509,cs),
(488,468,o),
(454,437,o),
(435,398,c),
(419,382,o),
(417,357,o),
(399,343,c),
(397,325,o),
(374,321,o),
(372,302,cs),
(372,296,o),
(358,304,o),
(358,310,cs),
(357,325,o),
(343,329,o),
(339,342,cs),
(335,353,o),
(327,363,o),
(320,373,cs),
(293,411,o),
(272,451,o),
(240,485,c),
(239,500,o),
(221,505,o),
(220,520,c),
(209,529,o),
(202,542,o),
(198,555,cs),
(192,569,o),
(179,575,o),
(172,587,c),
(155,630,o),
(123,657,o),
(100,691,cs),
(98,695,o),
(94,697,o),
(91,699,cs),
(89,701,o),
(85,700,o),
(83,699,cs),
(79,696,o),
(72,691,o),
(72,687,cs),
(70,670,o),
(68,650,o),
(74,634,cs),
(76,629,o),
(79,624,o),
(79,618,cs),
(78,610,o),
(80,599,o),
(76,594,cs),
(67,584,o),
(82,579,o),
(78,572,cs),
(74,565,o),
(71,559,o),
(78,551,cs),
(81,548,o),
(79,540,o),
(79,535,cs),
(79,476,o),
(79,301,o),
(79,271,cs),
(79,261,o),
(70,244,o),
(70,234,cs),
(70,225,o),
(79,217,o),
(79,207,cs),
(79,207,o),
(79,206,o),
(79,205,cs),
(78,198,o),
(77,192,o),
(73,185,cs),
(68,178,o),
(69,169,o),
(75,162,cs),
(78,159,o),
(78,158,o),
(75,155,cs),
(72,152,o),
(72,149,o),
(75,145,cs),
(81,139,o),
(70,137,o),
(70,132,cs),
(70,101,ls),
(70,96,o),
(80,94,o),
(75,87,cs),
(71,82,o),
(70,24,o),
(71,17,cs),
(71,12,o),
(77,8,o),
(81,4,cs),
(89,-3,o),
(94,7,o),
(104,7,c),
(122,-4,o),
(142,2,o),
(160,2,cs),
(163,2,o),
(166,2,o),
(168,2,cs),
(174,2,o),
(181,9,o),
(186,7,cs),
(194,4,o),
(247,2,o),
(256,2,cs),
(260,2,o),
(265,8,o),
(269,12,cs),
(278,21,o),
(264,33,o),
(255,35,cs),
(247,36,o),
(210,36,o),
(201,37,c),
(195,50,o),
(183,30,o),
(177,42,c),
(160,44,o),
(134,48,o),
(116,37,cs),
(111,33,o),
(104,38,o),
(104,43,cs),
(104,234,ls),
(104,242,o),
(103,250,o),
(109,258,cs),
(115,266,o),
(106,294,o),
(107,296,c),
(115,304,o),
(112,314,o),
(112,324,cs),
(112,507,ls),
(112,517,o),
(112,525,o),
(107,535,cs),
(100,547,o),
(104,576,o),
(109,591,cs),
(110,594,o),
(112,596,o),
(109,598,c),
(103,604,o),
(104,611,o),
(104,626,cs),
(104,633,o),
(111,630,o),
(112,628,cs),
(143,588,o),
(119,610,o),
(148,569,cs),
(154,560,o),
(166,553,o),
(170,544,cs),
(176,529,o),
(187,519,o),
(194,506,cs),
(200,493,o),
(213,482,o),
(220,469,cs),
(227,454,o),
(298,358,o),
(309,339,cs),
(321,321,o),
(333,303,o),
(343,283,cs),
(346,277,o),
(350,271,o),
(347,268,cs),
(330,255,o),
(325,234,o),
(314,216,cs),
(301,194,o),
(277,179,o),
(271,152,c),
(271,149,o),
(249,137,o),
(248,131,cs),
(245,119,o),
(259,121,o),
(265,117,cs),
(274,110,o),
(286,110,o),
(296,116,cs),
(307,123,o),
(321,122,o),
(331,117,cs),
(335,115,o),
(339,113,o),
(343,113,cs),
(456,113,ls),
(467,113,o),
(478,126,o),
(472,136,cs),
(457,162,o),
(441,188,o),
(422,210,cs),
(409,225,o),
(403,243,o),
(392,259,c),
(388,267,o),
(389,275,o),
(396,282,cs),
(409,294,o),
(601,582,o),
(608,595,cs),
(612,604,o),
(618,611,o),
(625,619,c),
(630,626,o),
(634,628,o),
(634,616,cs),
(634,315,l),
(633,303,l),
(626,294,o),
(626,285,o),
(626,275,cs),
(626,160,ls),
(626,150,o),
(625,141,o),
(633,132,cs),
(635,130,o),
(634,52,o),
(634,44,cs),
(634,41,o),
(630,36,o),
(627,36,cs),
(620,35,o),
(613,35,o),
(606,35,cs),
(501,35,ls),
(485,35,o),
(473,26,o),
(458,23,cs),
(455,22,o),
(451,16,o),
(451,14,cs),
(451,7,o),
(464,2,o),
(471,2,cs),
(519,1,o),
(566,1,o),
(614,1,cs)
);
},
{
closed = 1;
nodes = (
(373,146,o),
(343,146,o),
(312,147,cs),
(311,147,o),
(309,151,o),
(309,152,c),
(324,182,o),
(339,211,o),
(364,233,cs),
(370,239,o),
(372,236,o),
(374,229,cs),
(377,216,o),
(399,205,o),
(422,159,c),
(430,151,o),
(417,146,o),
(404,146,cs)
);
},
{
closed = 1;
nodes = (
(394,480,o),
(402,503,o),
(402,512,cs),
(402,528,o),
(387,541,o),
(362,541,cs),
(349,543,o),
(341,537,o),
(333,527,cs),
(328,520,o),
(328,511,o),
(333,504,cs),
(343,494,o),
(356,480,o),
(370,480,cs)
);
},
{
closed = 1;
nodes = (
(363,502,o),
(359,505,o),
(357,509,cs),
(356,510,o),
(356,512,o),
(357,515,cs),
(359,517,o),
(361,519,o),
(364,518,cs),
(371,518,o),
(374,515,o),
(374,511,cs),
(374,509,o),
(373,502,o),
(367,502,cs)
);
}
);
width = 739;
}
);
unicode = 77;
},
{
glyphname = N;
lastChange = "2023-11-03 10:39:56 +0000";
layers = (
{
anchors = (
{
name = bottom;
pos = (262,0);
},
{
name = top;
pos = (262,700);
}
);
layerId = m01;
shapes = (
{
closed = 1;
nodes = (
(369,-9,o),
(374,5,o),
(381,4,cs),
(385,4,o),
(390,5,o),
(393,3,cs),
(401,-3,o),
(409,0,o),
(446,1,c),
(454,1,o),
(470,14,o),
(472,22,c),
(472,24,o),
(471,28,o),
(470,29,cs),
(465,34,o),
(464,40,o),
(464,46,cs),
(464,90,o),
(463,189,o),
(466,192,cs),
(472,198,o),
(473,205,o),
(473,211,c),
(473,375,ls),
(473,385,o),
(473,393,o),
(479,403,cs),
(484,411,o),
(484,422,o),
(476,431,cs),
(474,433,o),
(475,437,o),
(475,441,cs),
(475,442,o),
(476,468,o),
(475,468,c),
(471,474,o),
(471,480,o),
(475,486,cs),
(478,490,o),
(479,493,o),
(476,498,cs),
(473,505,o),
(473,513,o),
(473,520,cs),
(473,668,ls),
(473,677,o),
(473,686,o),
(472,694,cs),
(471,700,o),
(465,701,o),
(459,701,cs),
(454,701,o),
(448,699,o),
(448,693,cs),
(447,685,o),
(447,676,o),
(447,667,cs),
(447,661,o),
(447,651,o),
(448,644,c),
(448,633,o),
(440,621,o),
(438,610,c),
(438,601,o),
(449,589,o),
(447,580,cs),
(445,564,o),
(448,562,o),
(448,546,cs),
(448,538,o),
(446,529,o),
(440,522,cs),
(438,520,o),
(439,516,o),
(441,515,cs),
(445,510,o),
(448,505,o),
(447,498,c),
(447,411,l),
(437,404,o),
(450,388,o),
(445,378,c),
(435,373,o),
(450,367,o),
(443,360,cs),
(436,354,o),
(439,346,o),
(439,339,c),
(439,197,o),
(438,171,o),
(433,164,cs),
(432,163,o),
(442,139,o),
(436,130,cs),
(430,121,o),
(438,88,o),
(438,66,cs),
(438,52,o),
(444,46,o),
(430,34,cs),
(426,29,o),
(423,34,o),
(420,36,cs),
(414,39,o),
(410,37,o),
(405,34,cs),
(398,29,o),
(389,25,o),
(382,30,cs),
(376,33,o),
(370,31,o),
(362,31,cs),
(300,31,ls),
(290,31,o),
(288,34,o),
(288,43,cs),
(288,347,ls),
(288,353,o),
(291,359,o),
(294,364,cs),
(296,367,o),
(287,373,o),
(294,379,cs),
(297,382,o),
(298,390,o),
(296,393,cs),
(289,404,o),
(288,415,o),
(289,463,c),
(295,468,o),
(296,475,o),
(296,483,cs),
(296,544,o),
(296,606,o),
(297,667,cs),
(297,676,o),
(292,683,o),
(288,691,cs),
(286,697,o),
(283,699,o),
(277,699,cs),
(265,701,o),
(245,699,o),
(237,699,cs),
(226,699,o),
(215,700,o),
(204,706,cs),
(200,708,o),
(193,706,o),
(188,704,cs),
(171,698,o),
(153,697,o),
(136,704,cs),
(129,706,o),
(123,706,o),
(116,706,cs),
(103,706,o),
(91,702,o),
(79,696,cs),
(75,693,o),
(71,688,o),
(71,683,c),
(69,674,o),
(70,138,o),
(71,38,cs),
(71,30,o),
(71,15,o),
(72,7,cs),
(72,5,o),
(77,3,o),
(80,1,c),
(103,1,o),
(104,3,o),
(105,15,cs),
(105,23,o),
(96,31,o),
(99,36,cs),
(103,44,o),
(105,53,o),
(105,61,cs),
(103,101,o),
(103,54,o),
(104,113,c),
(106,121,o),
(99,127,o),
(97,133,cs),
(96,140,o),
(102,147,o),
(104,154,c),
(107,157,o),
(98,165,o),
(98,170,cs),
(98,175,o),
(103,179,o),
(104,184,c),
(104,191,o),
(106,198,o),
(99,205,cs),
(94,211,o),
(95,219,o),
(100,226,cs),
(107,235,o),
(107,247,o),
(100,256,cs),
(95,263,o),
(94,271,o),
(99,278,cs),
(104,283,o),
(106,289,o),
(100,294,cs),
(93,299,o),
(95,317,o),
(97,319,cs),
(106,328,o),
(104,343,o),
(104,350,cs),
(104,670,l),
(105,673,o),
(106,677,o),
(112,673,c),
(117,671,o),
(186,670,o),
(196,677,c),
(251,677,ls),
(261,677,o),
(263,675,o),
(263,666,c),
(263,541,o),
(264,506,o),
(261,501,cs),
(260,499,o),
(260,496,o),
(260,494,cs),
(260,492,o),
(266,459,o),
(258,450,cs),
(257,448,o),
(258,445,o),
(259,444,cs),
(265,433,o),
(266,424,o),
(258,412,cs),
(254,407,o),
(262,405,o),
(263,400,cs),
(264,393,o),
(252,390,o),
(260,381,cs),
(265,376,o),
(262,367,o),
(263,359,cs),
(263,357,o),
(264,353,o),
(263,351,c),
(256,344,o),
(254,335,o),
(254,326,cs),
(254,319,o),
(255,312,o),
(255,305,cs),
(255,40,o),
(254,33,o),
(255,28,cs),
(258,20,o),
(261,12,o),
(266,4,cs),
(270,-2,o),
(279,-1,o),
(336,1,cs),
(344,1,o),
(355,3,o),
(360,-1,cs)
);
}
);
width = 552;
}
);
unicode = 78;
},
{
glyphname = Eng;
lastChange = "2023-11-03 10:39:56 +0000";
layers = (
{
layerId = m01;
shapes = (
{
closed = 1;
nodes = (
(417,-122,o),
(442,-119,o),
(443,-118,cs),
(457,-115,o),
(470,-101,o),
(470,-94,c),
(468,-62,o),
(476,-36,o),
(475,-29,cs),
(472,-10,o),
(462,22,o),
(457,25,cs),
(446,31,o),
(439,32,o),
(438,31,cs),
(438,18,o),
(436,16,o),
(438,6,cs),
(445,-19,o),
(437,-24,o),
(438,-47,cs),
(439,-56,o),
(437,-70,o),
(433,-80,cs),
(431,-88,o),
(402,-96,o),
(390,-92,cs),
(361,-83,o),
(344,-83,o),
(336,-85,cs),
(315,-89,o),
(330,-117,o),
(337,-120,cs),
(344,-123,o),
(387,-126,o),
(406,-124,cs)
);
},
{
ref = N;
}
);
width = 552;
}
);
unicode = 330;
},
{
glyphname = O;
lastChange = "2023-11-03 10:39:56 +0000";
layers = (
{
anchors = (
{
name = bottom;
pos = (268,9);
},
{
name = center;
pos = (268,350);
},
{
name = ogonek;
pos = (517,58);
},
{
name = top;
pos = (278,700);
},
{
name = topleft;
pos = (68,701);
},
{
name = topright;
pos = (392,994);
}
);
layerId = m01;
shapes = (
{
closed = 1;
nodes = (
(444,3,ls),
(452,3,o),
(462,10,o),
(469,16,cs),
(472,18,o),
(472,26,o),
(472,31,cs),
(472,172,o),
(473,220,o),
(473,379,cs),
(473,389,o),
(474,400,o),
(480,409,c),
(482,411,o),
(473,420,o),
(475,423,c),
(477,429,o),
(481,434,o),
(481,442,cs),
(481,581,ls),
(481,587,o),
(480,592,o),
(476,597,cs),
(470,604,o),
(481,606,o),
(481,611,cs),
(481,646,ls),
(481,658,o),
(480,670,o),
(480,682,cs),
(480,688,o),
(472,695,o),
(466,698,cs),
(462,700,o),
(455,698,o),
(450,698,cs),
(108,698,ls),
(102,698,o),
(96,699,o),
(91,698,cs),
(85,698,o),
(75,686,o),
(75,679,cs),
(75,629,ls),
(75,619,o),
(76,609,o),
(75,600,c),
(64,592,o),
(75,586,o),
(75,578,cs),
(75,477,ls),
(75,472,o),
(68,465,o),
(70,463,cs),
(75,457,o),
(75,450,o),
(75,444,c),
(75,34,ls),
(75,21,o),
(84,12,o),
(96,12,c),
(190,12,o),
(201,13,o),
(209,9,cs),
(220,2,o),
(225,12,o),
(235,12,cs),
(340,12,o),
(350,9,o),
(357,12,cs),
(367,15,o),
(373,-2,o),
(383,12,c),
(392,6,o),
(402,3,o),
(412,3,cs)
);
},
{
closed = 1;
nodes = (
(296,317,o),
(304,340,o),
(304,349,cs),
(304,365,o),
(289,378,o),
(264,378,cs),
(251,380,o),
(243,374,o),
(235,364,cs),
(230,357,o),
(230,348,o),
(235,341,cs),
(245,331,o),
(258,317,o),
(272,317,cs)
);
},
{
closed = 1;
nodes = (
(265,339,o),
(261,342,o),
(259,346,cs),
(258,347,o),
(258,349,o),
(259,352,cs),
(261,354,o),
(263,356,o),
(266,355,cs),
(273,355,o),
(276,352,o),
(276,348,cs),
(276,346,o),
(275,339,o),
(269,339,cs)
);
},
{
closed = 1;
nodes = (
(209,45,o),
(200,46,o),
(191,46,cs),
(108,46,ls),
(103,46,o),
(98,54,o),
(102,58,cs),
(108,66,o),
(109,73,o),
(109,82,cs),
(109,120,ls),
(109,128,o),
(108,136,o),
(102,143,c),
(101,145,o),
(102,151,o),
(104,154,cs),
(113,167,o),
(113,180,o),
(106,194,cs),
(102,205,o),
(101,212,o),
(108,220,c),
(110,221,o),
(109,226,o),
(108,228,c),
(102,234,o),
(101,240,o),
(101,247,cs),
(101,269,o),
(100,279,o),
(108,287,c),
(109,289,o),
(108,296,o),
(106,298,cs),
(100,304,o),
(102,311,o),
(100,318,cs),
(98,328,o),
(114,337,o),
(101,347,c),
(101,647,l),
(102,654,o),
(112,663,o),
(119,663,cs),
(431,663,ls),
(447,663,o),
(447,663,o),
(447,646,cs),
(447,490,ls),
(447,481,o),
(447,474,o),
(442,466,cs),
(436,458,o),
(437,447,o),
(442,438,cs),
(445,432,o),
(446,429,o),
(442,424,cs),
(440,422,o),
(437,415,o),
(439,413,cs),
(445,405,o),
(449,399,o),
(442,390,cs),
(439,387,o),
(436,378,o),
(439,375,c),
(445,366,o),
(447,355,o),
(447,241,cs),
(447,233,o),
(445,225,o),
(439,219,cs),
(437,217,o),
(440,213,o),
(439,211,cs),
(436,202,o),
(451,194,o),
(439,186,c),
(439,60,l),
(439,53,o),
(438,46,o),
(434,39,c),
(419,39,o),
(404,38,o),
(388,38,cs),
(287,38,ls),
(278,38,o),
(268,36,o),
(259,43,cs),
(256,45,o),
(246,37,o),
(241,39,cs),
(235,41,o),
(230,47,o),
(224,39,c),
(222,38,o),
(217,37,o),
(216,38,cs)
);
}
);
width = 551;
}
);
unicode = 79;
},
{
glyphname = Oslash;
lastChange = "2023-11-03 10:39:56 +0000";
layers = (
{
anchors = (
{
name = bottom;
pos = (276,0);
},
{
name = top;
pos = (276,700);
}
);
layerId = m01;
shapes = (
{
closed = 1;
nodes = (
(444,3,ls),
(452,3,o),
(462,10,o),
(469,16,cs),
(472,18,o),
(472,26,o),
(472,31,cs),
(472,172,o),
(473,220,o),
(473,379,cs),
(473,389,o),
(474,400,o),
(480,409,c),
(482,411,o),
(473,420,o),
(475,423,c),
(477,429,o),
(481,434,o),
(481,442,cs),
(481,581,ls),
(481,587,o),
(480,592,o),
(476,597,cs),
(470,604,o),
(481,606,o),
(481,611,cs),
(481,646,ls),
(481,658,o),
(480,670,o),
(480,682,cs),
(480,688,o),
(472,695,o),
(466,698,cs),
(462,700,o),
(455,698,o),
(450,698,cs),
(108,698,ls),
(102,698,o),
(96,699,o),
(91,698,cs),
(85,698,o),
(75,686,o),
(75,679,cs),
(75,629,ls),
(75,619,o),
(76,609,o),
(75,600,c),
(64,592,o),
(75,586,o),
(75,578,cs),
(75,477,ls),
(75,472,o),
(68,465,o),
(70,463,cs),
(75,457,o),
(75,450,o),
(75,444,c),
(75,34,ls),
(75,21,o),
(84,12,o),
(96,12,c),
(190,12,o),
(201,13,o),
(209,9,cs),
(220,2,o),
(225,12,o),
(235,12,cs),
(340,12,o),
(350,9,o),
(357,12,cs),
(367,15,o),
(373,-2,o),
(383,12,c),
(392,6,o),
(402,3,o),
(412,3,cs)
);
},
{
closed = 1;
nodes = (
(209,45,o),
(200,46,o),
(191,46,cs),
(108,46,ls),
(103,46,o),
(98,54,o),
(102,58,cs),
(108,66,o),
(109,73,o),
(109,82,cs),
(109,120,ls),
(109,128,o),
(108,136,o),
(102,143,c),
(101,145,o),
(102,151,o),
(104,154,cs),
(113,167,o),
(113,180,o),
(106,194,cs),
(102,205,o),
(101,212,o),
(108,220,c),
(110,221,o),
(109,226,o),
(108,228,c),
(102,234,o),
(101,240,o),
(101,247,cs),
(101,269,o),
(100,279,o),
(108,287,c),
(109,289,o),
(108,296,o),
(106,298,cs),
(100,304,o),
(102,311,o),
(100,318,cs),
(98,328,o),
(114,337,o),
(101,347,c),
(101,647,l),
(102,654,o),
(112,663,o),
(119,663,cs),
(431,663,ls),
(447,663,o),
(447,663,o),
(447,646,cs),
(447,490,ls),
(447,481,o),
(447,474,o),
(442,466,cs),
(436,458,o),
(437,447,o),
(442,438,cs),
(445,432,o),
(446,429,o),
(442,424,cs),
(440,422,o),
(437,415,o),
(439,413,cs),
(445,405,o),
(449,399,o),
(442,390,cs),
(439,387,o),
(436,378,o),
(439,375,c),
(445,366,o),
(447,355,o),
(447,241,cs),
(447,233,o),
(445,225,o),
(439,219,cs),
(437,217,o),
(440,213,o),
(439,211,cs),
(436,202,o),
(451,194,o),
(439,186,c),
(439,60,l),
(439,53,o),
(438,46,o),
(434,39,c),
(419,39,o),
(404,38,o),
(388,38,cs),
(287,38,ls),
(278,38,o),
(268,36,o),
(259,43,cs),
(256,45,o),
(246,37,o),
(241,39,cs),
(235,41,o),
(230,47,o),
(224,39,c),
(222,38,o),
(217,37,o),
(216,38,cs)
);
},
{
angle = -12.21966;
pos = (88,111);
ref = slash;
}
);
width = 551;
}
);
unicode = 216;
},
{
glyphname = OE;
lastChange = "2023-11-03 10:39:56 +0000";
layers = (
{
layerId = m01;
shapes = (
{
closed = 1;
nodes = (
(778,649,o),
(807,668,o),
(841,664,c),
(847,670,o),
(853,674,o),
(842,681,cs),
(833,686,o),
(821,689,o),
(787,696,c),
(760,697,o),
(706,692,o),
(678,689,cs),
(667,689,o),
(651,688,o),
(643,691,cs),
(627,695,o),
(615,696,o),
(599,693,c),
(581,702,o),
(524,699,o),
(506,700,cs),
(488,702,o),
(476,696,o),
(458,695,c),
(447,667,l),
(511,668,o),
(575,666,o),
(640,666,c),
(657,659,o),
(674,656,o),
(693,664,c),
(710,659,o),
(728,654,o),
(745,663,c)
);
},
{
ref = O;
},
{
closed = 1;
nodes = (
(548,7,o),
(698,7,o),
(802,7,cs),
(814,7,o),
(828,11,o),
(835,16,cs),
(844,20,o),
(845,24,o),
(847,31,c),
(843,32,o),
(833,43,o),
(797,41,cs),
(788,40,o),
(755,39,o),
(747,39,cs),
(672,39,o),
(548,38,o),
(473,38,cs),
(452,38,o),
(427,39,o),
(443,6,c)
);
},
{
closed = 1;
nodes = (
(512,336,o),
(519,337,o),
(524,338,cs),
(535,343,o),
(545,343,o),
(556,343,cs),
(588,340,o),
(601,340,o),
(633,343,cs),
(638,342,o),
(653,343,o),
(655,343,c),
(683,343,o),
(684,368,o),
(671,369,c),
(656,369,o),
(618,369,o),
(610,369,cs),
(582,368,o),
(579,367,o),
(551,370,cs),
(540,370,o),
(529,370,o),
(519,370,cs),
(509,370,o),
(497,372,o),
(487,372,cs),
(481,372,o),
(476,371,o),
(471,370,cs),
(467,368,o),
(467,363,o),
(463,362,cs),
(458,361,o),
(458,339,o),
(463,338,cs),
(477,334,o),
(492,337,o),
(506,336,cs)
);
},
{
closed = 1;
nodes = (
(755,347,ls),
(757,349,o),
(758,353,o),
(758,357,cs),
(758,365,o),
(753,375,o),
(745,378,cs),
(737,380,o),
(716,383,o),
(716,368,c),
(712,355,o),
(702,356,o),
(711,347,cs),
(719,338,o),
(731,323,o),
(740,332,cs)
);
}
);
width = 890;
}
);
unicode = 338;
},
{
glyphname = P;
lastChange = "2023-11-03 10:39:56 +0000";
layers = (
{
anchors = (
{
name = bottom;
pos = (234,0);
},
{
name = top;
pos = (234,700);
}
);
layerId = m01;
shapes = (
{
closed = 1;
nodes = (
(98,3,o),
(108,11,o),
(108,21,cs),
(108,26,o),
(104,36,o),
(106,50,c),
(104,92,o),
(112,138,o),
(112,146,cs),
(111,162,o),
(117,191,o),
(106,211,cs),
(102,218,o),
(103,226,o),
(109,232,cs),
(114,237,o),
(113,241,o),
(109,245,cs),
(105,249,o),
(102,253,o),
(106,258,cs),
(110,262,o),
(111,266,o),
(107,270,c),
(104,275,o),
(115,280,o),
(107,286,cs),
(102,289,o),
(104,301,o),
(105,306,c),
(119,308,o),
(136,313,o),
(146,308,c),
(174,306,o),
(380,306,o),
(454,313,c),
(464,313,o),
(475,321,o),
(473,329,cs),
(469,348,o),
(489,357,o),
(476,370,c),
(485,378,o),
(480,385,o),
(475,393,c),
(485,400,o),
(482,426,o),
(474,433,c),
(474,461,o),
(474,489,o),
(475,515,c),
(476,521,o),
(483,545,o),
(483,552,cs),
(482,592,o),
(482,639,o),
(482,680,cs),
(482,689,o),
(473,697,o),
(464,697,cs),
(455,698,o),
(447,698,o),
(203,698,cs),
(194,698,o),
(183,694,o),
(178,698,c),
(158,710,o),
(85,709,o),
(80,686,cs),
(80,685,o),
(79,685,o),
(79,684,cs),
(77,676,o),
(78,644,o),
(78,326,cs),
(78,321,o),
(77,299,o),
(71,293,c),
(70,293,o),
(79,273,o),
(74,268,cs),
(70,263,o),
(68,259,o),
(73,254,cs),
(77,251,o),
(78,246,o),
(78,241,cs),
(80,162,o),
(77,147,o),
(77,139,c),
(66,134,o),
(80,126,o),
(74,120,cs),
(67,113,o),
(82,110,o),
(78,104,c),
(71,97,o),
(70,88,o),
(70,79,cs),
(70,65,o),
(74,10,o),
(77,-4,cs),
(79,-11,o),
(89,-13,o),
(93,-6,cs)
);
},
{
closed = 1;
nodes = (
(277,464,o),
(300,481,o),
(309,493,cs),
(313,498,o),
(315,503,o),
(315,509,cs),
(315,520,o),
(306,535,o),
(297,537,cs),
(283,539,o),
(255,541,o),
(255,521,cs),
(255,506,o),
(238,503,o),
(249,492,cs),
(263,478,ls)
);
},
{
closed = 1;
nodes = (
(110,347,o),
(111,361,o),
(112,381,cs),
(112,498,o),
(113,527,o),
(109,533,cs),
(101,543,o),
(116,547,o),
(113,557,cs),
(106,575,o),
(118,586,o),
(105,600,c),
(104,611,o),
(101,619,o),
(110,628,cs),
(112,630,o),
(112,636,o),
(110,638,cs),
(104,645,o),
(113,676,o),
(120,671,cs),
(128,664,o),
(132,678,o),
(138,674,cs),
(147,668,o),
(156,667,o),
(165,667,cs),
(172,667,o),
(179,668,o),
(186,668,cs),
(262,667,o),
(328,667,o),
(439,667,cs),
(446,667,o),
(448,663,o),
(448,657,cs),
(448,558,o),
(446,544,o),
(449,537,cs),
(454,526,o),
(435,519,o),
(446,509,c),
(444,503,o),
(438,497,o),
(440,489,cs),
(442,479,o),
(435,457,o),
(446,449,c),
(436,431,o),
(453,443,o),
(448,416,c),
(437,359,o),
(440,391,o),
(440,351,cs),
(440,347,o),
(437,344,o),
(432,343,c),
(403,343,o),
(138,336,o),
(109,336,c)
);
},
{
closed = 1;
nodes = (
(272,502,ls),
(269,505,o),
(274,505,o),
(274,510,cs),
(274,515,o),
(281,515,o),
(285,514,cs),
(288,513,o),
(290,509,o),
(290,506,cs),
(290,505,o),
(290,503,o),
(288,502,c),
(286,499,o),
(280,494,o),
(276,498,cs)
);
}
);
width = 523;
}
);
unicode = 80;
},
{
glyphname = Thorn;
lastChange = "2023-11-03 10:39:56 +0000";
layers = (
{
layerId = m01;
shapes = (
{
closed = 1;
nodes = (
(99,16,o),
(94,42,o),
(100,77,c),
(100,119,o),
(99,153,o),
(97,190,c),
(116,189,o),
(167,190,o),
(174,189,cs),
(184,189,o),
(195,190,o),
(202,187,cs),
(213,180,o),
(218,191,o),
(228,190,cs),
(243,189,o),
(320,189,o),
(328,192,cs),
(337,195,o),
(345,181,o),
(354,193,c),
(373,181,o),
(390,187,o),
(413,187,cs),
(422,187,o),
(431,192,o),
(440,197,cs),
(443,199,o),
(443,207,o),
(443,211,cs),
(443,557,ls),
(443,563,o),
(435,565,o),
(429,565,cs),
(346,566,o),
(199,569,o),
(95,566,c),
(94,602,o),
(96,580,o),
(96,653,cs),
(96,686,o),
(87,694,o),
(85,699,c),
(78,697,o),
(74,694,o),
(70,688,cs),
(66,680,o),
(63,668,o),
(63,657,cs),
(64,600,o),
(65,595,o),
(65,458,cs),
(65,424,o),
(70,387,o),
(70,375,cs),
(70,358,o),
(70,377,o),
(70,359,cs),
(70,236,ls),
(70,227,o),
(70,217,o),
(70,209,cs),
(70,208,ls),
(70,194,o),
(66,179,o),
(73,165,c),
(69,148,o),
(64,111,o),
(73,95,c),
(60,70,o),
(79,42,o),
(76,8,c),
(82,2,o),
(87,-5,o),
(94,7,cs)
);
},
{
closed = 1;
nodes = (
(270,213,o),
(260,211,o),
(251,217,cs),
(248,219,o),
(239,213,o),
(234,214,cs),
(228,216,o),
(223,221,o),
(217,215,cs),
(215,213,o),
(210,213,o),
(209,214,cs),
(202,219,o),
(129,217,o),
(106,217,cs),
(104,217,o),
(102,218,o),
(100,220,c),
(101,224,o),
(106,243,o),
(106,249,cs),
(106,256,o),
(106,271,o),
(105,288,cs),
(106,312,o),
(104,340,o),
(105,353,cs),
(106,358,o),
(105,366,o),
(105,390,cs),
(105,397,o),
(103,402,o),
(101,408,cs),
(96,417,o),
(95,423,o),
(103,430,c),
(109,442,o),
(104,503,o),
(96,514,c),
(96,522,ls),
(96,526,o),
(98,530,o),
(100,535,c),
(114,536,o),
(147,538,o),
(162,538,cs),
(172,538,o),
(182,541,o),
(191,532,c),
(205,529,o),
(212,543,o),
(220,532,c),
(230,532,o),
(359,538,o),
(368,537,cs),
(382,535,o),
(407,534,o),
(411,534,c),
(411,471,o),
(413,434,o),
(409,369,c),
(409,379,l),
(409,289,ls),
(409,281,o),
(409,225,o),
(405,218,c),
(354,217,o),
(295,213,o),
(279,213,cs)
);
}
);
width = 600;
}
);
unicode = 222;
},
{
glyphname = Q;
lastChange = "2023-11-03 10:39:56 +0000";
layers = (
{
anchors = (
{
name = bottom;
pos = (317,0);
},
{
name = top;
pos = (317,700);
}
);
layerId = m01;
shapes = (
{
closed = 1;
nodes = (
(502,-128,o),
(518,-136,o),
(513,-114,cs),
(512,-109,o),
(509,-104,o),
(507,-100,cs),
(501,-89,o),
(480,-61,o),
(480,-58,cs),
(477,-35,o),
(463,-27,o),
(449,-6,c),
(464,-2,o),
(472,5,o),
(472,22,cs),
(472,420,ls),
(472,430,o),
(473,441,o),
(479,450,c),
(481,452,o),
(472,461,o),
(474,464,c),
(476,470,o),
(480,475,o),
(480,483,cs),
(480,582,ls),
(480,587,o),
(479,593,o),
(475,597,cs),
(470,604,o),
(480,606,o),
(480,611,cs),
(480,659,o),
(479,671,o),
(479,682,cs),
(479,687,o),
(471,694,o),
(466,697,cs),
(461,699,o),
(455,697,o),
(449,697,cs),
(108,697,ls),
(103,697,o),
(97,698,o),
(91,697,cs),
(86,697,o),
(76,686,o),
(76,679,cs),
(74,608,o),
(76,586,o),
(76,518,cs),
(76,513,o),
(69,506,o),
(70,504,cs),
(75,497,o),
(76,491,o),
(76,484,cs),
(76,25,ls),
(76,12,o),
(85,3,o),
(97,3,cs),
(164,3,o),
(201,4,o),
(209,0,cs),
(220,-7,o),
(226,3,o),
(235,3,cs),
(332,3,ls),
(340,3,o),
(350,0,o),
(357,3,cs),
(367,6,o),
(373,-11,o),
(382,3,c),
(391,-3,o),
(400,-6,o),
(410,-6,c),
(424,-26,o),
(446,-68,o),
(458,-87,cs),
(469,-104,o),
(486,-113,o),
(500,-126,c)
);
},
{
closed = 1;
nodes = (
(392,82,o),
(293,232,o),
(290,236,c),
(324,236,ls),
(331,236,o),
(338,233,o),
(343,236,cs),
(351,241,o),
(356,222,o),
(363,233,c),
(368,232,o),
(372,226,o),
(377,227,cs),
(387,229,o),
(400,223,o),
(406,233,c),
(416,223,o),
(410,241,o),
(430,236,cs),
(433,235,o),
(435,232,o),
(438,230,c),
(438,50,l),
(438,44,o),
(438,37,o),
(434,30,c),
(427,30,l)
);
},
{
closed = 1;
nodes = (
(209,36,o),
(200,37,o),
(191,37,cs),
(109,37,ls),
(103,37,o),
(99,45,o),
(103,49,c),
(108,57,o),
(110,64,o),
(110,73,cs),
(110,94,o),
(110,182,o),
(110,203,cs),
(110,212,o),
(109,220,o),
(103,227,cs),
(101,229,o),
(102,233,o),
(104,236,cs),
(113,249,o),
(112,263,o),
(107,278,cs),
(102,288,o),
(101,295,o),
(109,303,c),
(108,311,l),
(101,352,o),
(100,362,o),
(108,370,cs),
(110,372,o),
(108,378,o),
(106,381,cs),
(101,387,o),
(102,394,o),
(101,401,cs),
(99,411,o),
(114,420,o),
(102,430,c),
(102,405,o),
(100,632,o),
(102,648,cs),
(102,654,o),
(112,664,o),
(119,664,cs),
(126,665,o),
(133,664,o),
(140,664,cs),
(430,664,ls),
(446,664,o),
(446,663,o),
(446,646,cs),
(446,531,ls),
(446,522,o),
(446,515,o),
(441,507,cs),
(435,499,o),
(436,488,o),
(441,479,cs),
(444,474,o),
(445,471,o),
(441,465,cs),
(429,453,o),
(453,446,o),
(441,432,cs),
(438,428,o),
(435,420,o),
(438,417,c),
(449,398,o),
(450,278,o),
(438,268,cs),
(437,267,o),
(435,264,o),
(434,263,c),
(428,272,o),
(423,269,o),
(417,262,c),
(398,262,o),
(378,263,o),
(358,263,cs),
(354,263,o),
(351,274,o),
(346,267,cs),
(340,256,o),
(337,270,o),
(333,270,cs),
(312,270,o),
(292,269,o),
(272,269,c),
(268,264,o),
(264,260,o),
(259,261,cs),
(245,263,o),
(242,254,o),
(248,236,c),
(250,233,o),
(349,86,o),
(386,29,c),
(287,29,ls),
(277,29,o),
(268,27,o),
(259,34,cs),
(256,36,o),
(246,28,o),
(241,30,cs),
(235,32,o),
(230,38,o),
(224,30,c),
(222,29,o),
(217,28,o),
(216,29,cs)
);
},
{
closed = 1;
nodes = (
(313,395,o),
(305,432,o),
(274,442,c),
(270,442,o),
(265,433,o),
(261,433,cs),
(243,433,o),
(246,413,o),
(238,403,cs),
(236,402,o),
(241,394,o),
(243,390,cs),
(249,375,o),
(276,379,o),
(279,380,cs)
);
},
{
closed = 1;
nodes = (
(275,401,o),
(268,400,o),
(267,404,cs),
(266,405,o),
(265,407,o),
(265,407,cs),
(267,410,o),
(267,415,o),
(271,415,cs),
(272,415,o),
(273,417,o),
(274,417,c),
(282,414,o),
(284,405,o),
(276,401,cs)
);
}
);
width = 514;
}
);
unicode = 81;
},
{
glyphname = R;
lastChange = "2023-11-03 10:39:56 +0000";
layers = (
{
anchors = (
{
name = bottom;
pos = (265,0);
},
{
name = top;
pos = (269,700);
}
);
layerId = m01;
shapes = (
{
closed = 1;
nodes = (
(94,-3,o),
(104,16,o),
(104,30,cs),
(104,86,ls),
(104,108,o),
(123,137,o),
(107,162,cs),
(105,165,o),
(105,170,o),
(107,173,cs),
(110,179,o),
(116,185,o),
(109,191,cs),
(101,198,o),
(117,206,o),
(107,212,cs),
(105,213,o),
(104,218,o),
(105,219,cs),
(109,224,o),
(111,228,o),
(111,233,cs),
(111,239,o),
(108,246,o),
(105,252,cs),
(102,258,o),
(103,269,o),
(106,272,cs),
(113,278,o),
(122,282,o),
(131,285,cs),
(136,287,o),
(142,285,o),
(148,285,cs),
(232,285,ls),
(239,285,o),
(247,284,o),
(252,288,cs),
(267,298,o),
(294,295,o),
(312,285,cs),
(317,280,o),
(329,295,o),
(338,295,cs),
(341,295,o),
(360,292,o),
(362,291,cs),
(370,285,o),
(378,285,o),
(386,285,cs),
(441,285,ls),
(444,285,o),
(448,280,o),
(449,277,c),
(449,82,o),
(446,71,o),
(449,65,cs),
(458,48,o),
(452,40,o),
(458,9,cs),
(460,-1,o),
(483,-7,o),
(483,14,cs),
(483,279,o),
(484,296,o),
(472,316,cs),
(468,323,o),
(459,319,o),
(453,319,cs),
(200,319,l),
(162,319,ls),
(158,319,o),
(156,324,o),
(159,327,cs),
(186,349,o),
(203,380,o),
(228,405,cs),
(246,423,ls),
(251,428,o),
(255,432,o),
(257,440,cs),
(259,448,o),
(273,444,o),
(273,456,c),
(291,468,o),
(396,589,o),
(434,628,cs),
(450,643,o),
(461,662,o),
(472,681,c),
(478,696,o),
(453,708,o),
(439,708,cs),
(429,708,o),
(419,707,o),
(380,707,cs),
(374,707,o),
(367,709,o),
(363,706,cs),
(355,700,o),
(347,699,o),
(338,699,cs),
(121,699,ls),
(114,699,o),
(107,698,o),
(102,692,cs),
(99,688,o),
(95,684,o),
(90,680,cs),
(82,673,o),
(80,665,o),
(80,654,cs),
(79,337,ls),
(79,329,o),
(77,321,o),
(71,315,cs),
(69,313,o),
(70,308,o),
(71,307,cs),
(79,299,o),
(79,290,o),
(79,280,cs),
(79,130,ls),
(79,124,o),
(82,117,o),
(79,113,cs),
(73,104,o),
(71,92,o),
(71,20,cs),
(71,11,o),
(80,7,o),
(86,2,cs)
);
},
{
closed = 1;
nodes = (
(309,113,o),
(317,136,o),
(317,145,cs),
(317,161,o),
(302,174,o),
(277,174,cs),
(264,176,o),
(256,170,o),
(248,160,cs),
(243,153,o),
(243,144,o),
(248,137,cs),
(258,127,o),
(271,113,o),
(285,113,cs)
);
},
{
closed = 1;
nodes = (
(278,135,o),
(274,138,o),
(272,142,cs),
(271,143,o),
(271,145,o),
(272,148,cs),
(274,150,o),
(276,152,o),
(279,151,cs),
(286,151,o),
(289,148,o),
(289,144,cs),
(289,142,o),
(288,135,o),
(282,135,cs)
);
},
{
closed = 1;
nodes = (
(105,316,o),
(101,337,o),
(106,340,cs),
(115,347,o),
(103,355,o),
(108,360,cs),
(115,368,o),
(112,376,o),
(112,384,cs),
(114,650,ls),
(114,665,o),
(114,665,o),
(131,665,cs),
(244,665,ls),
(260,665,o),
(259,673,o),
(275,673,cs),
(323,673,o),
(371,674,o),
(418,674,cs),
(423,674,o),
(427,664,o),
(424,661,cs),
(406,643,o),
(350,583,o),
(347,569,c),
(347,564,o),
(341,559,o),
(336,557,cs),
(314,546,o),
(299,530,o),
(287,508,c),
(285,502,o),
(278,498,o),
(273,493,cs),
(257,477,o),
(242,461,o),
(226,445,cs),
(217,436,o),
(205,429,o),
(200,418,cs),
(196,406,o),
(179,405,o),
(179,391,c),
(156,368,o),
(134,345,o),
(111,322,cs)
);
}
);
width = 553;
}
);
unicode = 82;
},
{
glyphname = S;
lastChange = "2023-11-03 10:39:56 +0000";
layers = (
{
anchors = (
{
name = bottom;
pos = (269,0);
},
{
name = top;
pos = (269,700);
}
);
layerId = m01;
shapes = (
{
closed = 1;
nodes = (
(147,1,o),
(156,0,o),
(160,3,cs),
(180,15,o),
(251,1,o),
(262,1,c),
(318,0,o),
(384,1,o),
(440,1,cs),
(451,1,o),
(463,-1,o),
(470,8,c),
(473,16,o),
(485,24,o),
(472,34,c),
(469,52,o),
(468,78,o),
(473,97,c),
(481,104,o),
(478,113,o),
(478,122,cs),
(479,185,o),
(479,271,o),
(478,334,cs),
(478,351,o),
(463,364,o),
(444,364,cs),
(375,364,o),
(341,376,o),
(301,361,cs),
(294,358,o),
(292,361,o),
(288,364,cs),
(284,368,o),
(281,372,o),
(286,377,cs),
(294,386,o),
(285,382,o),
(285,400,c),
(294,408,o),
(292,431,o),
(292,485,cs),
(292,501,o),
(299,508,o),
(316,508,cs),
(341,508,o),
(418,508,o),
(431,508,cs),
(442,507,o),
(447,516,o),
(457,518,cs),
(462,519,o),
(465,528,o),
(467,533,cs),
(469,537,o),
(469,543,o),
(470,571,cs),
(470,579,o),
(468,587,o),
(477,595,c),
(465,610,o),
(470,633,o),
(476,640,cs),
(480,645,o),
(480,652,o),
(475,657,cs),
(470,662,o),
(470,669,o),
(470,675,cs),
(468,693,o),
(462,697,o),
(444,697,cs),
(143,697,o),
(135,698,o),
(128,692,cs),
(124,689,o),
(117,700,o),
(111,692,c),
(99,697,o),
(95,698,o),
(90,695,cs),
(78,686,o),
(65,679,o),
(72,663,cs),
(80,645,o),
(78,628,o),
(73,603,cs),
(71,595,o),
(68,586,o),
(74,578,cs),
(81,568,o),
(82,557,o),
(75,546,cs),
(70,537,o),
(69,530,o),
(76,522,cs),
(79,520,o),
(79,519,o),
(76,516,cs),
(70,512,o),
(71,504,o),
(71,498,cs),
(71,385,ls),
(71,367,o),
(72,359,o),
(81,346,cs),
(87,335,o),
(112,346,o),
(124,337,c),
(126,335,o),
(133,334,o),
(135,336,cs),
(144,343,o),
(198,347,o),
(211,335,c),
(221,346,o),
(230,338,o),
(240,334,cs),
(245,332,o),
(252,333,o),
(255,330,cs),
(258,327,o),
(258,321,o),
(258,316,cs),
(258,218,ls),
(258,203,o),
(256,195,o),
(248,187,c),
(244,184,o),
(238,183,o),
(232,183,cs),
(230,183,o),
(186,184,o),
(176,188,c),
(172,185,o),
(165,180,o),
(161,184,cs),
(149,194,o),
(139,190,o),
(123,190,cs),
(94,190,o),
(71,169,o),
(71,141,cs),
(71,131,o),
(70,38,o),
(72,31,cs),
(73,23,o),
(82,17,o),
(80,7,c),
(80,4,o),
(84,1,o),
(89,1,cs)
);
},
{
closed = 1;
nodes = (
(403,23,o),
(296,20,o),
(279,29,cs),
(276,31,o),
(271,30,o),
(267,30,cs),
(260,31,o),
(255,21,o),
(245,29,cs),
(237,35,o),
(134,30,o),
(124,29,cs),
(111,25,o),
(105,33,o),
(105,43,cs),
(105,141,ls),
(105,152,o),
(114,160,o),
(127,160,cs),
(228,160,ls),
(244,160,o),
(251,158,o),
(275,158,c),
(279,158,o),
(287,166,o),
(287,172,cs),
(288,186,o),
(282,185,o),
(286,220,cs),
(286,223,o),
(284,227,o),
(284,231,cs),
(284,243,o),
(284,299,o),
(284,324,cs),
(284,331,o),
(287,334,o),
(297,334,cs),
(381,333,ls),
(400,333,o),
(424,336,o),
(443,329,c),
(444,299,o),
(444,230,o),
(446,225,cs),
(452,207,o),
(457,184,o),
(446,171,cs),
(443,167,o),
(444,159,o),
(444,154,cs),
(444,32,ls),
(444,26,o),
(440,23,o),
(434,23,cs)
);
},
{
closed = 1;
nodes = (
(107,364,o),
(95,375,o),
(98,380,cs),
(105,392,o),
(106,404,o),
(106,416,cs),
(106,428,o),
(105,441,o),
(105,453,cs),
(105,467,o),
(99,460,o),
(99,474,cs),
(99,478,o),
(106,481,o),
(101,487,c),
(98,488,o),
(97,495,o),
(98,496,c),
(112,509,o),
(100,574,o),
(112,587,cs),
(115,591,o),
(115,598,o),
(113,602,c),
(106,610,o),
(104,616,o),
(112,625,cs),
(115,628,o),
(116,637,o),
(113,639,cs),
(106,646,o),
(112,652,o),
(111,657,cs),
(110,662,o),
(105,667,o),
(114,667,cs),
(224,667,ls),
(234,667,o),
(271,662,o),
(278,672,cs),
(281,677,o),
(357,674,o),
(361,674,cs),
(371,674,o),
(380,674,o),
(390,669,c),
(419,666,o),
(447,667,o),
(444,653,cs),
(444,650,o),
(445,625,o),
(445,615,cs),
(445,605,o),
(443,596,o),
(436,587,c),
(436,548,ls),
(436,541,o),
(434,539,o),
(423,538,cs),
(417,537,o),
(410,539,o),
(406,537,cs),
(398,530,o),
(344,532,o),
(315,530,cs),
(307,530,o),
(300,530,o),
(295,534,cs),
(287,542,o),
(276,536,o),
(268,532,cs),
(262,529,o),
(257,518,o),
(258,508,cs),
(258,488,o),
(260,488,o),
(257,469,cs),
(256,460,o),
(270,455,o),
(261,445,cs),
(257,440,o),
(259,431,o),
(258,374,cs),
(258,366,o),
(255,364,o),
(244,364,cs),
(117,364,ls)
);
}
);
width = 549;
}
);
unicode = 83;
},
{
glyphname = Saltillo;
lastChange = "2023-11-03 10:39:56 +0000";
layers = (
{
layerId = m01;
shapes = (
{
closed = 1;
nodes = (
(66,431,o),
(72,455,o),
(72,500,cs),
(72,614,ls),
(72,626,o),
(72,668,o),
(71,680,c),
(69,687,o),
(60,687,o),
(60,695,cs),
(60,705,o),
(44,707,o),
(42,696,cs),
(37,670,o),
(30,640,o),
(30,610,cs),
(30,539,o),
(39,577,o),
(39,500,cs),
(39,466,o),
(38,462,o),
(39,457,cs),
(45,425,o),
(51,431,o),
(56,431,cs)
);
}
);
width = 102;
}
);
unicode = 42891;
},
{
glyphname = Germandbls;
lastChange = "2023-11-03 10:39:56 +0000";
layers = (
{
layerId = m01;
shapes = (
{
closed = 1;
nodes = (
(116,3,o),
(117,79,o),
(115,95,c),
(113,113,o),
(117,230,o),
(117,245,cs),
(117,322,o),
(111,534,o),
(111,611,cs),
(111,628,o),
(114,652,o),
(110,664,c),
(337,664,ls),
(344,664,o),
(350,665,o),
(356,671,c),
(365,672,o),
(375,673,o),
(385,673,cs),
(393,673,o),
(400,672,o),
(407,669,cs),
(412,666,o),
(418,665,o),
(422,664,c),
(418,656,o),
(418,656,o),
(409,647,c),
(395,639,o),
(387,632,o),
(387,619,cs),
(387,604,o),
(382,595,o),
(368,588,cs),
(364,586,o),
(368,576,o),
(364,573,cs),
(359,570,o),
(354,566,o),
(352,561,c),
(324,511,o),
(302,505,o),
(271,458,cs),
(268,453,o),
(267,449,o),
(267,445,cs),
(267,435,o),
(274,429,o),
(274,428,c),
(325,370,o),
(342,332,o),
(397,269,cs),
(424,239,o),
(449,213,o),
(475,177,cs),
(484,164,o),
(489,156,o),
(499,150,c),
(392,150,ls),
(383,150,o),
(294,142,o),
(269,142,cs),
(251,142,o),
(252,150,o),
(234,150,cs),
(218,150,o),
(192,142,o),
(188,140,c),
(176,129,o),
(199,111,o),
(210,111,cs),
(458,111,ls),
(492,111,o),
(525,114,o),
(544,114,cs),
(556,114,o),
(561,129,o),
(561,136,cs),
(561,142,o),
(556,150,o),
(549,158,cs),
(511,193,o),
(482,239,o),
(445,279,cs),
(388,341,o),
(371,369,o),
(316,429,c),
(308,440,o),
(305,445,o),
(307,447,cs),
(348,488,o),
(412,588,o),
(442,641,cs),
(454,667,o),
(462,666,o),
(462,683,cs),
(462,693,o),
(457,700,o),
(444,700,cs),
(96,700,l),
(87,698,o),
(88,695,o),
(84,692,cs),
(74,687,o),
(70,669,o),
(70,649,cs),
(70,630,o),
(73,609,o),
(77,594,cs),
(82,576,o),
(84,560,o),
(84,542,cs),
(84,415,ls),
(84,404,o),
(86,389,o),
(86,377,cs),
(86,370,o),
(85,365,o),
(84,361,cs),
(77,335,o),
(75,308,o),
(75,281,cs),
(75,253,o),
(77,226,o),
(77,199,c),
(84,139,o),
(76,59,o),
(86,3,c)
);
}
);
width = 561;
}
);
unicode = 7838;
},
{
glyphname = Sobliquestroke;
lastChange = "2023-11-03 10:44:57 +0000";
layers = (
{
layerId = m01;
shapes = (
{
pos = (45,0);
ref = S;
},
{
closed = 1;
nodes = (
(89,211,o),
(126,212,o),
(151,242,c),
(171,244,o),
(225,283,o),
(238,296,c),
(259,299,o),
(337,349,o),
(349,365,c),
(411,400,o),
(470,434,o),
(561,490,cs),
(573,494,o),
(582,505,o),
(587,514,cs),
(591,521,o),
(592,526,o),
(589,532,c),
(584,531,o),
(571,535,o),
(540,515,cs),
(532,509,o),
(504,491,o),
(496,487,cs),
(432,447,o),
(548,515,o),
(312,373,c),
(295,367,o),
(285,359,o),
(272,346,cs),
(266,340,o),
(251,332,o),
(240,325,cs),
(212,313,o),
(121,263,o),
(95,248,c),
(65,222,o),
(56,214,o),
(51,204,cs),
(43,191,o),
(51,191,o),
(60,190,c)
);
}
);
width = 633;
}
);
unicode = 42920;
},
{
glyphname = T;
kernLeft = T;
lastChange = "2023-11-03 10:39:56 +0000";
layers = (
{
anchors = (
{
name = bottom;
pos = (222,0);
},
{
name = center;
pos = (214,350);
},
{
name = top;
pos = (201,700);
}
);
layerId = m01;
shapes = (
{
closed = 1;
nodes = (
(371,-5,o),
(379,-4,o),
(384,-2,cs),
(390,0,o),
(396,3,o),
(402,7,cs),
(409,14,o),
(396,30,o),
(383,30,cs),
(304,30,o),
(336,30,o),
(257,30,cs),
(236,30,o),
(229,36,o),
(229,56,c),
(229,639,l),
(229,652,o),
(239,658,o),
(247,665,cs),
(253,671,o),
(255,661,o),
(260,661,cs),
(356,661,ls),
(361,661,o),
(366,666,o),
(371,668,cs),
(378,671,o),
(380,655,o),
(380,649,cs),
(380,523,ls),
(380,518,o),
(378,511,o),
(381,507,cs),
(384,502,o),
(389,496,o),
(395,494,cs),
(402,492,o),
(403,499,o),
(405,504,c),
(411,512,o),
(413,521,o),
(413,531,cs),
(413,673,ls),
(413,677,o),
(415,682,o),
(413,686,cs),
(408,700,o),
(406,699,o),
(394,697,cs),
(387,696,o),
(380,694,o),
(373,694,cs),
(157,694,o),
(100,694,o),
(43,695,cs),
(28,695,o),
(19,686,o),
(19,672,cs),
(19,541,o),
(19,532,o),
(13,523,cs),
(7,513,o),
(12,501,o),
(23,495,c),
(26,494,o),
(32,495,o),
(35,497,cs),
(40,501,o),
(45,505,o),
(45,513,cs),
(44,523,o),
(45,533,o),
(45,647,cs),
(45,680,o),
(74,664,o),
(106,669,cs),
(113,670,o),
(121,670,o),
(126,666,cs),
(133,661,o),
(141,661,o),
(149,661,cs),
(191,661,ls),
(201,661,o),
(203,659,o),
(204,649,cs),
(204,639,o),
(203,574,o),
(203,564,cs),
(203,535,o),
(210,514,o),
(197,488,c),
(201,484,o),
(206,477,o),
(203,473,cs),
(188,458,o),
(195,415,o),
(201,395,c),
(192,388,o),
(205,345,o),
(195,183,cs),
(195,177,o),
(193,170,o),
(196,166,cs),
(203,156,o),
(207,148,o),
(196,137,c),
(194,134,o),
(195,125,o),
(198,121,cs),
(207,109,o),
(201,64,o),
(196,42,cs),
(194,33,o),
(192,31,o),
(183,30,cs),
(134,24,o),
(127,24,o),
(120,25,cs),
(112,26,o),
(94,24,o),
(85,24,cs),
(75,24,o),
(65,26,o),
(52,33,c),
(41,26,o),
(28,24,o),
(21,13,cs),
(19,9,o),
(22,0,o),
(27,0,cs),
(38,-1,o),
(49,-1,o),
(60,-1,cs),
(337,2,ls),
(345,2,o),
(358,6,o),
(368,-3,cs)
);
}
);
width = 424;
}
);
unicode = 84;
},
{
glyphname = Tdiagonalstroke;
lastChange = "2023-11-03 10:39:56 +0000";
layers = (
{
layerId = m01;
shapes = (
{
closed = 1;
nodes = (
(109,-27,o),
(136,-2,o),
(134,37,c),
(148,52,o),
(149,73,o),
(150,92,c),
(164,109,o),
(167,128,o),
(166,148,c),
(187,216,o),
(206,284,o),
(228,351,cs),
(232,364,o),
(244,374,o),
(243,389,cs),
(240,414,o),
(254,420,o),
(259,437,cs),
(289,540,o),
(307,600,o),
(337,703,cs),
(342,714,o),
(342,728,o),
(340,738,cs),
(338,746,o),
(335,750,o),
(329,753,c),
(326,749,o),
(313,743,o),
(304,707,cs),
(302,698,o),
(294,665,o),
(291,657,cs),
(270,584,o),
(260,550,o),
(238,476,cs),
(231,455,o),
(222,431,o),
(219,411,cs),
(215,384,o),
(195,374,o),
(197,347,c),
(191,329,o),
(181,319,o),
(177,299,cs),
(172,279,o),
(150,220,o),
(153,198,c),
(145,183,o),
(142,170,o),
(141,152,cs),
(141,143,o),
(135,127,o),
(131,115,cs),
(119,87,o),
(97,32,o),
(89,3,c),
(84,-35,o),
(83,-48,o),
(85,-59,cs),
(88,-73,o),
(94,-68,o),
(102,-63,c)
);
},
{
ref = T;
}
);
width = 424;
}
);
unicode = 574;
},
{
glyphname = U;
lastChange = "2023-11-03 10:39:56 +0000";
layers = (
{
anchors = (
{
name = bottom;
pos = (278,0);
},
{
name = ogonek;
pos = (529,46);
},
{
name = top;
pos = (282,697);
},
{
name = topright;
pos = (408,992);
}
);
layerId = m01;
shapes = (
{
closed = 1;
nodes = (
(459,0,o),
(466,0,o),
(473,1,cs),
(476,1,o),
(480,3,o),
(480,4,cs),
(482,14,o),
(491,22,o),
(491,32,cs),
(491,35,o),
(490,39,o),
(487,43,cs),
(481,49,o),
(482,55,o),
(487,64,cs),
(488,66,o),
(491,73,o),
(489,75,cs),
(481,83,o),
(482,93,o),
(482,103,cs),
(482,198,ls),
(482,209,o),
(483,219,o),
(488,231,cs),
(494,245,o),
(494,259,o),
(485,271,cs),
(483,274,o),
(482,280,o),
(484,282,cs),
(490,290,o),
(491,298,o),
(491,306,cs),
(490,314,o),
(486,332,o),
(491,348,cs),
(496,360,o),
(477,362,o),
(484,376,cs),
(492,388,o),
(490,405,o),
(490,413,cs),
(491,418,o),
(491,425,o),
(488,429,cs),
(481,438,o),
(482,448,o),
(482,457,cs),
(482,542,ls),
(482,548,o),
(480,555,o),
(483,558,cs),
(489,566,o),
(491,574,o),
(491,582,cs),
(491,591,o),
(491,644,o),
(491,654,cs),
(491,669,o),
(484,681,o),
(476,694,c),
(472,705,o),
(461,696,o),
(458,689,c),
(457,684,o),
(456,678,o),
(456,610,c),
(456,601,o),
(457,593,o),
(463,585,c),
(457,576,o),
(455,566,o),
(455,556,cs),
(455,545,o),
(456,413,o),
(456,383,cs),
(456,376,o),
(453,372,o),
(446,372,cs),
(347,372,l),
(338,373,o),
(331,371,o),
(323,366,cs),
(314,359,o),
(309,374,o),
(301,372,cs),
(293,370,o),
(287,362,o),
(279,372,cs),
(278,373,o),
(273,372,o),
(271,371,c),
(263,362,o),
(255,364,o),
(245,371,cs),
(235,379,o),
(226,364,o),
(215,369,cs),
(212,370,o),
(211,370,o),
(208,369,cs),
(197,365,o),
(150,370,o),
(149,369,cs),
(143,364,o),
(121,364,o),
(116,364,cs),
(107,364,o),
(104,367,o),
(104,378,cs),
(104,632,o),
(104,675,o),
(104,679,cs),
(104,683,o),
(103,687,o),
(100,690,cs),
(91,703,o),
(79,703,o),
(79,687,cs),
(77,672,o),
(84,424,o),
(73,413,cs),
(71,411,o),
(70,404,o),
(72,402,cs),
(79,394,o),
(79,386,o),
(79,378,cs),
(79,350,o),
(79,323,o),
(78,296,cs),
(78,291,o),
(78,284,o),
(75,280,cs),
(71,274,o),
(70,267,o),
(70,260,cs),
(70,13,ls),
(70,3,o),
(73,0,o),
(83,0,cs)
);
},
{
closed = 1;
nodes = (
(105,26,o),
(96,34,o),
(96,46,cs),
(95,96,o),
(95,104,o),
(96,154,cs),
(96,166,o),
(106,180,o),
(104,192,cs),
(103,197,o),
(103,203,o),
(104,325,c),
(104,335,o),
(107,338,o),
(117,338,cs),
(443,338,ls),
(453,338,o),
(456,335,o),
(456,326,c),
(456,11,o),
(456,44,o),
(456,39,cs),
(456,27,o),
(454,26,o),
(440,26,cs),
(435,26,o),
(428,26,o),
(118,26,cs)
);
},
{
closed = 1;
nodes = (
(307,168,o),
(310,175,o),
(311,181,cs),
(314,188,o),
(311,194,o),
(306,199,cs),
(297,210,o),
(264,226,o),
(253,215,c),
(248,207,o),
(242,198,o),
(240,188,cs),
(240,182,o),
(248,174,o),
(250,166,cs),
(254,147,o),
(279,147,o),
(303,164,cs)
);
},
{
closed = 1;
nodes = (
(278,176,o),
(271,176,o),
(270,181,cs),
(269,183,o),
(267,185,o),
(267,187,cs),
(267,190,o),
(269,192,o),
(270,194,c),
(273,197,o),
(283,193,o),
(285,190,cs),
(286,189,o),
(287,187,o),
(286,185,cs),
(286,183,o),
(285,181,o),
(284,180,cs)
);
},
{
closed = 1;
nodes = (
(303,498,o),
(311,521,o),
(311,530,cs),
(311,546,o),
(296,559,o),
(271,559,cs),
(258,561,o),
(250,555,o),
(242,545,cs),
(237,538,o),
(237,529,o),
(242,522,cs),
(252,512,o),
(265,498,o),
(279,498,cs)
);
},
{
closed = 1;
nodes = (
(272,520,o),
(268,523,o),
(266,527,cs),
(265,528,o),
(265,530,o),
(266,533,cs),
(268,535,o),
(270,537,o),
(273,536,cs),
(280,536,o),
(283,533,o),
(283,529,cs),
(283,527,o),
(282,520,o),
(276,520,cs)
);
}
);
width = 562;
}
);
unicode = 85;
},
{
glyphname = "Upsilon-latin";
lastChange = "2023-11-03 10:39:56 +0000";
layers = (
{
anchors = (
{
name = bottom;
pos = (468,51);
},
{
name = top;
pos = (432,697);
}
);
layerId = m01;
shapes = (
{
closed = 1;
nodes = (
(751,-3,ls),
(763,-3,o),
(770,7,o),
(770,20,cs),
(770,23,o),
(729,126,o),
(719,140,cs),
(707,157,o),
(705,177,o),
(698,194,cs),
(512,619,o),
(563,505,o),
(502,664,c),
(610,664,o),
(622,662,o),
(633,662,cs),
(640,662,o),
(646,677,o),
(646,687,cs),
(646,697,o),
(640,698,o),
(633,699,cs),
(629,700,o),
(605,707,o),
(598,708,c),
(591,700,o),
(584,698,o),
(577,698,cs),
(507,698,o),
(541,699,o),
(471,698,cs),
(468,698,o),
(464,694,o),
(464,691,cs),
(463,684,o),
(461,673,o),
(465,669,cs),
(474,659,o),
(470,647,o),
(475,636,cs),
(485,616,o),
(641,262,o),
(641,236,cs),
(641,233,o),
(701,106,o),
(722,59,cs),
(725,50,o),
(720,36,o),
(713,34,c),
(555,31,o),
(644,34,o),
(561,34,cs),
(557,34,o),
(552,38,o),
(548,41,c),
(543,43,o),
(541,31,o),
(535,36,c),
(531,43,o),
(463,43,o),
(459,39,cs),
(451,28,o),
(447,43,o),
(440,42,cs),
(434,41,o),
(427,42,o),
(421,42,cs),
(402,42,o),
(401,32,o),
(397,36,cs),
(391,44,o),
(383,42,o),
(376,42,cs),
(144,41,ls),
(138,41,o),
(130,42,o),
(126,39,cs),
(119,33,o),
(113,32,o),
(106,32,cs),
(84,32,o),
(76,44,o),
(76,54,cs),
(76,75,o),
(105,109,o),
(107,130,cs),
(108,139,o),
(111,148,o),
(116,153,cs),
(130,169,o),
(316,632,o),
(329,653,cs),
(338,667,o),
(333,697,o),
(315,699,cs),
(307,699,o),
(299,697,o),
(291,697,cs),
(279,697,o),
(269,707,o),
(258,707,cs),
(253,707,o),
(248,706,o),
(244,701,c),
(235,715,o),
(229,695,o),
(220,698,cs),
(212,701,o),
(203,699,o),
(160,699,cs),
(153,699,o),
(149,694,o),
(145,688,c),
(141,683,o),
(142,675,o),
(146,673,cs),
(158,669,o),
(167,663,o),
(179,663,cs),
(194,663,o),
(279,664,o),
(286,663,cs),
(294,663,o),
(297,656,o),
(293,649,cs),
(278,616,o),
(102,206,o),
(99,186,cs),
(94,165,o),
(30,42,o),
(30,21,cs),
(30,14,o),
(32,9,o),
(35,4,cs),
(47,-12,o),
(76,23,o),
(92,11,cs),
(107,1,o),
(110,0,o),
(122,11,c),
(132,19,o),
(137,3,o),
(152,3,cs),
(242,4,o),
(248,9,o),
(256,9,cs),
(257,9,o),
(291,4,o),
(367,4,cs),
(376,4,o),
(385,5,o),
(394,12,cs),
(397,14,o),
(403,14,o),
(406,12,c),
(412,5,o),
(420,4,o),
(428,4,cs),
(566,2,o),
(578,6,o),
(625,6,c),
(704,-1,o),
(713,-3,o),
(722,-3,cs)
);
},
{
closed = 1;
nodes = (
(412,240,o),
(435,248,o),
(435,272,cs),
(435,286,o),
(421,299,o),
(411,309,cs),
(404,314,o),
(395,314,o),
(388,309,cs),
(378,301,o),
(372,293,o),
(374,280,cs),
(374,255,o),
(387,240,o),
(403,240,cs)
);
},
{
closed = 1;
nodes = (
(399,268,o),
(396,271,o),
(396,278,cs),
(395,281,o),
(397,283,o),
(399,285,cs),
(402,286,o),
(404,286,o),
(405,285,cs),
(409,283,o),
(412,279,o),
(412,275,cs),
(412,269,o),
(405,268,o),
(403,268,cs)
);
}
);
width = 800;
}
);
unicode = 433;
},
{
glyphname = V;
kernLeft = V;
lastChange = "2023-11-03 10:39:56 +0000";
layers = (
{
anchors = (
{
name = bottom;
pos = (267,0);
},
{
name = top;
pos = (270,700);
}
);
layerId = m01;
shapes = (
{
closed = 1;
nodes = (
(235,-2,o),
(252,-2,o),
(254,4,cs),
(260,20,o),
(270,34,o),
(279,47,cs),
(290,62,o),
(297,79,o),
(303,96,cs),
(310,117,o),
(321,136,o),
(329,157,cs),
(349,201,o),
(378,241,o),
(398,285,cs),
(405,300,o),
(411,316,o),
(424,328,cs),
(426,330,o),
(427,333,o),
(427,335,cs),
(427,353,o),
(439,367,o),
(446,381,cs),
(451,391,o),
(454,401,o),
(454,410,cs),
(454,416,o),
(453,421,o),
(451,426,cs),
(443,443,o),
(442,467,o),
(452,486,cs),
(457,494,o),
(453,506,o),
(453,516,c),
(446,523,o),
(444,531,o),
(444,539,c),
(445,566,o),
(445,578,o),
(452,590,cs),
(453,592,o),
(454,594,o),
(454,597,cs),
(454,606,o),
(443,615,o),
(443,626,cs),
(443,627,o),
(444,647,o),
(450,654,cs),
(453,658,o),
(453,665,o),
(453,670,cs),
(453,686,o),
(445,695,o),
(430,695,cs),
(414,695,o),
(414,692,o),
(412,678,cs),
(412,677,o),
(419,662,o),
(419,655,cs),
(419,586,o),
(419,578,o),
(425,571,cs),
(427,569,o),
(427,562,o),
(425,560,cs),
(417,551,o),
(419,541,o),
(419,418,cs),
(419,410,o),
(418,401,o),
(418,393,c),
(407,386,o),
(412,372,o),
(406,362,cs),
(387,330,o),
(373,295,o),
(353,263,cs),
(343,248,o),
(334,233,o),
(327,217,c),
(292,217,o),
(187,217,o),
(169,217,cs),
(163,217,o),
(158,216,o),
(153,213,c),
(149,222,o),
(126,261,o),
(126,274,cs),
(126,288,o),
(111,293,o),
(106,306,cs),
(99,329,o),
(90,351,o),
(69,389,cs),
(67,394,o),
(66,400,o),
(66,406,cs),
(66,439,ls),
(66,444,o),
(65,448,o),
(66,452,cs),
(70,462,o),
(81,471,o),
(67,482,c),
(74,491,o),
(75,501,o),
(75,511,c),
(75,667,l),
(76,671,o),
(76,680,o),
(76,684,cs),
(75,691,o),
(64,698,o),
(54,698,cs),
(46,698,o),
(40,694,o),
(40,685,cs),
(40,399,ls),
(40,391,o),
(43,384,o),
(46,376,cs),
(62,340,o),
(83,308,o),
(95,270,cs),
(102,248,o),
(151,166,o),
(154,142,c),
(180,112,o),
(190,73,o),
(211,40,cs),
(218,28,o),
(224,16,o),
(231,4,cs)
);
},
{
closed = 1;
nodes = (
(242,43,o),
(242,44,o),
(238,52,cs),
(210,93,o),
(187,144,o),
(165,188,c),
(176,188,o),
(195,182,o),
(208,191,cs),
(213,194,o),
(229,191,o),
(233,191,cs),
(314,191,l),
(309,180,o),
(264,87,o),
(246,51,cs)
);
},
{
closed = 1;
nodes = (
(259,356,o),
(267,362,o),
(275,372,cs),
(280,379,o),
(280,388,o),
(275,395,cs),
(265,405,o),
(252,419,o),
(238,419,cs),
(214,419,o),
(206,396,o),
(206,387,cs),
(206,371,o),
(221,358,o),
(246,358,cs)
);
},
{
closed = 1;
nodes = (
(237,380,o),
(234,383,o),
(234,387,cs),
(234,389,o),
(235,396,o),
(241,396,cs),
(245,396,o),
(249,393,o),
(251,389,cs),
(252,388,o),
(252,386,o),
(251,383,cs),
(249,381,o),
(247,379,o),
(244,380,cs)
);
}
);
width = 495;
}
);
unicode = 86;
},
{
glyphname = W;
lastChange = "2023-11-03 10:39:56 +0000";
layers = (
{
anchors = (
{
name = bottom;
pos = (359,0);
},
{
name = top;
pos = (359,700);
}
);
layerId = m01;
shapes = (
{
closed = 1;
nodes = (
(662,-11,o),
(669,17,o),
(675,32,c),
(667,51,l),
(667,124,ls),
(667,147,o),
(675,160,o),
(675,183,cs),
(675,205,l),
(662,214,o),
(677,221,o),
(675,228,cs),
(672,237,o),
(664,249,o),
(671,255,cs),
(677,262,o),
(678,269,o),
(673,276,cs),
(664,287,o),
(668,300,o),
(668,312,c),
(674,318,o),
(676,324,o),
(676,330,cs),
(676,360,o),
(675,512,o),
(675,565,cs),
(675,571,o),
(675,577,o),
(676,583,cs),
(676,590,o),
(670,596,o),
(669,600,cs),
(669,606,o),
(675,610,o),
(669,616,cs),
(665,620,o),
(675,631,o),
(675,636,cs),
(676,644,o),
(676,674,o),
(675,681,c),
(672,689,o),
(641,699,o),
(641,673,cs),
(641,457,ls),
(641,448,o),
(643,440,o),
(648,433,c),
(641,426,o),
(640,418,o),
(640,410,cs),
(640,400,o),
(642,391,o),
(642,381,cs),
(641,287,o),
(641,191,o),
(641,97,cs),
(641,78,o),
(634,81,o),
(625,94,cs),
(621,99,o),
(566,203,o),
(400,504,c),
(396,509,o),
(391,516,o),
(395,521,cs),
(404,532,o),
(399,549,o),
(413,557,cs),
(416,559,o),
(420,564,o),
(419,566,c),
(418,577,o),
(426,582,o),
(432,590,cs),
(439,599,o),
(448,611,o),
(450,622,cs),
(456,642,o),
(471,656,o),
(483,672,c),
(484,675,o),
(487,685,o),
(485,686,c),
(476,688,o),
(468,696,o),
(458,696,cs),
(451,696,o),
(433,696,o),
(426,696,cs),
(385,696,o),
(400,685,o),
(368,688,cs),
(366,688,o),
(312,689,o),
(302,696,c),
(292,696,o),
(282,696,o),
(272,695,cs),
(269,695,o),
(264,684,o),
(266,679,cs),
(272,668,o),
(276,655,o),
(285,647,cs),
(298,636,o),
(297,622,o),
(306,611,cs),
(323,594,o),
(328,572,o),
(343,553,c),
(341,543,o),
(346,536,o),
(354,530,cs),
(362,523,o),
(362,515,o),
(356,507,cs),
(348,493,o),
(258,336,o),
(250,324,cs),
(242,315,o),
(234,304,o),
(233,295,cs),
(233,284,o),
(211,247,o),
(203,238,cs),
(197,232,o),
(189,223,o),
(189,213,cs),
(189,208,o),
(186,203,o),
(182,199,cs),
(173,191,o),
(116,92,o),
(105,78,cs),
(102,73,o),
(96,75,o),
(96,81,cs),
(96,214,ls),
(96,219,o),
(94,225,o),
(98,229,c),
(97,289,l),
(97,290,o),
(105,293,o),
(104,303,c),
(98,309,o),
(96,315,o),
(104,321,c),
(104,328,o),
(103,358,o),
(97,365,c),
(96,367,o),
(97,372,o),
(99,375,cs),
(108,385,o),
(108,398,o),
(102,410,cs),
(97,420,o),
(96,429,o),
(96,440,cs),
(96,523,ls),
(96,528,o),
(94,533,o),
(96,538,cs),
(99,545,o),
(109,549,o),
(101,557,cs),
(93,565,o),
(105,570,o),
(104,577,c),
(104,669,l),
(104,671,o),
(105,674,o),
(103,676,cs),
(76,700,o),
(70,678,o),
(70,670,c),
(70,28,ls),
(70,11,o),
(85,-4,o),
(97,9,c),
(98,11,o),
(101,12,o),
(102,15,cs),
(109,27,o),
(133,76,o),
(146,84,c),
(160,108,o),
(267,295,o),
(284,328,c),
(300,339,o),
(305,357,o),
(315,371,cs),
(326,386,o),
(325,408,o),
(343,420,c),
(348,454,o),
(357,449,o),
(372,480,c),
(372,482,o),
(379,482,o),
(382,481,c),
(407,441,o),
(424,406,o),
(440,371,cs),
(447,355,o),
(457,340,o),
(465,325,cs),
(474,310,o),
(556,158,o),
(567,144,cs),
(578,129,o),
(581,112,o),
(590,97,cs),
(605,72,o),
(616,50,o),
(628,24,cs),
(632,15,o),
(642,12,o),
(648,6,cs)
);
},
{
closed = 1;
nodes = (
(394,164,o),
(409,177,o),
(409,193,cs),
(409,202,o),
(401,225,o),
(377,225,cs),
(363,225,o),
(350,211,o),
(340,201,cs),
(335,194,o),
(335,185,o),
(340,178,cs),
(348,168,o),
(356,162,o),
(369,164,cs)
);
},
{
closed = 1;
nodes = (
(368,185,o),
(366,187,o),
(364,189,cs),
(363,192,o),
(363,194,o),
(364,195,cs),
(366,199,o),
(370,202,o),
(374,202,cs),
(380,202,o),
(381,195,o),
(381,193,cs),
(381,189,o),
(378,186,o),
(371,186,cs)
);
},
{
closed = 1;
nodes = (
(352,586,o),
(335,617,o),
(318,647,cs),
(313,663,o),
(334,652,o),
(345,663,cs),
(346,664,o),
(368,657,o),
(371,659,cs),
(390,671,o),
(409,664,o),
(432,664,cs),
(434,664,o),
(435,661,o),
(436,655,c),
(418,623,o),
(400,591,o),
(382,560,cs),
(376,551,o),
(373,553,o),
(370,556,c)
);
}
);
width = 746;
}
);
unicode = 87;
},
{
glyphname = X;
lastChange = "2023-11-03 10:39:56 +0000";
layers = (
{
anchors = (
{
name = bottom;
pos = (324,0);
},
{
name = top;
pos = (324,700);
}
);
layerId = m01;
shapes = (
{
closed = 1;
nodes = (
(102,1,o),
(108,5,o),
(108,18,cs),
(108,27,o),
(107,70,o),
(100,81,cs),
(97,85,o),
(100,96,o),
(103,102,cs),
(107,111,o),
(108,131,o),
(108,139,cs),
(108,159,o),
(110,172,o),
(124,184,cs),
(135,193,o),
(171,233,o),
(187,240,cs),
(199,246,o),
(208,257,o),
(218,267,cs),
(224,272,o),
(232,277,o),
(235,283,cs),
(243,301,o),
(261,311,o),
(274,324,cs),
(278,328,o),
(284,330,o),
(289,324,cs),
(302,312,o),
(320,302,o),
(328,285,cs),
(336,270,o),
(348,271,o),
(361,257,cs),
(380,239,o),
(400,220,o),
(420,201,cs),
(427,195,o),
(434,190,o),
(444,186,cs),
(452,184,o),
(456,177,o),
(456,168,cs),
(456,147,ls),
(456,138,o),
(459,129,o),
(465,120,cs),
(467,117,o),
(456,99,o),
(456,95,cs),
(456,92,o),
(464,89,o),
(465,86,cs),
(466,82,o),
(454,79,o),
(460,74,cs),
(465,69,o),
(465,65,o),
(462,60,cs),
(451,42,o),
(456,21,o),
(468,4,cs),
(475,-8,o),
(491,15,o),
(491,21,cs),
(491,151,ls),
(491,167,o),
(486,182,o),
(474,193,cs),
(465,200,o),
(454,207,o),
(450,216,cs),
(446,226,o),
(420,245,o),
(415,251,c),
(401,248,o),
(407,267,o),
(395,267,cs),
(392,267,o),
(389,269,o),
(388,270,cs),
(377,290,o),
(360,304,o),
(338,315,cs),
(332,317,o),
(330,324,o),
(325,330,cs),
(323,332,o),
(319,334,o),
(316,336,cs),
(308,341,o),
(307,346,o),
(312,351,cs),
(322,360,o),
(393,425,o),
(405,433,cs),
(416,440,o),
(418,456,o),
(430,462,cs),
(445,468,o),
(447,479,o),
(456,488,cs),
(468,498,o),
(480,509,o),
(491,518,c),
(491,561,ls),
(491,570,o),
(491,579,o),
(484,587,cs),
(477,595,o),
(490,600,o),
(490,611,cs),
(490,634,o),
(491,659,o),
(491,683,c),
(489,688,o),
(480,700,o),
(473,694,c),
(471,690,o),
(466,689,o),
(465,686,cs),
(463,676,o),
(464,665,o),
(459,656,cs),
(456,650,o),
(456,644,o),
(456,637,cs),
(456,557,ls),
(456,526,o),
(449,522,o),
(439,504,cs),
(436,498,o),
(428,499,o),
(426,495,cs),
(416,478,o),
(396,468,o),
(385,452,cs),
(373,435,o),
(353,428,o),
(340,414,cs),
(326,399,o),
(309,386,o),
(294,373,cs),
(290,369,o),
(286,367,o),
(280,371,cs),
(254,394,o),
(232,419,o),
(201,435,cs),
(192,440,o),
(189,455,o),
(180,457,cs),
(170,461,o),
(171,471,o),
(164,473,cs),
(153,476,o),
(145,480,o),
(143,490,cs),
(140,500,o),
(129,497,o),
(123,502,cs),
(115,510,o),
(108,518,o),
(108,530,cs),
(108,573,o),
(109,615,o),
(109,656,cs),
(109,671,o),
(98,681,o),
(96,695,cs),
(96,696,o),
(91,698,o),
(89,697,cs),
(81,695,o),
(74,689,o),
(74,681,cs),
(74,674,l),
(74,644,ls),
(74,634,o),
(75,623,o),
(82,613,c),
(82,568,ls),
(82,555,o),
(74,540,o),
(74,526,cs),
(74,519,o),
(76,512,o),
(82,507,cs),
(106,487,o),
(134,469,o),
(149,442,cs),
(150,440,o),
(153,437,o),
(156,437,cs),
(168,435,o),
(238,372,o),
(265,348,c),
(242,320,o),
(209,300,o),
(183,274,cs),
(169,262,o),
(76,192,o),
(74,178,cs),
(71,162,o),
(70,141,o),
(70,121,cs),
(71,65,o),
(74,74,o),
(74,19,cs),
(74,9,o),
(85,1,o),
(94,1,cs)
);
},
{
closed = 1;
nodes = (
(310,138,o),
(313,145,o),
(314,151,cs),
(317,158,o),
(314,164,o),
(309,169,cs),
(300,180,o),
(267,196,o),
(256,185,c),
(251,177,o),
(245,168,o),
(243,158,cs),
(243,152,o),
(251,144,o),
(253,136,cs),
(257,117,o),
(282,117,o),
(306,134,cs)
);
},
{
closed = 1;
nodes = (
(281,146,o),
(274,146,o),
(273,151,cs),
(272,153,o),
(270,155,o),
(270,157,cs),
(270,160,o),
(272,162,o),
(273,164,c),
(276,167,o),
(286,163,o),
(288,160,cs),
(289,159,o),
(290,157,o),
(289,155,cs),
(289,153,o),
(288,151,o),
(287,150,cs)
);
},
{
closed = 1;
nodes = (
(307,528,o),
(315,551,o),
(315,560,cs),
(315,576,o),
(300,589,o),
(275,589,cs),
(262,591,o),
(254,585,o),
(246,575,cs),
(241,568,o),
(241,559,o),
(246,552,cs),
(256,542,o),
(269,528,o),
(283,528,cs)
);
},
{
closed = 1;
nodes = (
(276,550,o),
(272,553,o),
(270,557,cs),
(269,558,o),
(269,560,o),
(270,563,cs),
(272,565,o),
(274,567,o),
(277,566,cs),
(284,566,o),
(287,563,o),
(287,559,cs),
(287,557,o),
(286,550,o),
(280,550,cs)
);
}
);
width = 561;
}
);
unicode = 88;
},
{
glyphname = Y;
lastChange = "2023-11-03 10:39:56 +0000";
layers = (
{
anchors = (
{
name = bottom;
pos = (285,0);
},
{
name = top;
pos = (285,700);
},
{
name = topleft;
pos = (30,700);
}
);
layerId = m01;
shapes = (
{
closed = 1;
nodes = (
(194,1,ls),
(234,1,o),
(335,1,o),
(368,1,cs),
(448,1,ls),
(466,1,o),
(481,19,o),
(481,34,cs),
(481,35,o),
(482,70,o),
(474,102,c),
(474,109,o),
(475,116,o),
(477,123,cs),
(485,147,o),
(482,177,o),
(478,202,c),
(478,221,o),
(453,208,o),
(447,199,cs),
(445,197,o),
(447,191,o),
(447,187,cs),
(447,152,o),
(445,53,o),
(444,39,c),
(438,36,o),
(432,35,o),
(426,35,cs),
(418,35,o),
(358,36,o),
(348,35,c),
(335,35,o),
(323,45,o),
(310,45,cs),
(308,45,o),
(306,44,o),
(304,44,cs),
(298,43,o),
(285,62,o),
(289,68,cs),
(293,73,o),
(294,79,o),
(294,85,cs),
(294,90,o),
(293,95,o),
(293,100,cs),
(294,112,o),
(294,201,o),
(294,289,cs),
(294,304,o),
(295,315,o),
(311,323,cs),
(323,328,o),
(336,339,o),
(342,351,cs),
(349,366,o),
(416,433,o),
(440,455,cs),
(455,468,o),
(463,487,o),
(476,501,cs),
(479,504,o),
(480,511,o),
(480,516,cs),
(480,535,o),
(480,652,o),
(480,689,cs),
(480,707,o),
(447,700,o),
(447,680,cs),
(445,638,o),
(447,600,o),
(447,558,cs),
(447,551,o),
(448,544,o),
(454,538,cs),
(455,537,o),
(455,533,o),
(454,531,cs),
(446,509,o),
(438,505,o),
(421,488,cs),
(414,479,o),
(410,469,o),
(402,461,cs),
(367,424,o),
(330,388,o),
(294,352,cs),
(288,346,o),
(283,346,o),
(276,352,cs),
(219,406,o),
(169,467,o),
(105,515,cs),
(99,519,o),
(98,526,o),
(98,533,cs),
(98,659,ls),
(98,666,o),
(98,673,o),
(103,679,cs),
(104,680,o),
(104,684,o),
(102,685,c),
(97,691,o),
(85,702,o),
(80,697,cs),
(75,693,o),
(72,687,o),
(72,679,cs),
(72,665,o),
(72,548,o),
(70,537,cs),
(70,536,o),
(70,535,o),
(70,534,cs),
(70,525,o),
(73,504,o),
(77,500,cs),
(91,489,o),
(100,472,o),
(118,465,cs),
(124,463,o),
(129,456,o),
(132,450,cs),
(141,432,o),
(156,418,o),
(172,408,cs),
(187,399,o),
(198,387,o),
(208,374,cs),
(211,371,o),
(212,366,o),
(215,365,cs),
(234,357,o),
(244,338,o),
(259,326,cs),
(270,318,o),
(271,305,o),
(267,296,c),
(259,245,l),
(259,238,o),
(261,231,o),
(267,225,c),
(268,223,o),
(268,218,o),
(267,217,cs),
(261,211,o),
(259,204,o),
(259,196,cs),
(259,174,o),
(260,60,o),
(259,46,cs),
(259,40,o),
(258,35,o),
(250,35,cs),
(118,35,ls),
(109,35,o),
(106,38,o),
(106,48,cs),
(106,110,o),
(106,147,o),
(107,183,cs),
(107,211,o),
(81,213,o),
(81,200,c),
(81,75,o),
(80,71,o),
(73,63,cs),
(71,61,o),
(71,53,o),
(73,51,cs),
(80,41,o),
(81,31,o),
(81,19,cs),
(82,9,o),
(91,1,o),
(101,1,cs)
);
},
{
closed = 1;
nodes = (
(312,526,o),
(315,533,o),
(316,539,cs),
(319,546,o),
(316,552,o),
(311,557,cs),
(302,568,o),
(269,584,o),
(258,573,c),
(253,565,o),
(247,556,o),
(245,546,cs),
(245,540,o),
(253,532,o),
(255,524,cs),
(259,505,o),
(284,505,o),
(308,522,cs)
);
},
{
closed = 1;
nodes = (
(283,534,o),
(276,534,o),
(275,539,cs),
(274,541,o),
(272,543,o),
(272,545,cs),
(272,548,o),
(274,550,o),
(275,552,c),
(278,555,o),
(288,551,o),
(290,548,cs),
(291,547,o),
(292,545,o),
(291,543,cs),
(291,541,o),
(290,539,o),
(289,538,cs)
);
}
);
width = 552;
}
);
unicode = 89;
},
{
glyphname = Z;
lastChange = "2023-11-03 10:39:56 +0000";
layers = (
{
anchors = (
{
name = bottom;
pos = (277,0);
},
{
name = center;
pos = (280,351);
},
{
name = top;
pos = (275,698);
}
);
layerId = m01;
shapes = (
{
closed = 1;
nodes = (
(460,3,l),
(472,3,o),
(481,11,o),
(481,22,cs),
(481,25,l),
(481,339,ls),
(481,342,o),
(481,344,o),
(480,347,cs),
(479,349,o),
(476,350,o),
(473,351,cs),
(463,352,o),
(452,349,o),
(449,340,cs),
(441,320,o),
(424,304,o),
(421,283,cs),
(421,280,o),
(418,276,o),
(415,273,cs),
(405,266,o),
(402,255,o),
(396,245,cs),
(377,211,o),
(283,56,o),
(270,45,c),
(265,34,o),
(262,33,o),
(253,33,cs),
(150,33,ls),
(132,33,o),
(132,34,o),
(138,50,cs),
(144,67,o),
(170,89,o),
(173,108,cs),
(176,122,o),
(199,169,o),
(209,178,cs),
(215,185,o),
(218,194,o),
(221,202,cs),
(222,206,o),
(222,211,o),
(227,215,cs),
(237,222,o),
(252,265,o),
(255,277,cs),
(258,289,o),
(360,472,o),
(371,481,cs),
(384,492,o),
(380,507,o),
(390,517,cs),
(400,529,o),
(416,576,o),
(428,585,cs),
(437,593,o),
(435,606,o),
(441,616,cs),
(451,631,o),
(459,649,o),
(469,665,cs),
(473,672,o),
(485,680,o),
(480,686,cs),
(475,692,o),
(464,695,o),
(455,698,cs),
(448,700,o),
(442,698,o),
(435,698,cs),
(107,698,ls),
(89,698,o),
(81,692,o),
(81,676,cs),
(81,574,ls),
(81,565,o),
(78,533,o),
(84,520,c),
(78,509,o),
(81,467,o),
(81,459,cs),
(81,364,ls),
(81,359,o),
(79,353,o),
(81,349,cs),
(82,346,o),
(90,343,o),
(92,344,cs),
(102,351,o),
(111,358,o),
(116,369,cs),
(127,391,o),
(145,412,o),
(151,437,cs),
(155,453,o),
(182,478,o),
(184,493,cs),
(185,500,o),
(188,507,o),
(193,513,cs),
(212,533,o),
(259,622,o),
(273,646,cs),
(276,651,o),
(283,654,o),
(288,659,c),
(301,659,o),
(311,667,o),
(322,667,cs),
(326,667,o),
(359,667,o),
(368,667,cs),
(377,667,o),
(375,666,o),
(404,659,c),
(406,660,o),
(408,666,o),
(411,667,cs),
(419,670,o),
(436,664,o),
(431,654,cs),
(404,607,o),
(312,441,o),
(306,428,cs),
(297,409,o),
(288,389,o),
(272,374,cs),
(268,370,o),
(264,363,o),
(264,359,cs),
(264,348,o),
(236,291,o),
(217,273,c),
(213,239,o),
(109,72,o),
(89,50,cs),
(80,41,o),
(76,29,o),
(71,17,cs),
(68,11,o),
(73,3,o),
(80,3,cs)
);
},
{
closed = 1;
nodes = (
(311,31,o),
(310,35,o),
(315,46,cs),
(330,75,o),
(449,272,o),
(452,272,c),
(452,49,o),
(453,40,o),
(449,33,c),
(390,28,o),
(379,34,o),
(325,32,cs)
);
},
{
closed = 1;
nodes = (
(109,413,o),
(107,427,o),
(107,441,cs),
(108,449,o),
(104,458,o),
(112,467,c),
(104,493,o),
(107,499,o),
(113,521,c),
(107,553,o),
(108,557,o),
(106,561,cs),
(104,567,o),
(116,570,o),
(113,577,c),
(104,596,o),
(109,625,o),
(109,647,cs),
(109,651,o),
(110,658,o),
(113,660,cs),
(118,665,o),
(124,668,o),
(133,669,cs),
(137,670,o),
(141,658,o),
(149,666,cs),
(155,672,o),
(184,656,o),
(188,660,cs),
(206,672,o),
(240,672,o),
(249,665,c),
(245,657,o),
(241,651,o),
(236,646,cs),
(225,630,o),
(214,614,o),
(209,593,cs),
(208,589,o),
(205,586,o),
(201,581,cs),
(177,552,o),
(168,518,o),
(145,489,cs),
(138,483,o),
(141,475,o),
(137,468,cs),
(130,453,o),
(121,437,o),
(113,422,cs)
);
}
);
width = 551;
}
);
unicode = 90;
},
{
glyphname = a;
kernLeft = a;
lastChange = "2023-11-03 10:39:56 +0000";
layers = (
{
anchors = (
{
name = bottom;
pos = (246,5);
},
{
name = ogonek;
pos = (494,47);
},
{
name = top;
pos = (276,450);
}
);
layerId = m01;
shapes = (
{
closed = 1;
nodes = (
(318,-4,o),
(332,-2,o),
(345,-2,cs),
(395,-2,o),
(372,6,o),
(423,4,cs),
(444,3,o),
(448,21,o),
(454,44,c),
(449,56,o),
(448,67,o),
(448,80,cs),
(448,89,o),
(448,98,o),
(449,108,cs),
(458,248,o),
(449,221,o),
(449,404,cs),
(449,420,o),
(447,439,o),
(440,444,c),
(435,454,o),
(407,458,o),
(370,452,cs),
(357,449,o),
(120,452,o),
(101,452,cs),
(88,452,o),
(85,443,o),
(73,440,cs),
(69,439,o),
(68,427,o),
(73,426,c),
(85,423,o),
(97,415,o),
(110,415,cs),
(115,415,o),
(121,416,o),
(126,420,cs),
(136,424,o),
(154,425,o),
(164,425,cs),
(189,424,o),
(208,422,o),
(232,425,cs),
(242,425,o),
(254,427,o),
(261,424,cs),
(273,417,o),
(286,416,o),
(298,416,cs),
(309,416,o),
(382,421,o),
(390,421,cs),
(415,421,o),
(422,387,o),
(422,370,cs),
(422,342,o),
(391,349,o),
(373,329,c),
(346,320,o),
(330,310,o),
(318,299,cs),
(294,278,o),
(271,258,o),
(247,238,cs),
(222,216,o),
(186,202,o),
(162,173,cs),
(143,149,o),
(98,136,o),
(72,104,c),
(56,90,o),
(43,77,o),
(29,67,cs),
(11,54,o),
(0,37,o),
(0,24,cs),
(0,10,o),
(13,-1,o),
(46,-1,cs),
(50,-1,o),
(54,-1,o),
(59,-1,cs),
(78,1,o),
(126,7,o),
(143,-2,c),
(181,16,o),
(266,-4,o),
(305,-4,cs)
);
},
{
closed = 1;
nodes = (
(126,36,o),
(75,31,o),
(62,31,cs),
(38,31,o),
(81,77,o),
(88,83,cs),
(106,99,o),
(178,141,o),
(206,169,cs),
(215,178,o),
(226,190,o),
(236,194,cs),
(272,207,o),
(296,242,o),
(327,266,c),
(342,298,o),
(404,297,o),
(422,327,c),
(417,271,o),
(414,128,o),
(417,72,cs),
(418,32,o),
(381,33,o),
(365,33,cs),
(341,32,o),
(316,32,o),
(292,32,cs),
(268,32,o),
(167,40,o),
(142,26,c)
);
},
{
closed = 1;
nodes = (
(300,99,o),
(313,113,o),
(323,123,cs),
(328,130,o),
(328,139,o),
(323,146,cs),
(315,156,o),
(307,162,o),
(294,160,cs),
(269,160,o),
(254,147,o),
(254,131,cs),
(254,122,o),
(262,99,o),
(286,99,cs)
);
},
{
closed = 1;
nodes = (
(283,122,o),
(282,129,o),
(282,131,cs),
(282,135,o),
(285,138,o),
(292,138,cs),
(295,139,o),
(297,137,o),
(299,135,cs),
(300,132,o),
(300,130,o),
(299,129,cs),
(297,125,o),
(293,122,o),
(289,122,cs)
);
}
);
width = 524;
}
);
unicode = 97;
},
{
glyphname = astroke;
lastChange = "2023-11-03 10:39:56 +0000";
layers = (
{
layerId = m01;
shapes = (
{
closed = 1;
nodes = (
(163,-53,l),
(158,-44,o),
(163,-36,o),
(165,-27,cs),
(184,32,o),
(219,124,o),
(221,130,cs),
(224,138,o),
(227,144,o),
(235,147,c),
(236,148,o),
(237,156,o),
(236,159,cs),
(232,170,o),
(270,277,o),
(277,284,cs),
(285,293,o),
(291,300,o),
(287,313,c),
(295,318,o),
(298,324,o),
(301,333,cs),
(311,365,o),
(351,496,o),
(353,500,cs),
(355,507,o),
(355,511,o),
(352,518,cs),
(351,532,o),
(349,537,o),
(328,535,c),
(312,491,o),
(314,487,o),
(311,478,cs),
(291,416,ls),
(289,410,o),
(285,386,o),
(277,386,c),
(275,378,o),
(265,330,o),
(262,322,cs),
(181,121,o),
(174,98,o),
(165,93,cs),
(161,90,o),
(156,78,o),
(158,73,cs),
(161,60,o),
(147,-1,o),
(133,3,c),
(133,-11,o),
(128,-46,o),
(125,-59,c),
(119,-90,o),
(149,-73,o),
(150,-72,cs)
);
},
{
ref = a;
}
);
width = 524;
}
);
unicode = 11365;
},
{
glyphname = ae;
lastChange = "2023-11-03 10:39:56 +0000";
layers = (
{
anchors = (
{
name = bottom;
pos = (421,0);
},
{
name = top;
pos = (421,450);
}
);
layerId = m01;
shapes = (
{
closed = 1;
nodes = (
(41,-8,o),
(47,-7,o),
(53,-3,cs),
(63,0,o),
(72,1,o),
(83,1,cs),
(91,1,o),
(127,1,o),
(137,-3,c),
(166,9,o),
(197,1,o),
(229,1,cs),
(239,1,o),
(252,4,o),
(260,1,cs),
(277,-6,o),
(295,-8,o),
(312,-8,cs),
(326,-8,o),
(339,-7,o),
(352,-7,c),
(366,0,o),
(382,1,o),
(398,1,cs),
(559,6,o),
(348,1,o),
(647,1,cs),
(655,1,o),
(690,1,o),
(698,-7,c),
(704,-7,o),
(724,-9,o),
(732,-3,cs),
(744,2,o),
(751,1,o),
(760,-7,c),
(762,-8,o),
(769,-7,o),
(772,-3,cs),
(780,4,o),
(786,0,o),
(792,-3,c),
(819,2,o),
(848,29,o),
(804,29,cs),
(575,29,ls),
(566,29,o),
(556,27,o),
(549,30,cs),
(526,41,o),
(521,41,o),
(496,33,c),
(475,47,o),
(478,28,o),
(462,28,cs),
(449,28,o),
(448,66,o),
(448,87,cs),
(448,121,o),
(454,178,o),
(454,206,cs),
(454,268,o),
(455,284,o),
(455,299,cs),
(455,311,o),
(448,324,o),
(448,336,cs),
(448,338,o),
(448,340,o),
(449,344,cs),
(454,359,o),
(448,370,o),
(448,387,cs),
(448,393,o),
(448,400,o),
(447,406,c),
(469,391,o),
(523,343,o),
(544,326,cs),
(576,300,o),
(617,280,o),
(639,249,c),
(670,242,o),
(678,219,o),
(697,204,cs),
(705,198,o),
(712,189,o),
(722,187,cs),
(746,181,o),
(777,150,o),
(798,137,cs),
(806,132,o),
(815,134,o),
(824,139,cs),
(837,148,o),
(827,164,o),
(841,173,c),
(833,179,o),
(833,208,o),
(833,214,cs),
(833,327,o),
(832,301,o),
(832,414,cs),
(832,425,o),
(830,451,o),
(806,451,cs),
(420,456,o),
(226,454,o),
(113,454,cs),
(98,454,o),
(90,447,o),
(77,443,cs),
(73,442,o),
(73,428,o),
(77,426,cs),
(89,422,o),
(101,414,o),
(115,414,cs),
(120,414,o),
(125,415,o),
(131,419,cs),
(153,429,o),
(200,421,o),
(226,424,cs),
(236,424,o),
(248,426,o),
(255,424,cs),
(276,413,o),
(324,416,o),
(342,414,c),
(354,422,o),
(365,423,o),
(376,423,cs),
(419,422,o),
(406,423,o),
(410,386,cs),
(411,378,o),
(409,374,o),
(410,369,c),
(397,363,o),
(385,350,o),
(371,348,c),
(362,329,o),
(347,320,o),
(334,310,cs),
(310,291,o),
(287,273,o),
(264,254,cs),
(239,235,o),
(212,222,o),
(189,195,cs),
(169,173,o),
(92,121,o),
(66,91,c),
(50,78,o),
(39,65,o),
(26,54,cs),
(-22,12,o),
(6,-8,o),
(36,-8,cs)
);
},
{
closed = 1;
nodes = (
(116,36,o),
(101,29,o),
(79,32,cs),
(69,32,o),
(61,31,o),
(53,31,c),
(56,35,o),
(60,38,o),
(63,44,cs),
(70,55,o),
(200,162,o),
(228,187,cs),
(237,196,o),
(248,207,o),
(258,210,cs),
(294,222,o),
(319,253,o),
(349,274,c),
(366,305,o),
(395,309,o),
(414,337,c),
(414,325,o),
(414,312,o),
(417,301,cs),
(423,275,o),
(417,261,o),
(417,235,cs),
(417,159,o),
(417,78,o),
(417,60,cs),
(417,51,o),
(417,44,o),
(417,35,c),
(412,35,o),
(407,36,o),
(399,38,c),
(392,33,o),
(365,32,o),
(359,32,cs),
(259,32,o),
(273,30,o),
(169,33,cs),
(158,33,o),
(147,31,o),
(136,26,c)
);
},
{
closed = 1;
nodes = (
(596,114,o),
(609,128,o),
(619,138,cs),
(624,145,o),
(624,154,o),
(619,161,cs),
(611,171,o),
(603,177,o),
(590,175,cs),
(565,175,o),
(550,162,o),
(550,146,cs),
(550,137,o),
(558,114,o),
(582,114,cs)
);
},
{
closed = 1;
nodes = (
(579,137,o),
(578,144,o),
(578,146,cs),
(578,150,o),
(581,153,o),
(588,153,cs),
(591,154,o),
(593,152,o),
(595,150,cs),
(596,147,o),
(596,145,o),
(595,144,cs),
(593,140,o),
(589,137,o),
(585,137,cs)
);
},
{
closed = 1;
nodes = (
(789,174,o),
(774,194,o),
(753,200,cs),
(739,206,o),
(744,219,o),
(730,219,c),
(667,275,o),
(656,279,o),
(648,285,cs),
(635,289,o),
(633,304,o),
(617,307,c),
(597,335,o),
(567,355,o),
(533,370,cs),
(523,376,o),
(515,384,o),
(510,392,cs),
(503,403,o),
(494,410,o),
(482,421,c),
(493,421,ls),
(503,421,o),
(514,420,o),
(524,420,cs),
(562,421,o),
(571,432,o),
(610,421,c),
(674,421,ls),
(699,421,o),
(699,438,o),
(728,426,cs),
(733,425,o),
(739,421,o),
(745,421,cs),
(798,421,l),
(802,185,l)
);
}
);
width = 841;
}
);
unicode = 230;
},
{
glyphname = b;
lastChange = "2023-11-03 10:39:56 +0000";
layers = (
{
anchors = (
{
name = bottom;
pos = (265,17);
},
{
name = center;
pos = (260,250);
},
{
name = top;
pos = (267,452);
}
);
layerId = m01;
shapes = (
{
closed = 1;
nodes = (
(112,-4,o),
(122,-3,o),
(136,0,c),
(146,0,o),
(157,-5,o),
(168,3,cs),
(173,7,o),
(182,3,o),
(190,3,cs),
(439,-1,ls),
(447,-1,o),
(452,-2,o),
(460,-1,cs),
(468,-1,o),
(476,9,o),
(476,18,cs),
(476,64,o),
(477,100,o),
(477,146,cs),
(477,153,o),
(465,178,o),
(474,187,cs),
(480,194,o),
(471,219,o),
(471,225,cs),
(471,256,o),
(479,333,o),
(471,342,c),
(475,350,o),
(480,358,o),
(471,367,c),
(474,371,o),
(475,376,o),
(475,381,cs),
(475,396,o),
(468,415,o),
(468,431,c),
(470,440,o),
(460,449,o),
(452,450,c),
(124,451,l),
(106,453,o),
(100,484,o),
(101,654,c),
(101,660,o),
(99,700,o),
(94,700,cs),
(70,700,o),
(70,691,o),
(70,665,c),
(75,26,l),
(75,21,o),
(74,14,o),
(75,9,cs),
(75,6,o),
(78,-4,o),
(104,-4,cs)
);
},
{
closed = 1;
nodes = (
(299,187,o),
(314,200,o),
(314,216,cs),
(314,225,o),
(306,248,o),
(282,248,cs),
(268,248,o),
(255,234,o),
(245,224,cs),
(240,217,o),
(240,208,o),
(245,201,cs),
(253,191,o),
(261,185,o),
(274,187,cs)
);
},
{
closed = 1;
nodes = (
(273,208,o),
(271,210,o),
(269,212,cs),
(268,215,o),
(268,217,o),
(269,218,cs),
(271,222,o),
(275,225,o),
(279,225,cs),
(285,225,o),
(286,218,o),
(286,216,cs),
(286,212,o),
(283,209,o),
(276,209,cs)
);
},
{
closed = 1;
nodes = (
(159,36,ls),
(150,36,o),
(122,41,o),
(113,35,cs),
(108,31,o),
(110,261,o),
(110,379,cs),
(110,403,o),
(113,417,o),
(159,417,cs),
(176,417,o),
(168,416,o),
(185,416,cs),
(407,416,ls),
(415,416,o),
(424,417,o),
(433,416,c),
(436,415,o),
(439,412,o),
(439,407,cs),
(439,374,o),
(438,364,o),
(439,359,cs),
(441,348,o),
(454,329,o),
(447,320,cs),
(443,313,o),
(442,271,o),
(439,255,cs),
(438,246,o),
(447,174,o),
(447,43,cs),
(447,37,o),
(446,33,o),
(439,33,cs),
(429,33,o),
(418,32,o),
(408,32,cs)
);
}
);
width = 547;
}
);
unicode = 98;
},
{
glyphname = c;
lastChange = "2023-11-03 10:39:56 +0000";
layers = (
{
anchors = (
{
name = bottom;
pos = (255,7);
},
{
name = top;
pos = (252,450);
}
);
layerId = m01;
shapes = (
{
closed = 1;
nodes = (
(357,0,o),
(371,2,o),
(374,5,cs),
(391,22,o),
(428,-6,o),
(428,17,cs),
(428,21,o),
(427,25,o),
(425,32,cs),
(423,40,o),
(412,36,o),
(405,36,cs),
(329,36,o),
(313,33,o),
(237,33,cs),
(228,33,o),
(218,30,o),
(210,33,cs),
(192,42,o),
(176,47,o),
(161,34,c),
(147,44,o),
(138,45,o),
(125,34,cs),
(115,26,o),
(103,47,o),
(103,54,cs),
(103,75,o),
(104,84,o),
(110,92,cs),
(117,101,o),
(106,111,o),
(104,120,c),
(104,134,o),
(115,142,o),
(110,153,cs),
(106,161,o),
(99,176,o),
(107,186,cs),
(114,195,o),
(102,210,o),
(102,220,cs),
(102,254,o),
(103,278,o),
(103,313,cs),
(103,318,o),
(104,324,o),
(107,329,cs),
(111,334,o),
(107,336,o),
(106,340,cs),
(99,365,o),
(104,383,o),
(104,409,c),
(111,413,o),
(118,413,o),
(126,413,cs),
(190,413,ls),
(224,413,o),
(247,435,o),
(272,413,c),
(295,413,ls),
(330,413,o),
(320,438,o),
(349,418,cs),
(354,415,o),
(360,413,o),
(366,413,cs),
(408,413,ls),
(416,413,o),
(426,422,o),
(428,429,cs),
(430,437,o),
(418,449,o),
(408,449,cs),
(96,449,ls),
(82,449,o),
(81,444,o),
(72,436,c),
(71,436,o),
(69,423,o),
(70,422,cs),
(76,413,o),
(76,402,o),
(76,393,cs),
(76,-7,o),
(75,32,o),
(76,23,cs),
(76,16,o),
(87,5,o),
(93,5,cs),
(101,4,o),
(108,5,o),
(116,5,c),
(303,5,o),
(346,9,o),
(355,2,cs)
);
},
{
closed = 1;
nodes = (
(295,202,o),
(298,219,o),
(298,229,cs),
(298,248,o),
(291,263,o),
(278,269,cs),
(268,275,o),
(248,257,o),
(243,248,cs),
(232,235,o),
(237,221,o),
(239,210,cs),
(242,200,o),
(279,201,o),
(287,202,cs)
);
},
{
closed = 1;
nodes = (
(271,226,o),
(260,225,o),
(259,228,cs),
(259,232,o),
(258,235,o),
(261,238,cs),
(262,241,o),
(268,247,o),
(271,245,cs),
(274,243,o),
(275,238,o),
(275,234,cs),
(275,231,o),
(275,226,o),
(272,226,cs)
);
}
);
width = 458;
}
);
unicode = 99;
},
{
glyphname = "chi-latin";
lastChange = "2023-11-03 10:39:56 +0000";
layers = (
{
layerId = m01;
shapes = (
{
closed = 1;
nodes = (
(381,-188,o),
(378,-182,o),
(392,-175,c),
(400,-164,o),
(407,-154,o),
(418,-148,cs),
(421,-146,o),
(425,-148,o),
(424,-141,cs),
(424,-137,o),
(427,-134,o),
(429,-132,c),
(435,-124,o),
(442,-119,o),
(450,-114,c),
(454,-110,o),
(476,-91,o),
(464,-79,cs),
(459,-74,o),
(446,-74,o),
(443,-79,c),
(432,-87,o),
(383,-136,o),
(375,-146,cs),
(367,-152,l),
(364,-144,o),
(361,-130,o),
(360,-118,cs),
(355,-87,o),
(326,-29,o),
(317,2,cs),
(314,15,o),
(296,38,o),
(297,47,cs),
(298,67,o),
(289,74,o),
(282,90,c),
(287,109,o),
(264,144,o),
(255,172,c),
(257,177,o),
(260,181,o),
(263,187,cs),
(271,199,o),
(285,207,o),
(287,221,cs),
(289,247,o),
(305,249,o),
(313,265,cs),
(365,361,o),
(362,357,o),
(414,452,c),
(421,462,o),
(424,475,o),
(424,485,cs),
(424,494,o),
(422,498,o),
(417,502,c),
(413,499,o),
(398,496,o),
(382,463,cs),
(378,453,o),
(362,423,o),
(358,416,cs),
(321,349,o),
(339,376,o),
(300,308,cs),
(289,287,o),
(275,267,o),
(267,248,cs),
(261,233,o),
(252,225,o),
(244,215,c),
(239,231,o),
(229,248,o),
(226,262,cs),
(212,342,o),
(193,338,o),
(182,380,cs),
(179,389,o),
(154,434,o),
(152,444,cs),
(149,470,o),
(134,492,o),
(133,494,c),
(129,495,o),
(125,494,o),
(121,490,c),
(110,481,o),
(113,474,o),
(99,466,c),
(91,455,o),
(86,445,o),
(76,437,cs),
(73,435,o),
(68,437,o),
(69,430,cs),
(69,427,o),
(67,423,o),
(65,420,cs),
(60,412,o),
(54,407,o),
(46,401,c),
(43,397,o),
(22,376,o),
(34,365,cs),
(40,360,o),
(53,361,o),
(56,367,c),
(65,376,o),
(111,429,o),
(119,439,c),
(143,349,o),
(182,332,o),
(201,221,cs),
(205,205,o),
(223,198,o),
(224,178,c),
(216,169,o),
(208,161,o),
(201,147,cs),
(192,128,o),
(157,75,o),
(155,53,c),
(144,40,o),
(139,27,o),
(133,10,cs),
(131,2,o),
(122,-14,o),
(116,-25,c),
(97,-49,o),
(63,-99,o),
(50,-126,c),
(36,-162,o),
(32,-175,o),
(32,-184,cs),
(32,-200,o),
(40,-196,o),
(49,-193,c),
(63,-159,o),
(95,-141,o),
(102,-102,c),
(119,-90,o),
(125,-69,o),
(130,-50,c),
(148,-36,o),
(155,-18,o),
(158,1,c),
(183,45,o),
(208,90,o),
(232,133,c),
(232,131,o),
(233,130,o),
(264,56,c),
(260,34,o),
(282,-4,o),
(294,-22,c),
(293,-43,o),
(305,-65,o),
(317,-82,c),
(311,-120,o),
(332,-146,o),
(339,-181,c),
(346,-194,o),
(340,-194,o),
(369,-197,c)
);
}
);
width = 498;
}
);
unicode = 43859;
},
{
glyphname = cstroke;
lastChange = "2023-11-03 10:39:56 +0000";
layers = (
{
layerId = m01;
shapes = (
{
closed = 1;
nodes = (
(163,-53,l),
(158,-44,o),
(163,-36,o),
(165,-27,cs),
(184,32,o),
(219,124,o),
(221,130,cs),
(224,138,o),
(227,144,o),
(235,147,c),
(236,148,o),
(237,156,o),
(236,159,cs),
(232,170,o),
(270,277,o),
(277,284,cs),
(285,293,o),
(291,300,o),
(287,313,c),
(295,318,o),
(298,324,o),
(301,333,cs),
(311,365,o),
(351,496,o),
(353,500,cs),
(355,507,o),
(355,511,o),
(352,518,cs),
(351,532,o),
(349,537,o),
(328,535,c),
(312,491,o),
(314,487,o),
(311,478,cs),
(291,416,ls),
(289,410,o),
(285,386,o),
(277,386,c),
(275,378,o),
(265,330,o),
(262,322,cs),
(181,121,o),
(174,98,o),
(165,93,cs),
(161,90,o),
(156,78,o),
(158,73,cs),
(161,60,o),
(147,-1,o),
(133,3,c),
(133,-11,o),
(128,-46,o),
(125,-59,c),
(119,-90,o),
(149,-73,o),
(150,-72,cs)
);
},
{
ref = c;
}
);
width = 458;
}
);
unicode = 572;
},
{
glyphname = d;
lastChange = "2023-11-03 10:39:56 +0000";
layers = (
{
anchors = (
{
name = bottom;
pos = (266,0);
},
{
name = center;
pos = (266,250);
},
{
name = top;
pos = (266,800);
},
{
name = topright;
pos = (492,800);
}
);
layerId = m01;
shapes = (
{
closed = 1;
nodes = (
(459,-3,o),
(462,7,o),
(462,10,cs),
(463,15,o),
(462,22,o),
(462,27,c),
(459,665,l),
(459,691,o),
(459,700,o),
(435,700,cs),
(430,700,o),
(428,660,o),
(428,654,c),
(429,496,l),
(429,484,o),
(431,453,o),
(413,451,c),
(95,450,l),
(87,449,o),
(77,440,o),
(79,431,c),
(79,415,o),
(72,396,o),
(72,381,cs),
(72,376,o),
(73,371,o),
(76,367,c),
(67,358,o),
(72,350,o),
(76,342,c),
(68,333,o),
(71,325,o),
(77,317,c),
(77,286,o),
(76,256,o),
(76,225,cs),
(76,219,o),
(67,214,o),
(73,207,cs),
(82,198,o),
(70,193,o),
(70,186,cs),
(70,140,o),
(71,65,o),
(71,19,cs),
(71,10,o),
(79,0,o),
(87,0,cs),
(95,-1,o),
(100,0,o),
(108,0,cs),
(347,1,ls),
(355,1,o),
(364,5,o),
(369,1,cs),
(380,-7,o),
(425,-3,o),
(433,-3,cs)
);
},
{
closed = 1;
nodes = (
(129,33,o),
(118,34,o),
(108,34,cs),
(101,34,o),
(100,38,o),
(100,44,cs),
(100,174,ls),
(100,183,o),
(103,194,o),
(100,203,cs),
(95,214,o),
(109,246,o),
(108,255,cs),
(105,271,o),
(112,288,o),
(100,299,c),
(104,307,o),
(104,313,o),
(100,320,cs),
(93,329,o),
(106,348,o),
(108,359,cs),
(109,364,o),
(108,374,o),
(108,407,cs),
(108,412,o),
(111,415,o),
(114,416,c),
(123,417,o),
(132,416,o),
(140,416,cs),
(349,416,o),
(361,417,o),
(378,417,cs),
(424,417,o),
(427,403,o),
(427,379,cs),
(427,365,ls),
(427,261,o),
(429,32,o),
(424,36,cs),
(415,42,o),
(387,34,o),
(378,34,cs),
(139,33,ls)
);
},
{
closed = 1;
nodes = (
(289,200,o),
(292,217,o),
(292,227,cs),
(292,246,o),
(285,261,o),
(272,267,cs),
(262,273,o),
(242,255,o),
(237,246,cs),
(226,233,o),
(231,219,o),
(233,208,cs),
(236,198,o),
(273,199,o),
(281,200,cs)
);
},
{
closed = 1;
nodes = (
(265,224,o),
(254,223,o),
(253,226,cs),
(253,230,o),
(252,233,o),
(255,236,cs),
(256,239,o),
(262,245,o),
(265,243,cs),
(268,241,o),
(269,236,o),
(269,232,cs),
(269,229,o),
(269,224,o),
(266,224,cs)
);
}
);
width = 532;
}
);
unicode = 100;
},
{
glyphname = eth;
lastChange = "2023-11-03 10:39:56 +0000";
layers = (
{
layerId = m01;
shapes = (
{
closed = 1;
nodes = (
(431,-5,o),
(447,-3,o),
(463,8,cs),
(466,10,o),
(466,18,o),
(466,23,cs),
(466,159,o),
(463,305,o),
(463,441,cs),
(463,488,ls),
(463,502,o),
(447,522,o),
(425,536,cs),
(357,581,o),
(310,598,o),
(226,667,cs),
(218,674,o),
(237,690,o),
(246,693,cs),
(265,700,o),
(268,719,o),
(274,735,cs),
(275,740,o),
(264,750,o),
(260,747,cs),
(258,745,o),
(253,749,o),
(249,749,c),
(237,742,o),
(208,702,o),
(200,691,c),
(177,711,o),
(173,713,o),
(166,720,cs),
(154,730,o),
(142,728,o),
(130,734,cs),
(126,737,o),
(115,726,o),
(117,721,cs),
(123,712,o),
(137,700,o),
(152,688,cs),
(161,680,o),
(171,672,o),
(179,667,c),
(153,641,o),
(139,626,o),
(114,599,c),
(119,593,o),
(125,590,o),
(133,591,cs),
(142,592,o),
(153,597,o),
(164,607,cs),
(178,619,o),
(191,635,o),
(202,647,c),
(241,615,o),
(273,596,o),
(313,570,cs),
(425,497,l),
(352,497,o),
(227,502,o),
(148,502,cs),
(109,502,o),
(79,501,o),
(73,498,c),
(72,497,o),
(71,488,o),
(70,488,c),
(70,405,o),
(73,270,o),
(73,26,cs),
(73,14,o),
(82,4,o),
(94,4,cs),
(152,4,ls),
(164,4,o),
(195,6,o),
(205,0,cs),
(216,-7,o),
(221,4,o),
(231,4,cs),
(327,4,ls),
(335,4,o),
(344,1,o),
(352,4,cs),
(361,7,o),
(368,-9,o),
(377,4,c),
(386,-2,o),
(396,-5,o),
(406,-5,cs)
);
},
{
closed = 1;
nodes = (
(273,30,o),
(263,28,o),
(254,35,cs),
(251,37,o),
(242,30,o),
(237,31,cs),
(231,33,o),
(226,39,o),
(220,32,cs),
(218,30,o),
(213,30,o),
(212,31,cs),
(205,37,o),
(197,38,o),
(189,38,cs),
(108,38,l),
(102,39,o),
(98,46,o),
(102,50,c),
(107,58,o),
(106,65,o),
(106,74,cs),
(106,203,ls),
(106,212,o),
(106,219,o),
(100,226,cs),
(98,228,o),
(99,234,o),
(101,237,cs),
(106,244,o),
(108,251,o),
(108,258,cs),
(108,265,o),
(106,271,o),
(104,277,cs),
(99,287,o),
(98,294,o),
(106,302,c),
(107,304,o),
(106,308,o),
(105,310,c),
(100,316,o),
(97,327,o),
(97,339,cs),
(97,351,o),
(100,420,o),
(105,425,c),
(106,427,o),
(105,434,o),
(103,436,cs),
(98,442,o),
(99,449,o),
(98,456,cs),
(97,461,o),
(101,467,o),
(103,472,c),
(110,473,o),
(118,473,o),
(126,472,cs),
(223,464,l),
(253,464,ls),
(313,464,o),
(374,461,o),
(427,461,cs),
(432,461,o),
(437,346,o),
(437,306,cs),
(437,286,o),
(436,270,o),
(433,234,cs),
(433,201,o),
(435,165,o),
(435,131,cs),
(435,91,o),
(433,92,o),
(433,52,cs),
(433,45,o),
(432,38,o),
(428,31,c),
(413,31,o),
(398,30,o),
(382,30,cs),
(282,30,ls)
);
},
{
closed = 1;
nodes = (
(271,236,o),
(274,235,o),
(276,236,cs),
(281,240,o),
(288,244,o),
(291,249,c),
(294,257,o),
(295,268,o),
(288,275,cs),
(284,280,o),
(277,283,o),
(271,285,c),
(269,285,o),
(265,278,o),
(261,278,cs),
(247,278,o),
(250,262,o),
(243,255,c),
(241,254,o),
(244,248,o),
(247,244,cs),
(251,237,o),
(259,236,o),
(269,236,cs)
);
}
);
width = 536;
}
);
unicode = 240;
},
{
glyphname = dcroat;
lastChange = "2023-11-03 10:39:56 +0000";
layers = (
{
layerId = m01;
shapes = (
{
closed = 1;
nodes = (
(352,587,o),
(473,587,o),
(493,587,cs),
(501,587,o),
(507,590,o),
(511,596,cs),
(513,599,o),
(516,606,o),
(515,607,cs),
(512,610,o),
(510,613,o),
(509,616,c),
(497,620,o),
(468,621,o),
(409,621,cs),
(400,621,o),
(392,622,o),
(385,615,c),
(384,613,o),
(379,613,o),
(378,614,cs),
(370,621,o),
(355,624,o),
(338,624,cs),
(298,624,o),
(291,616,o),
(289,601,c),
(289,594,o),
(294,587,o),
(311,587,cs)
);
},
{
ref = d;
}
);
width = 512;
}
);
unicode = 273;
},
{
glyphname = e;
lastChange = "2023-11-03 10:39:56 +0000";
layers = (
{
anchors = (
{
name = bottom;
pos = (274,0);
},
{
name = ogonek;
pos = (518,35);
},
{
name = top;
pos = (267,450);
}
);
layerId = m01;
shapes = (
{
closed = 1;
nodes = (
(156,3,o),
(439,0,o),
(456,0,cs),
(468,0,o),
(480,27,o),
(468,27,cs),
(464,27,o),
(438,36,o),
(433,32,cs),
(424,28,o),
(343,27,o),
(334,27,cs),
(311,28,o),
(293,30,o),
(271,27,cs),
(262,27,o),
(251,25,o),
(245,28,cs),
(234,35,o),
(215,32,o),
(204,32,cs),
(194,32,o),
(133,31,o),
(126,31,cs),
(103,31,o),
(97,65,o),
(97,82,cs),
(97,110,o),
(125,107,o),
(142,127,c),
(166,146,o),
(181,154,o),
(191,167,cs),
(213,194,o),
(239,196,o),
(258,220,cs),
(278,247,o),
(311,261,o),
(333,290,cs),
(350,314,o),
(367,316,o),
(391,348,c),
(406,362,o),
(418,375,o),
(431,385,cs),
(447,398,o),
(457,415,o),
(457,428,cs),
(457,442,o),
(445,453,o),
(415,453,cs),
(411,453,o),
(408,453,o),
(403,453,cs),
(385,451,o),
(240,456,o),
(204,456,cs),
(192,456,o),
(179,454,o),
(167,454,cs),
(121,454,o),
(143,446,o),
(96,448,cs),
(57,450,o),
(73,406,o),
(73,372,cs),
(73,363,o),
(72,354,o),
(72,344,cs),
(72,256,o),
(72,231,o),
(72,48,cs),
(72,32,o),
(74,13,o),
(80,8,c),
(85,-2,o),
(110,-6,o),
(144,0,cs)
);
},
{
closed = 1;
nodes = (
(368,124,ls),
(379,135,o),
(362,138,o),
(362,153,cs),
(362,173,o),
(334,171,o),
(320,169,cs),
(311,167,o),
(302,152,o),
(302,141,cs),
(302,135,o),
(304,130,o),
(308,125,cs),
(317,113,o),
(340,96,o),
(354,110,cs)
);
},
{
closed = 1;
nodes = (
(337,126,o),
(331,131,o),
(329,134,cs),
(327,135,o),
(327,137,o),
(327,138,cs),
(327,141,o),
(329,145,o),
(332,146,cs),
(336,147,o),
(343,147,o),
(343,142,cs),
(343,137,o),
(348,137,o),
(345,134,cs),
(341,130,ls)
);
},
{
closed = 1;
nodes = (
(108,196,o),
(104,324,o),
(101,380,cs),
(100,420,o),
(134,419,o),
(149,419,cs),
(171,420,o),
(194,420,o),
(216,420,cs),
(257,420,o),
(360,421,o),
(400,421,cs),
(422,421,o),
(383,375,o),
(376,369,cs),
(360,353,o),
(318,322,o),
(293,294,cs),
(284,285,o),
(274,273,o),
(265,269,cs),
(232,256,o),
(212,226,o),
(184,202,c),
(170,170,o),
(120,170,o),
(104,140,c)
);
}
);
width = 543;
}
);
unicode = 101;
},
{
glyphname = estroke;
lastChange = "2023-11-03 10:39:56 +0000";
layers = (
{
layerId = m01;
shapes = (
{
closed = 1;
nodes = (
(163,-53,l),
(158,-44,o),
(163,-36,o),
(165,-27,cs),
(184,32,o),
(219,124,o),
(221,130,cs),
(224,138,o),
(227,144,o),
(235,147,c),
(236,148,o),
(237,156,o),
(236,159,cs),
(232,170,o),
(270,277,o),
(277,284,cs),
(285,293,o),
(291,300,o),
(287,313,c),
(295,318,o),
(298,324,o),
(301,333,cs),
(311,365,o),
(351,496,o),
(353,500,cs),
(355,507,o),
(355,511,o),
(352,518,cs),
(351,532,o),
(349,537,o),
(328,535,c),
(312,491,o),
(314,487,o),
(311,478,cs),
(291,416,ls),
(289,410,o),
(285,386,o),
(277,386,c),
(275,378,o),
(265,330,o),
(262,322,cs),
(181,121,o),
(174,98,o),
(165,93,cs),
(161,90,o),
(156,78,o),
(158,73,cs),
(161,60,o),
(147,-1,o),
(133,3,c),
(133,-11,o),
(128,-46,o),
(125,-59,c),
(119,-90,o),
(149,-73,o),
(150,-72,cs)
);
},
{
ref = e;
}
);
width = 543;
}
);
unicode = 583;
},
{
glyphname = ezh;
lastChange = "2023-11-03 10:39:56 +0000";
layers = (
{
anchors = (
{
name = bottom;
pos = (233,0);
},
{
name = top;
pos = (233,490);
}
);
layerId = m01;
shapes = (
{
closed = 1;
nodes = (
(398,-196,o),
(416,-195,o),
(421,-195,cs),
(434,-196,o),
(453,-152,o),
(440,-128,c),
(449,-116,o),
(448,-9,o),
(443,0,cs),
(433,14,o),
(445,20,o),
(445,32,cs),
(443,112,ls),
(443,126,o),
(441,134,o),
(423,140,c),
(412,142,o),
(345,144,o),
(274,146,cs),
(257,146,o),
(226,144,o),
(224,150,cs),
(222,156,o),
(113,148,o),
(94,147,c),
(328,356,o),
(340,365,o),
(346,378,cs),
(351,388,o),
(400,430,o),
(415,441,cs),
(425,448,o),
(428,461,o),
(435,469,cs),
(439,473,o),
(432,484,o),
(425,486,cs),
(420,487,o),
(392,477,o),
(274,487,cs),
(253,489,o),
(230,487,o),
(204,487,cs),
(192,487,o),
(171,480,o),
(166,487,cs),
(161,494,o),
(152,486,o),
(144,487,cs),
(115,492,o),
(84,487,o),
(49,487,cs),
(31,488,o),
(20,444,o),
(52,455,cs),
(65,460,o),
(129,456,o),
(203,457,cs),
(214,457,o),
(225,452,o),
(236,457,cs),
(245,461,o),
(254,459,o),
(264,457,cs),
(310,448,o),
(354,458,o),
(376,458,c),
(389,456,o),
(363,430,o),
(351,427,cs),
(341,425,o),
(336,416,o),
(333,408,c),
(318,383,o),
(72,174,o),
(51,154,cs),
(10,118,o),
(47,111,o),
(73,111,cs),
(136,112,l),
(150,107,l),
(181,114,l),
(401,108,ls),
(405,108,o),
(412,-145,o),
(407,-165,c),
(381,-163,o),
(321,-162,o),
(217,-165,c),
(170,-162,o),
(154,-159,o),
(122,-159,cs),
(-20,-159,o),
(34,-196,o),
(73,-196,cs)
);
},
{
closed = 1;
nodes = (
(263,-28,o),
(266,-21,o),
(267,-15,cs),
(270,-8,o),
(267,-2,o),
(262,3,cs),
(253,14,o),
(220,30,o),
(209,19,c),
(204,11,o),
(198,2,o),
(196,-8,cs),
(196,-14,o),
(204,-22,o),
(206,-30,cs),
(210,-49,o),
(235,-49,o),
(259,-32,cs)
);
},
{
closed = 1;
nodes = (
(234,-20,o),
(227,-20,o),
(226,-15,cs),
(225,-13,o),
(223,-11,o),
(223,-9,cs),
(223,-6,o),
(225,-4,o),
(226,-2,c),
(229,1,o),
(239,-3,o),
(241,-6,cs),
(242,-7,o),
(243,-9,o),
(242,-11,cs),
(242,-13,o),
(241,-15,o),
(240,-16,cs)
);
}
);
width = 477;
}
);
unicode = 658;
},
{
glyphname = f;
lastChange = "2023-11-03 10:39:56 +0000";
layers = (
{
anchors = (
{
name = bottom;
pos = (174,0);
},
{
name = top;
pos = (191,698);
}
);
layerId = m01;
shapes = (
{
closed = 1;
nodes = (
(271,2,o),
(218,2,o),
(321,3,c),
(333,18,l),
(336,25,o),
(307,36,o),
(296,36,cs),
(215,35,o),
(268,36,o),
(197,36,cs),
(194,36,o),
(190,41,o),
(189,44,c),
(189,456,l),
(199,456,o),
(210,456,o),
(221,455,cs),
(239,454,o),
(247,478,o),
(270,460,cs),
(279,453,o),
(299,455,o),
(311,456,cs),
(318,456,o),
(327,464,o),
(329,471,cs),
(331,479,o),
(320,491,o),
(311,491,cs),
(299,491,l),
(189,491,l),
(189,646,ls),
(189,651,o),
(182,664,o),
(198,664,c),
(260,663,o),
(273,665,o),
(291,665,c),
(312,664,o),
(334,673,o),
(329,683,cs),
(321,700,o),
(321,700,o),
(306,700,cs),
(219,700,o),
(193,700,o),
(191,698,cs),
(183,691,o),
(183,693,o),
(174,692,cs),
(164,691,o),
(156,682,o),
(156,673,cs),
(156,655,o),
(160,554,o),
(148,538,c),
(155,531,o),
(155,514,o),
(155,491,c),
(67,491,l),
(55,491,ls),
(42,491,o),
(28,472,o),
(34,461,c),
(67,453,l),
(72,455,o),
(78,456,o),
(83,456,cs),
(91,456,o),
(115,456,o),
(126,464,c),
(136,464,o),
(146,465,o),
(155,461,c),
(155,47,ls),
(155,38,o),
(153,36,o),
(142,35,c),
(59,35,ls),
(47,35,o),
(26,29,o),
(31,18,cs),
(39,4,o),
(39,2,o),
(55,2,cs)
);
}
);
width = 363;
}
);
unicode = 102;
},
{
glyphname = g;
lastChange = "2023-11-03 10:39:56 +0000";
layers = (
{
anchors = (
{
name = bottom;
pos = (261,-183);
},
{
name = top;
pos = (250,450);
}
);
layerId = m01;
shapes = (
{
closed = 1;
nodes = (
(450,-188,o),
(443,273,o),
(443,322,cs),
(443,354,o),
(441,411,o),
(441,441,cs),
(441,445,o),
(439,456,o),
(414,456,cs),
(406,456,o),
(395,455,o),
(375,452,cs),
(367,452,o),
(358,456,o),
(349,450,cs),
(344,446,o),
(335,449,o),
(327,449,cs),
(110,449,ls),
(102,449,o),
(95,449,o),
(87,448,cs),
(79,448,o),
(70,439,o),
(70,430,cs),
(70,384,o),
(72,296,o),
(72,245,cs),
(72,238,o),
(81,233,o),
(72,224,cs),
(66,218,o),
(76,212,o),
(76,206,cs),
(76,176,o),
(79,145,o),
(79,114,c),
(73,106,o),
(68,98,o),
(76,89,c),
(72,81,o),
(67,73,o),
(76,64,c),
(73,60,o),
(70,56,o),
(70,53,cs),
(70,43,o),
(79,33,o),
(79,23,cs),
(79,19,l),
(76,6,o),
(94,-4,o),
(102,3,cs),
(108,7,o),
(110,8,o),
(116,14,c),
(234,129,o),
(406,328,o),
(408,329,c),
(408,86,ls),
(408,76,o),
(411,66,o),
(404,56,c),
(406,46,o),
(408,35,o),
(408,25,cs),
(408,15,o),
(409,-149,o),
(408,-155,c),
(386,-151,o),
(393,-149,o),
(372,-156,cs),
(367,-158,o),
(362,-158,o),
(357,-158,cs),
(336,-158,o),
(138,-155,o),
(117,-155,cs),
(108,-155,o),
(97,-156,o),
(89,-160,c),
(71,-165,o),
(77,-187,o),
(98,-187,cs),
(329,-187,ls),
(337,-187,o),
(345,-185,o),
(353,-182,cs),
(359,-180,o),
(365,-178,o),
(371,-178,cs),
(377,-178,o),
(383,-183,o),
(388,-187,cs),
(394,-192,o),
(409,-181,o),
(412,-187,c),
(438,-188,ls)
);
},
{
closed = 1;
nodes = (
(106,79,o),
(96,103,o),
(101,111,cs),
(106,118,o),
(106,125,o),
(102,132,c),
(109,138,o),
(108,147,o),
(108,155,cs),
(108,177,o),
(109,171,o),
(102,199,c),
(112,209,o),
(96,217,o),
(100,228,cs),
(103,237,o),
(100,252,o),
(100,404,cs),
(100,410,o),
(103,415,o),
(109,415,cs),
(358,415,ls),
(371,415,o),
(376,411,o),
(385,417,c),
(390,422,o),
(405,417,o),
(408,417,c),
(409,384,l),
(376,339,l),
(365,328,o),
(312,289,o),
(308,273,cs),
(305,265,o),
(187,133,o),
(113,59,cs),
(108,54,l)
);
},
{
closed = 1;
nodes = (
(259,312,ls),
(270,323,o),
(253,326,o),
(253,341,cs),
(253,361,o),
(225,359,o),
(211,357,cs),
(202,355,o),
(193,340,o),
(193,329,cs),
(193,323,o),
(195,318,o),
(199,313,cs),
(208,301,o),
(231,284,o),
(245,298,cs)
);
},
{
closed = 1;
nodes = (
(228,314,o),
(222,319,o),
(220,322,cs),
(218,323,o),
(218,325,o),
(218,326,cs),
(218,329,o),
(220,333,o),
(223,334,cs),
(227,335,o),
(234,335,o),
(234,330,cs),
(234,325,o),
(239,325,o),
(236,322,cs),
(232,318,ls)
);
}
);
width = 515;
}
);
unicode = 103;
},
{
glyphname = "gamma-latin";
lastChange = "2023-11-03 10:39:56 +0000";
layers = (
{
layerId = m01;
shapes = (
{
closed = 1;
nodes = (
(173,-197,o),
(180,-197,o),
(189,-197,c),
(227,-197,o),
(234,-197,o),
(298,-197,cs),
(336,-197,o),
(348,-189,o),
(348,-174,cs),
(348,-164,o),
(342,-145,o),
(335,-129,cs),
(325,-107,o),
(263,12,o),
(260,17,c),
(386,300,o),
(449,460,o),
(449,471,cs),
(449,475,l),
(452,489,o),
(431,498,o),
(423,492,c),
(419,490,o),
(363,345,o),
(356,338,c),
(339,265,o),
(280,172,o),
(236,65,c),
(130,310,o),
(156,297,o),
(119,350,cs),
(115,356,o),
(115,359,o),
(113,363,cs),
(111,368,o),
(111,375,o),
(109,380,cs),
(106,385,o),
(93,406,o),
(90,411,cs),
(64,465,o),
(60,491,o),
(49,491,cs),
(34,491,o),
(28,471,o),
(31,465,cs),
(212,17,l),
(195,1,o),
(144,-107,o),
(135,-128,cs),
(129,-143,o),
(119,-159,o),
(119,-172,cs),
(119,-187,o),
(130,-197,o),
(166,-197,cs)
);
},
{
closed = 1;
nodes = (
(200,-170,o),
(189,-160,o),
(160,-159,c),
(164,-141,o),
(171,-138,o),
(191,-103,c),
(203,-91,o),
(197,-89,o),
(204,-69,cs),
(217,-34,o),
(229,-13,o),
(235,-8,c),
(241,-13,o),
(266,-91,o),
(278,-103,c),
(313,-161,l),
(311,-160,o),
(294,-162,o),
(292,-161,cs),
(274,-153,o),
(255,-165,o),
(252,-164,c)
);
}
);
width = 479;
}
);
unicode = 611;
},
{
glyphname = glottalstopreversed;
lastChange = "2023-11-03 10:39:56 +0000";
layers = (
{
layerId = m01;
shapes = (
{
closed = 1;
nodes = (
(280,-1,o),
(306,-5,o),
(307,6,c),
(307,101,o),
(307,85,o),
(307,90,cs),
(307,97,o),
(306,253,o),
(300,259,c),
(300,271,o),
(297,299,o),
(302,313,cs),
(306,323,o),
(296,338,o),
(287,338,c),
(258,339,o),
(263,347,o),
(234,345,cs),
(225,345,o),
(216,340,o),
(208,356,cs),
(205,361,o),
(195,354,o),
(188,357,cs),
(108,391,o),
(90,397,o),
(80,398,cs),
(76,398,o),
(73,401,o),
(73,406,cs),
(73,434,o),
(68,468,o),
(67,476,c),
(78,487,o),
(59,525,o),
(64,536,cs),
(67,545,o),
(64,633,o),
(65,667,cs),
(65,673,o),
(67,678,o),
(74,678,cs),
(108,678,ls),
(113,678,o),
(147,679,o),
(147,678,cs),
(150,672,o),
(157,666,o),
(164,660,cs),
(187,643,o),
(212,626,o),
(225,601,cs),
(233,587,o),
(246,590,o),
(259,581,cs),
(264,578,o),
(262,570,o),
(272,567,cs),
(288,562,o),
(301,552,o),
(309,535,cs),
(316,522,o),
(358,505,o),
(363,496,c),
(370,489,o),
(373,498,o),
(376,501,cs),
(384,507,o),
(389,514,o),
(389,525,cs),
(389,533,o),
(388,541,o),
(388,549,cs),
(388,562,o),
(390,575,o),
(397,587,c),
(402,592,o),
(392,607,o),
(391,614,cs),
(390,618,o),
(397,621,o),
(393,627,cs),
(386,640,o),
(386,651,o),
(394,663,cs),
(400,673,o),
(398,684,o),
(393,694,cs),
(386,711,o),
(386,712,o),
(370,712,cs),
(50,712,ls),
(41,712,o),
(31,702,o),
(31,693,cs),
(31,646,o),
(31,600,o),
(30,553,cs),
(30,546,o),
(44,541,o),
(33,532,cs),
(26,525,o),
(37,519,o),
(37,513,c),
(38,453,l),
(32,445,o),
(27,436,o),
(37,428,c),
(34,424,o),
(33,418,o),
(33,411,cs),
(33,391,o),
(44,365,o),
(58,363,cs),
(113,357,o),
(163,324,o),
(172,324,cs),
(184,324,o),
(195,317,o),
(224,310,c),
(229,310,o),
(236,311,o),
(242,310,cs),
(250,308,o),
(262,304,o),
(265,298,cs),
(273,279,o),
(274,75,o),
(274,3,c)
);
},
{
closed = 1;
nodes = (
(326,563,o),
(309,586,o),
(288,602,cs),
(257,626,o),
(227,651,o),
(197,676,c),
(295,676,ls),
(314,676,o),
(332,675,o),
(350,675,c),
(363,652,o),
(355,558,o),
(352,555,c)
);
}
);
width = 428;
}
);
unicode = 661;
},
{
glyphname = h;
lastChange = "2023-11-03 10:39:56 +0000";
layers = (
{
anchors = (
{
name = bottom;
pos = (279,0);
},
{
name = center;
pos = (94,528);
},
{
name = top;
pos = (95,697);
}
);
layerId = m01;
shapes = (
{
closed = 1;
nodes = (
(102,2,ls),
(157,57,o),
(304,218,o),
(355,267,cs),
(381,291,o),
(438,380,o),
(452,393,c),
(455,20,l),
(456,16,o),
(457,12,o),
(459,9,cs),
(473,-8,o),
(487,0,o),
(487,12,cs),
(487,346,ls),
(487,355,o),
(484,365,o),
(492,374,c),
(487,393,o),
(487,401,o),
(487,410,cs),
(487,432,ls),
(487,454,o),
(476,443,o),
(470,449,cs),
(467,452,o),
(458,449,o),
(448,449,cs),
(122,449,ls),
(112,449,o),
(109,451,o),
(109,461,c),
(109,651,ls),
(109,679,o),
(104,668,o),
(104,697,c),
(95,697,o),
(84,698,o),
(80,694,c),
(79,685,o),
(71,676,o),
(71,666,cs),
(71,654,o),
(87,653,o),
(75,636,c),
(67,625,o),
(80,619,o),
(80,605,cs),
(80,574,ls),
(80,496,o),
(71,467,o),
(71,439,cs),
(71,430,o),
(81,413,o),
(80,411,cs),
(71,399,o),
(71,387,o),
(71,374,cs),
(71,369,o),
(71,361,o),
(74,358,cs),
(81,349,o),
(80,339,o),
(80,152,cs),
(80,146,o),
(83,139,o),
(80,135,cs),
(74,128,o),
(71,119,o),
(71,111,cs),
(70,35,o),
(70,32,o),
(71,29,cs),
(73,17,o),
(79,15,o),
(99,-1,c)
);
},
{
closed = 1;
nodes = (
(108,70,o),
(110,74,o),
(110,86,cs),
(110,94,o),
(108,102,o),
(102,109,c),
(109,119,o),
(111,129,o),
(111,139,cs),
(111,150,o),
(109,161,o),
(109,171,cs),
(109,246,o),
(110,344,o),
(110,404,cs),
(110,411,o),
(113,414,o),
(120,415,cs),
(164,423,o),
(194,410,o),
(242,423,cs),
(252,426,o),
(256,413,o),
(265,415,cs),
(272,417,o),
(279,425,o),
(286,415,c),
(320,416,l),
(330,408,o),
(390,424,o),
(410,419,c),
(420,414,o),
(418,426,o),
(436,423,c),
(416,408,o),
(318,258,o),
(279,234,cs),
(249,215,o),
(144,94,o),
(108,52,c)
);
}
);
width = 562;
}
);
unicode = 104;
},
{
glyphname = hbrevebelow;
lastChange = "2023-11-03 10:39:56 +0000";
layers = (
{
layerId = m01;
shapes = (
{
closed = 1;
nodes = (
(207,-144,o),
(218,-143,o),
(229,-143,cs),
(244,-143,o),
(343,-148,o),
(359,-146,cs),
(366,-146,o),
(377,-136,o),
(377,-129,cs),
(379,-114,o),
(380,-54,o),
(367,-46,cs),
(352,-37,o),
(346,-57,o),
(346,-66,c),
(350,-95,l),
(357,-106,o),
(344,-118,o),
(336,-118,cs),
(325,-121,o),
(314,-117,o),
(303,-116,cs),
(299,-116,o),
(295,-116,o),
(292,-113,cs),
(287,-109,o),
(285,-113,o),
(281,-114,cs),
(265,-118,o),
(227,-116,o),
(211,-115,c),
(207,-108,o),
(204,-99,o),
(206,-91,cs),
(207,-80,o),
(207,-61,o),
(207,-57,cs),
(207,-49,o),
(204,-35,o),
(177,-43,c),
(171,-122,ls),
(170,-137,o),
(195,-151,o),
(196,-150,cs)
);
},
{
ref = h;
}
);
width = 562;
}
);
unicode = 7723;
},
{
glyphname = idotless;
lastChange = "2023-11-03 10:39:56 +0000";
layers = (
{
anchors = (
{
name = bottom;
pos = (187,0);
},
{
name = ogonek;
pos = (255,34);
},
{
name = top;
pos = (187,450);
}
);
layerId = m01;
shapes = (
{
closed = 1;
nodes = (
(162,2,ls),
(173,2,o),
(207,4,o),
(229,4,cs),
(237,4,o),
(243,4,o),
(264,2,c),
(273,2,o),
(343,5,o),
(344,17,cs),
(345,25,o),
(340,34,o),
(335,34,cs),
(219,34,ls),
(204,34,o),
(201,37,o),
(201,53,cs),
(201,387,ls),
(201,403,o),
(209,418,o),
(225,418,c),
(260,411,l),
(265,411,o),
(271,413,o),
(277,418,c),
(282,416,o),
(288,414,o),
(295,414,cs),
(317,414,o),
(344,424,o),
(344,433,cs),
(344,441,o),
(340,449,o),
(335,450,c),
(50,450,ls),
(41,450,o),
(33,444,o),
(30,435,cs),
(29,432,o),
(37,424,o),
(42,421,cs),
(48,418,o),
(62,419,o),
(67,419,cs),
(84,419,o),
(108,422,o),
(130,422,cs),
(142,422,o),
(153,421,o),
(161,418,cs),
(168,416,o),
(170,402,o),
(170,392,cs),
(170,119,ls),
(170,110,o),
(166,103,o),
(163,94,cs),
(157,77,o),
(155,59,o),
(165,44,cs),
(170,37,o),
(165,35,o),
(161,35,cs),
(101,34,o),
(53,35,o),
(44,33,cs),
(41,32,o),
(20,2,o),
(67,2,cs)
);
}
);
width = 374;
}
);
unicode = 305;
},
{
glyphname = "iota-latin";
lastChange = "2023-11-03 10:39:56 +0000";
layers = (
{
anchors = (
{
name = bottom;
pos = (177,0);
},
{
name = center;
pos = (96,341);
},
{
name = top;
pos = (157,700);
},
{
name = topright;
pos = (160,800);
}
);
layerId = m01;
shapes = (
{
closed = 1;
nodes = (
(106,-1,o),
(141,22,o),
(197,68,cs),
(210,78,o),
(230,75,o),
(230,98,cs),
(230,110,o),
(241,108,o),
(235,118,cs),
(228,130,o),
(209,122,o),
(170,91,c),
(118,52,l),
(114,53,o),
(111,56,o),
(111,61,cs),
(111,443,ls),
(111,454,o),
(127,481,o),
(107,501,c),
(83,505,o),
(77,489,o),
(77,465,cs),
(77,-4,o),
(78,189,o),
(78,183,cs),
(78,176,o),
(77,169,o),
(70,162,c),
(77,152,o),
(78,142,o),
(78,131,cs),
(78,116,o),
(77,35,o),
(77,19,cs),
(78,10,o),
(86,1,o),
(96,0,cs)
);
}
);
width = 237;
}
);
unicode = 617;
},
{
glyphname = jdotless;
lastChange = "2023-11-03 10:39:56 +0000";
layers = (
{
anchors = (
{
name = bottom;
pos = (186,-200);
},
{
name = top;
pos = (186,450);
}
);
layerId = m01;
shapes = (
{
closed = 1;
nodes = (
(286,-195,o),
(295,-186,o),
(295,-177,cs),
(295,-162,o),
(295,-137,o),
(294,-62,c),
(294,-51,o),
(296,-40,o),
(302,-30,c),
(295,-23,o),
(295,-46,o),
(295,403,cs),
(295,445,o),
(288,452,o),
(236,448,cs),
(229,447,o),
(223,445,o),
(216,443,cs),
(210,441,o),
(201,447,o),
(194,448,c),
(92,442,o),
(86,438,o),
(84,432,cs),
(82,425,o),
(90,425,o),
(94,422,cs),
(103,416,o),
(111,414,o),
(122,414,cs),
(165,414,o),
(209,414,o),
(253,413,cs),
(255,413,o),
(260,409,o),
(260,406,cs),
(261,398,o),
(261,377,o),
(261,-155,cs),
(261,-160,o),
(234,-167,o),
(217,-161,c),
(214,-154,o),
(210,-149,o),
(203,-143,cs),
(180,-125,o),
(156,-109,o),
(142,-83,cs),
(137,-73,o),
(118,-70,o),
(109,-64,cs),
(103,-61,o),
(106,-53,o),
(95,-50,cs),
(79,-46,o),
(79,-39,o),
(71,-22,cs),
(58,3,o),
(48,-8,o),
(28,13,cs),
(21,20,o),
(8,3,o),
(9,-8,cs),
(9,-15,o),
(8,-57,o),
(1,-70,cs),
(-1,-73,o),
(0,-78,o),
(5,-111,c),
(8,-116,o),
(10,-121,o),
(5,-178,c),
(13,-195,o),
(13,-195,o),
(28,-195,cs),
(115,-195,o),
(267,-197,o),
(276,-196,cs)
);
},
{
closed = 1;
nodes = (
(53,-162,o),
(66,-161,o),
(47,-161,c),
(42,-152,o),
(41,-143,o),
(41,-133,c),
(40,-44,l),
(41,-46,o),
(58,-70,o),
(80,-86,cs),
(112,-111,o),
(142,-136,o),
(173,-162,c)
);
}
);
width = 372;
}
);
unicode = 567;
},
{
glyphname = jacute;
lastChange = "2023-11-03 10:39:56 +0000";
layers = (
{
layerId = m01;
shapes = (
{
closed = 1;
nodes = (
(286,-195,o),
(295,-186,o),
(295,-177,cs),
(295,-162,o),
(295,-137,o),
(294,-62,c),
(294,-51,o),
(296,-40,o),
(302,-30,c),
(295,-23,o),
(295,-46,o),
(295,403,cs),
(295,445,o),
(288,452,o),
(236,448,cs),
(229,447,o),
(223,445,o),
(216,443,cs),
(210,441,o),
(201,447,o),
(194,448,c),
(92,442,o),
(86,438,o),
(84,432,cs),
(82,425,o),
(90,425,o),
(94,422,cs),
(103,416,o),
(111,414,o),
(122,414,cs),
(165,414,o),
(209,414,o),
(253,413,cs),
(255,413,o),
(260,409,o),
(260,406,cs),
(261,398,o),
(261,377,o),
(261,-155,cs),
(261,-160,o),
(234,-167,o),
(217,-161,c),
(214,-154,o),
(210,-149,o),
(203,-143,cs),
(180,-125,o),
(156,-109,o),
(142,-83,cs),
(137,-73,o),
(118,-70,o),
(109,-64,cs),
(103,-61,o),
(106,-53,o),
(95,-50,cs),
(79,-46,o),
(79,-39,o),
(71,-22,cs),
(58,3,o),
(48,-8,o),
(28,13,cs),
(21,20,o),
(8,3,o),
(9,-8,cs),
(9,-15,o),
(8,-57,o),
(1,-70,cs),
(-1,-73,o),
(0,-78,o),
(5,-111,c),
(8,-116,o),
(10,-121,o),
(5,-178,c),
(13,-195,o),
(13,-195,o),
(28,-195,cs),
(115,-195,o),
(267,-197,o),
(276,-196,cs)
);
},
{
closed = 1;
nodes = (
(54,-161,o),
(66,-160,o),
(48,-160,c),
(43,-151,o),
(42,-142,o),
(42,-133,c),
(41,-46,l),
(42,-48,o),
(59,-71,o),
(80,-87,cs),
(111,-111,o),
(141,-136,o),
(171,-161,c)
);
},
{
pos = (131,-97);
ref = acute;
}
);
width = 382;
}
);
},
{
glyphname = k;
lastChange = "2023-11-03 10:39:56 +0000";
layers = (
{
anchors = (
{
name = bottom;
pos = (237,0);
},
{
name = top;
pos = (85,697);
}
);
layerId = m01;
shapes = (
{
closed = 1;
nodes = (
(455,-2,o),
(463,0,o),
(463,6,cs),
(463,16,o),
(450,22,o),
(441,26,cs),
(438,28,o),
(433,32,o),
(433,36,cs),
(432,45,o),
(426,47,o),
(419,50,cs),
(411,55,o),
(350,117,o),
(347,118,cs),
(336,122,o),
(333,129,o),
(327,138,c),
(245,201,l),
(243,213,o),
(234,219,o),
(226,226,c),
(234,241,o),
(316,347,o),
(335,376,cs),
(342,385,o),
(346,397,o),
(355,406,cs),
(364,415,o),
(367,429,o),
(377,437,c),
(379,441,o),
(378,438,o),
(375,450,c),
(368,454,o),
(356,456,o),
(343,455,cs),
(276,451,o),
(202,450,o),
(105,453,c),
(105,608,ls),
(105,614,o),
(105,621,o),
(107,625,cs),
(113,633,o),
(114,642,o),
(114,650,c),
(104,693,l),
(96,702,o),
(85,697,o),
(76,697,cs),
(69,697,o),
(70,678,o),
(70,673,cs),
(70,110,o),
(69,100,o),
(77,92,cs),
(79,90,o),
(79,85,o),
(78,84,cs),
(71,77,o),
(70,69,o),
(70,61,cs),
(70,41,o),
(70,16,o),
(70,15,cs),
(70,1,o),
(76,-2,o),
(90,1,cs),
(91,1,o),
(96,2,o),
(97,4,cs),
(107,32,o),
(103,47,o),
(105,71,c),
(136,114,o),
(171,151,o),
(202,196,c),
(255,147,o),
(298,108,o),
(331,85,cs),
(350,72,o),
(365,46,o),
(409,22,c),
(434,-1,o),
(440,-2,o),
(446,-2,cs)
);
},
{
closed = 1;
nodes = (
(105,424,l),
(125,422,o),
(153,424,o),
(167,418,c),
(187,420,o),
(309,422,o),
(325,421,c),
(229,277,o),
(186,236,o),
(183,229,cs),
(179,216,o),
(166,209,o),
(161,198,cs),
(156,185,o),
(149,173,o),
(141,164,cs),
(135,158,o),
(127,153,o),
(126,143,c),
(105,122,l)
);
}
);
width = 463;
}
);
unicode = 107;
},
{
glyphname = kgreenlandic;
lastChange = "2023-11-03 10:39:56 +0000";
layers = (
{
anchors = (
{
name = bottom;
pos = (271,0);
},
{
name = top;
pos = (271,700);
}
);
layerId = m01;
shapes = (
{
closed = 1;
nodes = (
(103,13,o),
(113,21,o),
(113,31,cs),
(113,36,o),
(110,41,o),
(105,46,c),
(95,86,o),
(117,89,o),
(106,109,cs),
(102,116,o),
(103,124,o),
(109,130,cs),
(114,135,o),
(113,139,o),
(109,143,cs),
(105,147,o),
(102,151,o),
(106,156,cs),
(110,160,o),
(111,164,o),
(107,168,cs),
(104,173,o),
(115,178,o),
(107,184,cs),
(104,186,o),
(104,191,o),
(104,194,cs),
(104,204,o),
(108,203,o),
(113,199,c),
(170,149,o),
(172,157,o),
(183,142,cs),
(194,127,o),
(219,122,o),
(229,111,c),
(246,100,o),
(292,54,o),
(344,8,cs),
(356,-2,o),
(375,-6,o),
(375,9,cs),
(375,35,o),
(369,50,o),
(369,76,cs),
(369,82,o),
(369,88,o),
(373,100,cs),
(374,102,o),
(375,108,o),
(373,110,cs),
(366,116,o),
(367,123,o),
(367,131,c),
(370,160,o),
(374,206,o),
(368,214,c),
(364,218,o),
(377,226,o),
(374,231,c),
(373,237,o),
(368,242,o),
(368,247,cs),
(368,262,o),
(377,265,o),
(374,279,cs),
(365,321,o),
(364,331,o),
(373,341,cs),
(374,342,o),
(371,344,o),
(370,346,cs),
(365,352,o),
(365,358,o),
(368,364,cs),
(379,379,o),
(379,394,o),
(368,409,c),
(366,415,o),
(380,428,o),
(370,436,cs),
(366,439,o),
(362,443,o),
(359,446,cs),
(355,450,o),
(331,439,o),
(324,432,cs),
(292,400,o),
(281,375,o),
(227,346,c),
(221,342,o),
(197,321,o),
(190,317,cs),
(120,275,ls),
(116,273,o),
(114,275,o),
(112,279,c),
(103,308,o),
(118,349,o),
(105,363,c),
(104,374,o),
(101,382,o),
(110,391,cs),
(112,393,o),
(112,399,o),
(110,401,cs),
(104,408,o),
(113,419,o),
(113,425,cs),
(113,435,o),
(106,445,o),
(100,454,cs),
(96,461,o),
(81,448,o),
(79,442,cs),
(77,434,o),
(78,425,o),
(78,264,cs),
(78,259,o),
(77,237,o),
(71,231,cs),
(70,231,o),
(72,224,o),
(74,223,cs),
(79,216,o),
(79,211,o),
(74,206,cs),
(70,201,o),
(68,197,o),
(73,192,cs),
(77,189,o),
(78,184,o),
(78,179,c),
(71,87,o),
(70,78,o),
(70,69,cs),
(70,55,o),
(79,20,o),
(82,6,cs),
(84,-1,o),
(94,-3,o),
(98,4,cs)
);
},
{
closed = 1;
nodes = (
(329,54,o),
(254,115,o),
(251,128,cs),
(250,136,o),
(192,160,o),
(140,213,cs),
(134,219,o),
(128,223,o),
(123,229,cs),
(121,231,o),
(121,237,o),
(123,239,cs),
(134,247,o),
(142,260,o),
(158,265,cs),
(167,268,o),
(181,281,o),
(190,287,cs),
(232,313,o),
(249,323,o),
(334,398,c),
(338,401,o),
(341,399,o),
(341,392,c),
(344,132,o),
(345,53,o),
(339,54,c)
);
},
{
closed = 1;
nodes = (
(283,190,o),
(291,213,o),
(291,222,cs),
(291,238,o),
(276,251,o),
(251,251,cs),
(238,253,o),
(230,247,o),
(222,237,cs),
(217,230,o),
(217,221,o),
(222,214,cs),
(232,204,o),
(245,190,o),
(259,190,cs)
);
},
{
closed = 1;
nodes = (
(252,212,o),
(248,215,o),
(246,219,cs),
(245,220,o),
(245,222,o),
(246,225,cs),
(248,227,o),
(250,229,o),
(253,228,cs),
(260,228,o),
(263,225,o),
(263,221,cs),
(263,219,o),
(262,212,o),
(256,212,cs)
);
}
);
width = 446;
}
);
unicode = 312;
},
{
glyphname = l;
lastChange = "2023-11-03 10:39:56 +0000";
layers = (
{
anchors = (
{
name = bottom;
pos = (177,0);
},
{
name = center;
pos = (96,341);
},
{
name = top;
pos = (157,700);
},
{
name = topright;
pos = (160,800);
}
);
layerId = m01;
shapes = (
{
closed = 1;
nodes = (
(106,-1,o),
(202,60,o),
(258,106,cs),
(271,116,o),
(291,113,o),
(291,136,cs),
(291,148,o),
(302,146,o),
(296,156,cs),
(289,168,o),
(270,160,o),
(231,129,c),
(118,52,l),
(114,53,o),
(111,56,o),
(111,61,cs),
(111,643,ls),
(111,654,o),
(127,681,o),
(107,701,c),
(83,705,o),
(77,689,o),
(77,665,cs),
(77,196,o),
(78,189,o),
(78,183,cs),
(78,176,o),
(77,169,o),
(70,162,c),
(77,152,o),
(78,142,o),
(78,131,cs),
(78,116,o),
(77,35,o),
(77,19,cs),
(78,10,o),
(86,1,o),
(96,0,cs)
);
}
);
width = 298;
}
);
unicode = 108;
},
{
glyphname = lambdastroke;
lastChange = "2023-11-03 10:40:03 +0000";
layers = (
{
layerId = m01;
shapes = (
{
closed = 1;
nodes = (
(133,419,l),
(134,429,o),
(143,431,o),
(150,436,cs),
(200,465,o),
(282,510,o),
(288,513,cs),
(294,516,o),
(301,519,o),
(308,516,c),
(310,515,o),
(315,521,o),
(316,524,cs),
(319,534,o),
(343,550,o),
(352,550,cs),
(364,551,o),
(372,553,o),
(377,564,c),
(386,563,o),
(393,565,o),
(400,570,c),
(429,596,o),
(467,643,o),
(414,623,c),
(407,618,o),
(370,591,o),
(363,587,cs),
(251,531,o),
(232,520,o),
(222,522,cs),
(216,522,o),
(206,517,o),
(205,512,cs),
(198,500,o),
(111,446,o),
(100,439,c),
(76,421,o),
(109,413,o),
(110,413,cs)
);
},
{
ref = lambda;
}
);
width = 600;
}
);
unicode = 411;
},
{
glyphname = lbar;
lastChange = "2023-11-03 10:45:44 +0000";
layers = (
{
layerId = m01;
shapes = (
{
closed = 1;
nodes = (
(145,-7,o),
(149,-1,o),
(155,6,c),
(152,43,o),
(171,74,o),
(158,111,c),
(167,130,o),
(162,150,o),
(157,169,c),
(166,189,o),
(163,208,o),
(156,227,c),
(157,298,o),
(156,279,o),
(158,349,cs),
(158,363,o),
(167,376,o),
(161,390,cs),
(151,413,o),
(163,423,o),
(163,440,cs),
(162,548,o),
(162,622,o),
(161,729,cs),
(163,741,o),
(159,755,o),
(154,764,cs),
(150,771,o),
(146,774,o),
(139,775,c),
(138,770,o),
(127,761,o),
(129,724,cs),
(129,714,o),
(131,681,o),
(131,672,cs),
(131,596,o),
(132,549,o),
(132,472,cs),
(131,450,o),
(129,424,o),
(132,404,cs),
(136,377,o),
(120,362,o),
(129,336,c),
(129,317,o),
(122,305,o),
(124,285,cs),
(125,264,o),
(121,291,o),
(130,271,c),
(126,254,o),
(127,241,o),
(131,223,cs),
(134,215,o),
(133,198,o),
(132,185,cs),
(129,155,o),
(123,96,o),
(124,66,c),
(130,28,o),
(133,15,o),
(138,5,cs)
);
},
{
pos = (-21,171);
ref = hyphen;
}
);
width = 298;
}
);
unicode = 410;
},
{
glyphname = lbelt;
lastChange = "2023-11-03 10:50:58 +0000";
layers = (
{
layerId = m01;
shapes = (
{
pos = (64,0);
ref = l;
},
{
closed = 1;
nodes = (
(81,356,o),
(78,356,o),
(75,357,cs),
(66,360,o),
(66,360,o),
(66,369,cs),
(66,436,ls),
(66,461,o),
(120,383,o),
(144,360,c),
(142,357,o),
(140,357,o),
(139,357,cs),
(117,356,o),
(112,356,o),
(110,354,c),
(100,349,o),
(91,349,o),
(83,354,c)
);
},
{
closed = 1;
nodes = (
(28,337,o),
(32,331,o),
(38,331,cs),
(75,330,o),
(143,329,o),
(175,330,cs),
(193,329,o),
(205,324,o),
(217,326,cs),
(225,328,o),
(234,330,o),
(243,333,cs),
(248,334,o),
(264,335,o),
(269,335,cs),
(277,335,o),
(285,334,o),
(293,334,cs),
(335,338,o),
(323,362,o),
(285,358,c),
(275,358,o),
(264,360,o),
(244,364,c),
(238,364,o),
(232,363,o),
(225,358,c),
(224,356,o),
(220,358,o),
(218,358,c),
(207,362,o),
(196,358,o),
(187,356,c),
(185,358,ls),
(181,362,o),
(174,364,o),
(169,368,c),
(164,374,o),
(162,382,o),
(156,387,cs),
(128,413,o),
(107,446,o),
(79,474,cs),
(72,481,ls),
(68,485,o),
(64,488,o),
(63,494,c),
(59,498,o),
(56,508,o),
(46,508,c),
(40,499,o),
(39,473,o),
(37,462,c),
(38,453,o),
(38,423,o),
(38,418,cs),
(38,408,o),
(37,400,o),
(37,391,cs),
(37,375,ls),
(37,364,o),
(37,353,o),
(31,343,cs)
);
}
);
width = 362;
}
);
unicode = 620;
},
{
glyphname = lslash;
lastChange = "2023-11-03 10:39:56 +0000";
layers = (
{
layerId = m01;
shapes = (
{
closed = 1;
nodes = (
(116,384,o),
(129,392,o),
(145,394,cs),
(153,395,o),
(162,398,o),
(169,401,cs),
(188,410,o),
(204,424,o),
(220,437,cs),
(225,442,o),
(219,456,o),
(212,454,cs),
(206,452,o),
(203,459,o),
(198,458,cs),
(191,456,o),
(185,454,o),
(177,451,cs),
(164,445,o),
(149,438,o),
(136,431,cs),
(107,415,o),
(78,396,o),
(0,366,c),
(5,355,o),
(12,347,o),
(46,354,c)
);
},
{
pos = (3,0);
ref = l;
}
);
width = 418;
}
);
unicode = 322;
},
{
glyphname = m;
lastChange = "2023-11-03 10:39:56 +0000";
layers = (
{
anchors = (
{
name = bottom;
pos = (405,18);
},
{
name = top;
pos = (408,450);
}
);
layerId = m01;
shapes = (
{
closed = 1;
nodes = (
(388,0,o),
(403,8,o),
(403,33,cs),
(403,112,o),
(404,206,o),
(404,285,cs),
(404,294,o),
(401,305,o),
(404,312,cs),
(415,336,o),
(416,343,o),
(407,367,c),
(416,378,o),
(414,389,o),
(405,400,cs),
(401,406,o),
(404,412,o),
(410,416,cs),
(425,428,o),
(425,422,o),
(435,416,cs),
(444,409,o),
(454,422,o),
(494,422,cs),
(515,422,o),
(511,404,o),
(528,416,cs),
(546,425,o),
(563,417,o),
(582,422,cs),
(592,425,o),
(602,422,o),
(612,422,cs),
(650,422,l),
(671,384,o),
(642,329,o),
(664,292,c),
(664,269,o),
(662,258,o),
(654,249,c),
(654,169,ls),
(654,146,o),
(671,136,o),
(660,112,cs),
(658,108,o),
(654,101,o),
(654,20,c),
(654,-5,o),
(692,-4,o),
(692,21,c),
(692,430,ls),
(692,450,o),
(660,453,o),
(632,453,cs),
(619,453,o),
(237,449,o),
(98,449,cs),
(91,449,o),
(79,438,o),
(79,431,cs),
(78,423,o),
(79,416,o),
(79,408,cs),
(79,341,o),
(80,131,o),
(70,53,cs),
(69,48,o),
(71,43,o),
(72,41,cs),
(80,24,o),
(74,1,o),
(84,1,cs),
(100,1,o),
(150,61,o),
(160,74,cs),
(206,136,o),
(265,217,o),
(274,240,cs),
(298,300,o),
(356,357,o),
(371,389,c),
(371,177,o),
(370,152,o),
(362,124,cs),
(362,106,o),
(376,96,o),
(362,78,cs),
(361,77,o),
(364,69,o),
(367,66,cs),
(378,54,o),
(360,32,o),
(358,30,c),
(361,9,o),
(365,0,o),
(371,0,cs)
);
},
{
closed = 1;
nodes = (
(107,129,o),
(108,213,o),
(108,283,cs),
(108,292,o),
(105,303,o),
(108,310,cs),
(119,334,o),
(120,341,o),
(111,365,c),
(120,376,o),
(118,387,o),
(109,398,cs),
(103,407,o),
(121,422,o),
(129,422,cs),
(142,422,ls),
(151,422,o),
(160,418,o),
(169,412,cs),
(178,405,o),
(188,422,o),
(198,422,cs),
(209,422,o),
(216,412,o),
(225,412,cs),
(244,412,o),
(243,428,o),
(256,417,cs),
(265,410,o),
(271,422,o),
(280,422,cs),
(328,422,ls),
(336,422,o),
(341,418,o),
(347,416,c),
(333,391,o),
(158,119,o),
(107,60,c)
);
}
);
width = 762;
}
);
unicode = 109;
},
{
glyphname = n;
lastChange = "2023-11-03 10:39:56 +0000";
layers = (
{
anchors = (
{
name = bottom;
pos = (282,0);
},
{
name = top;
pos = (282,450);
}
);
layerId = m01;
shapes = (
{
closed = 1;
nodes = (
(96,2,o),
(161,81,o),
(269,188,cs),
(346,265,o),
(385,330,o),
(454,400,c),
(453,344,o),
(453,328,o),
(453,319,cs),
(453,305,o),
(450,289,o),
(458,274,c),
(458,263,o),
(461,237,o),
(453,228,c),
(453,205,o),
(453,179,o),
(452,157,cs),
(452,124,o),
(475,151,o),
(458,123,cs),
(455,118,o),
(453,111,o),
(453,105,cs),
(453,97,o),
(453,40,o),
(453,23,cs),
(453,-6,o),
(490,-5,o),
(490,24,cs),
(490,411,l),
(490,426,ls),
(490,447,o),
(460,450,o),
(433,450,cs),
(418,450,o),
(109,449,o),
(100,448,cs),
(93,448,o),
(82,437,o),
(82,429,cs),
(81,420,o),
(82,203,o),
(82,158,cs),
(82,134,o),
(81,113,o),
(73,86,c),
(72,84,o),
(74,77,o),
(77,74,cs),
(88,60,o),
(76,59,o),
(73,50,cs),
(71,46,o),
(70,40,o),
(70,33,cs),
(70,18,o),
(78,2,o),
(91,2,cs)
);
},
{
closed = 1;
nodes = (
(110,277,o),
(107,289,o),
(111,297,cs),
(119,317,o),
(124,335,o),
(113,357,c),
(122,367,o),
(120,382,o),
(112,393,cs),
(107,400,o),
(111,407,o),
(116,411,cs),
(143,428,o),
(163,416,o),
(171,411,cs),
(181,403,o),
(253,416,o),
(262,417,cs),
(274,420,o),
(285,404,o),
(296,411,cs),
(304,415,o),
(310,422,o),
(321,413,cs),
(329,407,o),
(335,420,o),
(345,419,cs),
(359,419,o),
(356,419,o),
(369,413,cs),
(386,407,o),
(377,425,o),
(434,418,c),
(418,400,o),
(391,370,o),
(373,360,c),
(352,320,o),
(322,317,o),
(300,274,cs),
(295,263,o),
(257,234,o),
(248,221,cs),
(224,188,o),
(132,106,o),
(110,72,c)
);
}
);
width = 560;
}
);
unicode = 110;
},
{
glyphname = o;
lastChange = "2023-11-03 10:39:56 +0000";
layers = (
{
anchors = (
{
name = bottom;
pos = (260,0);
},
{
name = center;
pos = (263,232);
},
{
name = ogonek;
pos = (487,41);
},
{
name = top;
pos = (260,450);
},
{
name = topright;
pos = (359,742);
}
);
layerId = m01;
shapes = (
{
closed = 1;
nodes = (
(213,-11,o),
(218,1,o),
(228,0,cs),
(243,-1,o),
(320,-1,o),
(328,2,cs),
(337,5,o),
(345,-10,o),
(354,3,c),
(373,-10,o),
(390,-3,o),
(413,-3,cs),
(422,-3,o),
(431,2,o),
(440,8,cs),
(443,10,o),
(443,18,o),
(443,23,cs),
(443,251,o),
(443,304,o),
(443,440,c),
(443,446,o),
(435,449,o),
(429,449,c),
(339,450,o),
(173,453,o),
(70,449,c),
(70,366,o),
(70,272,o),
(70,186,cs),
(70,143,o),
(70,92,o),
(70,50,cs),
(70,40,o),
(70,30,o),
(70,21,cs),
(71,9,o),
(79,0,o),
(91,0,cs),
(100,-1,o),
(166,0,o),
(174,-1,cs),
(184,-1,o),
(195,0,o),
(202,-4,cs)
);
},
{
closed = 1;
nodes = (
(270,25,o),
(260,23,o),
(251,30,cs),
(248,32,o),
(239,25,o),
(234,26,cs),
(228,28,o),
(223,34,o),
(217,27,cs),
(215,25,o),
(210,25,o),
(209,26,cs),
(202,32,o),
(129,29,o),
(106,30,cs),
(100,30,o),
(96,37,o),
(99,42,cs),
(105,49,o),
(106,56,o),
(106,65,cs),
(106,86,o),
(103,183,o),
(103,205,cs),
(103,214,o),
(102,221,o),
(97,228,cs),
(95,230,o),
(96,236,o),
(98,239,cs),
(103,246,o),
(105,253,o),
(105,260,cs),
(105,267,o),
(103,273,o),
(101,279,cs),
(96,289,o),
(95,296,o),
(103,304,cs),
(104,306,o),
(103,310,o),
(102,312,c),
(102,374,l),
(104,375,o),
(102,382,o),
(100,384,cs),
(92,393,o),
(95,402,o),
(100,415,c),
(114,417,o),
(147,419,o),
(162,419,cs),
(172,419,o),
(182,422,o),
(191,412,c),
(205,409,o),
(212,424,o),
(220,412,c),
(230,412,o),
(359,419,o),
(368,418,cs),
(382,416,o),
(407,414,o),
(411,414,c),
(411,315,o),
(418,342,o),
(409,236,cs),
(409,227,o),
(409,217,o),
(409,207,cs),
(409,109,ls),
(409,100,o),
(409,38,o),
(405,31,c),
(354,30,o),
(295,25,o),
(279,25,cs)
);
},
{
closed = 1;
nodes = (
(286,211,ls),
(297,222,o),
(280,225,o),
(280,240,cs),
(280,260,o),
(252,258,o),
(238,256,cs),
(229,254,o),
(220,239,o),
(220,228,cs),
(220,222,o),
(222,217,o),
(226,212,cs),
(235,200,o),
(258,183,o),
(272,197,cs)
);
},
{
closed = 1;
nodes = (
(255,213,o),
(249,218,o),
(247,221,cs),
(245,222,o),
(245,224,o),
(245,225,cs),
(245,228,o),
(247,232,o),
(250,233,cs),
(254,234,o),
(261,234,o),
(261,229,cs),
(261,224,o),
(266,224,o),
(263,221,cs),
(259,217,ls)
);
}
);
width = 513;
}
);
unicode = 111;
},
{
glyphname = oopen;
lastChange = "2023-11-03 10:39:56 +0000";
layers = (
{
anchors = (
{
name = bottom;
pos = (203,7);
},
{
name = top;
pos = (206,450);
}
);
layerId = m01;
shapes = (
{
closed = 1;
nodes = (
(112,9,o),
(155,5,o),
(342,5,c),
(350,5,o),
(357,4,o),
(365,5,cs),
(371,5,o),
(382,16,o),
(382,23,cs),
(383,32,o),
(382,-7,o),
(382,393,cs),
(382,402,o),
(382,413,o),
(388,422,cs),
(389,423,o),
(387,436,o),
(386,436,c),
(377,444,o),
(376,449,o),
(362,449,cs),
(50,449,ls),
(40,449,o),
(28,437,o),
(30,429,cs),
(32,422,o),
(42,413,o),
(50,413,cs),
(92,413,ls),
(98,413,o),
(104,415,o),
(109,418,cs),
(138,438,o),
(128,413,o),
(163,413,cs),
(186,413,l),
(211,435,o),
(234,413,o),
(268,413,cs),
(332,413,ls),
(340,413,o),
(347,413,o),
(354,409,c),
(354,383,o),
(359,365,o),
(352,340,cs),
(351,336,o),
(347,334,o),
(351,329,cs),
(354,324,o),
(355,318,o),
(355,313,cs),
(355,278,o),
(356,254,o),
(356,220,cs),
(356,210,o),
(344,195,o),
(351,186,cs),
(359,176,o),
(352,161,o),
(348,153,cs),
(343,142,o),
(354,134,o),
(354,120,c),
(352,111,o),
(341,101,o),
(348,92,cs),
(354,84,o),
(355,75,o),
(355,54,cs),
(355,47,o),
(343,26,o),
(333,34,cs),
(320,45,o),
(311,44,o),
(297,34,c),
(282,47,o),
(266,42,o),
(248,33,cs),
(240,30,o),
(230,33,o),
(221,33,cs),
(145,33,o),
(129,36,o),
(53,36,cs),
(46,36,o),
(35,40,o),
(33,32,cs),
(31,25,o),
(30,21,o),
(30,17,cs),
(30,-6,o),
(67,22,o),
(84,5,cs),
(87,2,o),
(101,0,o),
(103,2,cs)
);
},
{
closed = 1;
nodes = (
(183,226,o),
(183,231,o),
(183,234,cs),
(183,238,o),
(184,243,o),
(187,245,cs),
(190,247,o),
(196,241,o),
(197,238,cs),
(200,235,o),
(199,232,o),
(199,228,cs),
(198,225,o),
(187,226,o),
(186,226,cs)
);
},
{
closed = 1;
nodes = (
(179,201,o),
(216,200,o),
(219,210,cs),
(221,221,o),
(226,235,o),
(215,248,cs),
(210,257,o),
(190,275,o),
(180,269,cs),
(167,263,o),
(160,248,o),
(160,229,cs),
(160,219,o),
(163,202,o),
(171,202,cs)
);
}
);
width = 458;
}
);
unicode = 596;
},
{
glyphname = oslash;
lastChange = "2023-11-03 10:39:56 +0000";
layers = (
{
layerId = m01;
shapes = (
{
closed = 1;
nodes = (
(85,-38,o),
(100,-19,o),
(115,5,c),
(138,4,o),
(169,5,o),
(174,4,c),
(184,4,o),
(195,5,o),
(202,1,cs),
(213,-6,o),
(218,6,o),
(228,5,cs),
(243,4,o),
(341,2,o),
(349,5,cs),
(358,8,o),
(365,-10,o),
(374,3,c),
(393,-10,o),
(410,-3,o),
(433,-3,cs),
(442,-3,o),
(451,2,o),
(460,8,cs),
(463,10,o),
(463,18,o),
(463,23,cs),
(463,483,ls),
(463,484,o),
(461,485,o),
(457,491,c),
(456,491,o),
(451,492,o),
(449,492,cs),
(440,492,l),
(444,498,o),
(448,505,o),
(453,512,cs),
(461,521,o),
(465,534,o),
(466,544,cs),
(466,552,o),
(467,562,o),
(460,562,cs),
(455,562,o),
(442,557,o),
(423,525,cs),
(403,493,l),
(301,496,o),
(142,502,o),
(70,492,c),
(70,236,ls),
(70,193,o),
(70,97,o),
(70,55,cs),
(70,26,l),
(71,20,o),
(73,14,o),
(77,10,c),
(76,9,o),
(75,7,o),
(74,5,cs),
(56,-29,o),
(54,-42,o),
(52,-53,cs),
(51,-67,o),
(61,-69,o),
(67,-62,cs)
);
},
{
closed = 1;
nodes = (
(95,43,o),
(94,48,o),
(96,51,cs),
(102,58,o),
(103,65,o),
(103,74,cs),
(103,255,ls),
(103,264,o),
(102,271,o),
(97,278,cs),
(95,280,o),
(96,286,o),
(98,289,cs),
(103,296,o),
(105,303,o),
(105,310,cs),
(105,317,o),
(103,323,o),
(101,329,cs),
(96,339,o),
(95,346,o),
(103,354,c),
(104,356,o),
(103,360,o),
(102,362,c),
(102,421,l),
(104,422,o),
(102,429,o),
(100,431,cs),
(92,440,o),
(95,453,o),
(100,466,c),
(114,468,o),
(147,466,o),
(162,466,cs),
(172,466,o),
(182,469,o),
(191,459,c),
(205,456,o),
(212,471,o),
(220,459,c),
(229,459,o),
(348,459,o),
(380,458,c),
(349,409,o),
(323,371,o),
(317,358,cs),
(305,333,o),
(287,328,o),
(277,303,cs),
(270,286,o),
(254,281,o),
(244,263,cs),
(234,245,o),
(208,189,o),
(192,173,cs),
(180,161,o),
(173,150,o),
(167,133,cs),
(165,124,o),
(154,111,o),
(147,100,c),
(135,86,o),
(115,63,o),
(98,41,c)
);
},
{
closed = 1;
nodes = (
(270,30,o),
(260,28,o),
(251,35,cs),
(248,37,o),
(239,30,o),
(234,31,cs),
(228,33,o),
(223,39,o),
(217,32,cs),
(215,30,o),
(210,30,o),
(209,31,cs),
(204,35,o),
(165,37,o),
(134,38,c),
(142,50,o),
(149,62,o),
(158,73,cs),
(172,90,o),
(180,104,o),
(190,122,cs),
(225,184,o),
(268,240,o),
(308,298,cs),
(316,309,o),
(330,315,o),
(334,330,cs),
(338,355,o),
(353,356,o),
(363,371,cs),
(377,393,o),
(387,410,o),
(416,455,c),
(426,455,o),
(435,454,o),
(437,454,c),
(437,355,o),
(438,392,o),
(429,286,c),
(429,257,l),
(429,109,ls),
(429,100,o),
(429,38,o),
(425,31,c),
(374,30,o),
(315,30,o),
(279,30,cs)
);
}
);
width = 533;
}
);
unicode = 248;
},
{
glyphname = p;
lastChange = "2023-11-03 10:39:56 +0000";
layers = (
{
anchors = (
{
name = bottom;
pos = (267,0);
},
{
name = top;
pos = (267,450);
}
);
layerId = m01;
shapes = (
{
closed = 1;
nodes = (
(103,-199,o),
(99,-182,o),
(101,-166,cs),
(102,-160,o),
(104,-140,o),
(104,-138,cs),
(104,-95,o),
(106,37,o),
(108,60,c),
(102,70,o),
(105,81,o),
(105,91,cs),
(105,354,l),
(114,329,o),
(131,315,o),
(146,300,cs),
(212,230,o),
(388,41,o),
(410,27,cs),
(414,24,o),
(416,22,o),
(419,25,c),
(427,26,o),
(436,34,o),
(434,43,c),
(434,62,o),
(447,77,o),
(436,88,c),
(445,97,o),
(441,105,o),
(436,113,c),
(444,122,o),
(442,130,o),
(435,138,c),
(435,169,o),
(435,200,o),
(436,230,cs),
(436,236,o),
(446,242,o),
(440,248,cs),
(430,257,o),
(442,262,o),
(442,269,cs),
(442,430,ls),
(442,439,o),
(433,448,o),
(425,448,cs),
(418,449,o),
(410,449,o),
(403,449,cs),
(185,449,ls),
(178,449,o),
(168,446,o),
(163,450,cs),
(155,456,o),
(146,457,o),
(138,457,c),
(98,461,l),
(73,461,o),
(71,450,o),
(71,446,cs),
(69,404,o),
(70,174,o),
(74,-170,cs),
(74,-194,o),
(81,-199,o),
(88,-199,cs)
);
},
{
closed = 1;
nodes = (
(328,158,o),
(256,234,o),
(184,309,cs),
(177,316,o),
(165,324,o),
(163,332,cs),
(158,348,o),
(117,397,o),
(110,405,cs),
(94,423,o),
(122,427,o),
(128,422,cs),
(136,416,o),
(145,415,o),
(154,415,cs),
(160,415,o),
(165,415,o),
(171,415,cs),
(404,415,ls),
(410,415,o),
(412,410,o),
(412,404,cs),
(412,272,o),
(410,261,o),
(413,253,cs),
(417,241,o),
(400,234,o),
(410,223,c),
(409,215,o),
(403,209,o),
(405,200,cs),
(406,191,o),
(401,165,o),
(410,156,c),
(406,149,o),
(407,143,o),
(412,135,cs),
(414,132,o),
(413,124,o),
(412,119,cs),
(410,111,o),
(404,84,o),
(404,78,c)
);
}
);
width = 512;
}
);
unicode = 112;
},
{
glyphname = thorn;
lastChange = "2023-11-03 10:39:56 +0000";
layers = (
{
anchors = (
{
name = bottom;
pos = (260,0);
},
{
name = center;
pos = (315,250);
},
{
name = ogonek;
pos = (488,10);
},
{
name = top;
pos = (260,500);
},
{
name = topright;
pos = (372,789);
}
);
layerId = m01;
shapes = (
{
closed = 1;
nodes = (
(99,-171,o),
(101,-158,o),
(107,-120,c),
(107,-74,o),
(99,-41,o),
(97,0,c),
(116,-1,o),
(167,0,o),
(174,-1,cs),
(184,-1,o),
(195,0,o),
(202,-4,cs),
(213,-11,o),
(218,1,o),
(228,0,cs),
(243,-1,o),
(320,-1,o),
(328,2,cs),
(337,5,o),
(345,-10,o),
(354,3,c),
(373,-10,o),
(390,-3,o),
(413,-3,cs),
(422,-3,o),
(431,2,o),
(440,8,cs),
(443,10,o),
(443,18,o),
(443,23,cs),
(443,440,ls),
(443,446,o),
(435,449,o),
(429,449,cs),
(346,450,o),
(199,453,o),
(95,450,c),
(95,596,l),
(94,604,o),
(96,638,o),
(96,648,cs),
(98,685,o),
(87,694,o),
(85,699,c),
(78,697,o),
(74,694,o),
(70,687,cs),
(66,678,o),
(62,665,o),
(63,653,cs),
(64,546,o),
(65,441,o),
(65,334,cs),
(65,297,o),
(70,256,o),
(70,243,cs),
(70,224,o),
(70,205,o),
(70,186,cs),
(70,50,ls),
(70,40,o),
(70,30,o),
(70,21,cs),
(70,20,ls),
(66,5,o),
(66,-12,o),
(73,-28,c),
(69,-46,o),
(64,-67,o),
(73,-85,c),
(60,-112,o),
(79,-143,o),
(76,-180,c),
(82,-187,o),
(87,-194,o),
(94,-181,cs)
);
},
{
closed = 1;
nodes = (
(270,25,o),
(260,23,o),
(251,30,cs),
(248,32,o),
(239,25,o),
(234,26,cs),
(228,28,o),
(223,34,o),
(217,27,cs),
(215,25,o),
(210,25,o),
(209,26,cs),
(202,32,o),
(129,29,o),
(106,30,cs),
(104,30,o),
(102,31,o),
(100,33,c),
(101,37,o),
(106,58,o),
(106,65,cs),
(106,72,o),
(106,89,o),
(105,108,cs),
(106,134,o),
(104,165,o),
(105,179,cs),
(106,184,o),
(105,233,o),
(105,260,cs),
(105,267,o),
(103,273,o),
(101,279,cs),
(96,289,o),
(95,296,o),
(103,304,c),
(109,317,o),
(104,380,o),
(96,392,c),
(96,401,ls),
(96,406,o),
(98,410,o),
(100,415,c),
(114,417,o),
(147,419,o),
(162,419,cs),
(172,419,o),
(182,422,o),
(191,412,c),
(205,409,o),
(212,424,o),
(220,412,c),
(230,412,o),
(359,419,o),
(368,418,cs),
(382,416,o),
(407,414,o),
(411,414,c),
(411,315,o),
(418,342,o),
(409,236,c),
(409,207,l),
(409,109,ls),
(409,100,o),
(409,38,o),
(405,31,c),
(354,30,o),
(295,25,o),
(279,25,cs)
);
}
);
width = 513;
}
);
unicode = 254;
},
{
glyphname = q;
lastChange = "2023-11-03 10:39:56 +0000";
layers = (
{
anchors = (
{
name = bottom;
pos = (268,0);
},
{
name = top;
pos = (256,450);
}
);
layerId = m01;
shapes = (
{
closed = 1;
nodes = (
(428,-199,o),
(450,-182,o),
(476,-162,cs),
(478,-160,o),
(480,-156,o),
(482,-154,cs),
(484,-152,o),
(487,-153,o),
(489,-151,cs),
(490,-149,o),
(492,-148,o),
(494,-146,cs),
(495,-146,o),
(498,-145,o),
(499,-144,cs),
(502,-141,o),
(504,-137,o),
(507,-135,cs),
(527,-120,o),
(572,-70,o),
(573,-65,cs),
(573,-63,o),
(586,-39,o),
(563,-44,cs),
(560,-45,o),
(557,-49,o),
(554,-49,cs),
(553,-49,o),
(545,-55,o),
(534,-65,cs),
(531,-67,o),
(492,-104,o),
(489,-106,cs),
(487,-108,o),
(489,-112,o),
(485,-113,cs),
(485,-113,o),
(481,-115,o),
(479,-116,cs),
(462,-130,o),
(447,-146,o),
(444,-145,cs),
(438,-142,o),
(441,-130,o),
(441,-127,cs),
(445,197,o),
(443,405,o),
(441,446,cs),
(441,450,o),
(439,461,o),
(414,461,c),
(374,457,l),
(366,457,o),
(357,456,o),
(349,450,cs),
(344,446,o),
(334,449,o),
(327,449,cs),
(109,449,ls),
(102,449,o),
(94,449,o),
(87,448,cs),
(79,448,o),
(70,439,o),
(70,430,cs),
(70,269,ls),
(70,262,o),
(82,257,o),
(72,248,cs),
(66,242,o),
(76,236,o),
(76,230,cs),
(77,200,o),
(77,169,o),
(77,138,c),
(70,130,o),
(68,122,o),
(76,113,c),
(71,105,o),
(67,97,o),
(76,88,c),
(65,77,o),
(78,62,o),
(78,43,c),
(76,34,o),
(85,26,o),
(93,25,c),
(96,22,o),
(98,24,o),
(102,27,cs),
(124,41,o),
(300,230,o),
(366,300,cs),
(381,315,o),
(398,329,o),
(407,354,c),
(407,91,ls),
(407,81,o),
(410,70,o),
(404,60,c),
(406,37,o),
(408,-95,o),
(408,-138,cs),
(408,-140,o),
(410,-160,o),
(411,-166,cs),
(413,-182,o),
(409,-199,o),
(424,-199,cs)
);
},
{
closed = 1;
nodes = (
(108,84,o),
(102,111,o),
(100,119,cs),
(99,124,o),
(98,132,o),
(100,135,cs),
(105,143,o),
(106,149,o),
(102,156,c),
(111,165,o),
(106,191,o),
(107,200,cs),
(109,209,o),
(103,215,o),
(102,223,c),
(112,234,o),
(95,241,o),
(99,253,cs),
(102,261,o),
(100,272,o),
(100,404,cs),
(100,410,o),
(102,415,o),
(108,415,cs),
(341,415,ls),
(347,415,o),
(352,415,o),
(358,415,cs),
(367,415,o),
(376,416,o),
(384,422,cs),
(390,427,o),
(418,423,o),
(402,405,cs),
(395,397,o),
(354,348,o),
(349,332,cs),
(347,324,o),
(335,316,o),
(328,309,cs),
(256,234,o),
(184,158,o),
(108,78,c)
);
}
);
width = 543;
}
);
unicode = 113;
},
{
glyphname = r;
lastChange = "2023-11-03 10:39:56 +0000";
layers = (
{
anchors = (
{
name = bottom;
pos = (86,-16);
},
{
name = top;
pos = (210,450);
}
);
layerId = m01;
shapes = (
{
closed = 1;
nodes = (
(86,-1,o),
(102,-5,o),
(106,6,c),
(106,415,ls),
(106,418,o),
(112,419,o),
(121,419,cs),
(139,419,o),
(169,413,o),
(176,399,cs),
(178,395,o),
(182,393,o),
(185,390,cs),
(218,353,o),
(263,328,o),
(297,290,cs),
(303,283,o),
(314,280,o),
(321,274,cs),
(327,268,o),
(330,260,o),
(335,253,cs),
(344,241,o),
(365,233,o),
(369,247,c),
(370,332,o),
(370,358,o),
(369,443,cs),
(369,451,o),
(362,457,o),
(354,453,cs),
(334,442,o),
(240,445,o),
(234,445,cs),
(216,446,o),
(168,453,o),
(163,453,cs),
(142,453,o),
(118,451,o),
(94,451,cs),
(81,451,o),
(72,445,o),
(76,432,cs),
(77,429,o),
(73,415,o),
(79,391,c),
(82,384,o),
(79,117,o),
(71,108,cs),
(68,104,o),
(71,97,o),
(71,91,cs),
(72,21,o),
(76,11,o),
(79,6,c)
);
},
{
closed = 1;
nodes = (
(330,303,o),
(263,371,o),
(215,408,c),
(218,409,o),
(221,410,o),
(239,410,cs),
(266,410,o),
(291,411,o),
(319,411,cs),
(342,411,o),
(335,403,o),
(339,386,cs),
(342,374,o),
(346,360,o),
(339,350,cs),
(337,346,o),
(336,340,o),
(335,335,c),
(335,322,o),
(339,305,o),
(332,302,c)
);
}
);
width = 400;
}
);
unicode = 114;
},
{
glyphname = s;
lastChange = "2023-11-03 10:39:56 +0000";
layers = (
{
anchors = (
{
name = bottom;
pos = (257,9);
},
{
name = top;
pos = (249,452);
}
);
layerId = m01;
shapes = (
{
closed = 1;
nodes = (
(153,-1,o),
(161,13,o),
(169,2,c),
(322,2,ls),
(336,2,o),
(335,1,o),
(349,1,cs),
(362,1,o),
(374,7,o),
(387,9,cs),
(405,12,o),
(409,52,o),
(409,95,cs),
(409,133,o),
(406,182,o),
(406,201,c),
(404,217,l),
(402,228,l),
(399,232,o),
(392,235,o),
(386,238,cs),
(362,247,o),
(341,245,o),
(318,235,c),
(312,235,o),
(246,238,o),
(152,238,c),
(210,282,o),
(323,360,o),
(381,403,cs),
(389,413,o),
(397,424,o),
(406,433,cs),
(416,445,o),
(401,450,o),
(391,453,cs),
(384,454,o),
(378,456,o),
(372,459,c),
(360,458,l),
(350,458,o),
(341,457,o),
(333,451,c),
(312,451,o),
(290,451,o),
(249,452,cs),
(213,453,o),
(237,451,o),
(201,452,c),
(190,457,o),
(182,459,o),
(173,459,cs),
(165,459,o),
(156,457,o),
(143,452,c),
(142,452,o),
(122,458,o),
(105,458,cs),
(96,458,o),
(88,457,o),
(83,452,cs),
(73,445,o),
(79,409,o),
(85,398,c),
(86,397,o),
(86,394,o),
(85,393,c),
(78,380,o),
(76,366,o),
(76,352,cs),
(76,336,o),
(78,310,o),
(78,243,c),
(83,206,o),
(92,204,o),
(123,204,cs),
(158,204,o),
(332,201,o),
(371,206,c),
(371,39,l),
(367,39,ls),
(358,39,o),
(343,40,o),
(333,32,c),
(245,33,o),
(261,37,o),
(173,40,cs),
(165,40,o),
(156,38,o),
(143,33,c),
(141,33,o),
(138,31,o),
(137,33,c),
(132,38,o),
(127,39,o),
(122,39,c),
(114,35,o),
(105,33,o),
(97,33,c),
(67,37,o),
(57,13,o),
(91,9,cs),
(97,9,o),
(104,10,o),
(110,10,cs),
(114,10,o),
(119,9,o),
(123,8,cs),
(130,5,o),
(137,3,o),
(144,1,cs)
);
},
{
closed = 1;
nodes = (
(112,252,o),
(111,409,o),
(112,429,c),
(118,427,o),
(137,422,o),
(143,420,cs),
(152,417,o),
(160,432,o),
(169,421,c),
(298,421,ls),
(306,421,o),
(313,421,o),
(321,421,cs),
(329,421,o),
(336,420,o),
(343,420,cs),
(334,411,o),
(313,401,o),
(300,385,c),
(279,382,o),
(162,287,o),
(114,252,cs)
);
}
);
width = 479;
}
);
unicode = 115;
},
{
glyphname = saltillo;
lastChange = "2023-11-03 10:39:56 +0000";
layers = (
{
layerId = m01;
shapes = (
{
closed = 1;
nodes = (
(44,468,o),
(60,470,o),
(60,479,cs),
(60,487,o),
(69,487,o),
(71,493,c),
(72,504,o),
(72,544,o),
(72,555,cs),
(72,663,ls),
(72,705,o),
(66,728,o),
(56,728,cs),
(51,728,o),
(45,734,o),
(39,703,cs),
(38,699,o),
(39,695,o),
(39,663,cs),
(39,590,o),
(30,626,o),
(30,559,cs),
(30,531,o),
(37,503,o),
(42,478,cs)
);
}
);
width = 102;
}
);
unicode = 42892;
},
{
glyphname = germandbls;
lastChange = "2023-11-03 10:39:56 +0000";
layers = (
{
layerId = m01;
shapes = (
{
closed = 1;
nodes = (
(124,14,o),
(116,87,o),
(124,109,c),
(124,125,o),
(117,128,o),
(117,158,cs),
(117,187,ls),
(117,230,o),
(117,605,o),
(117,629,cs),
(117,646,o),
(114,660,o),
(110,672,c),
(237,672,ls),
(244,672,o),
(275,681,o),
(285,681,cs),
(293,681,o),
(300,678,o),
(307,677,cs),
(323,674,o),
(324,669,o),
(317,663,cs),
(314,660,o),
(312,658,o),
(309,655,c),
(295,647,o),
(287,634,o),
(287,621,cs),
(287,606,o),
(282,597,o),
(268,589,cs),
(264,588,o),
(268,578,o),
(264,575,cs),
(259,571,o),
(254,568,o),
(252,562,c),
(224,513,o),
(202,507,o),
(171,459,cs),
(168,454,o),
(167,450,o),
(167,446,cs),
(167,436,o),
(174,430,o),
(174,429,c),
(234,372,o),
(234,350,o),
(294,292,cs),
(308,278,o),
(376,196,o),
(384,178,cs),
(390,164,o),
(398,156,o),
(408,150,c),
(265,143,o),
(259,144,o),
(255,145,cs),
(249,148,o),
(243,150,o),
(238,150,cs),
(222,150,o),
(208,140,o),
(192,140,c),
(187,127,o),
(199,120,o),
(214,120,c),
(386,120,o),
(419,123,o),
(438,123,cs),
(450,123,o),
(455,129,o),
(455,136,cs),
(455,143,o),
(450,151,o),
(443,158,cs),
(405,193,o),
(364,267,o),
(327,303,cs),
(267,362,o),
(270,378,o),
(210,436,c),
(202,440,o),
(202,443,o),
(207,448,cs),
(248,491,o),
(312,589,o),
(342,643,cs),
(344,647,o),
(347,652,o),
(350,654,cs),
(357,662,o),
(362,675,o),
(362,685,cs),
(362,695,o),
(357,702,o),
(344,702,cs),
(96,702,l),
(89,700,o),
(90,697,o),
(86,694,cs),
(76,688,o),
(72,671,o),
(72,651,cs),
(72,632,o),
(75,611,o),
(79,596,cs),
(84,578,o),
(86,562,o),
(86,544,cs),
(86,417,ls),
(86,405,o),
(88,390,o),
(88,378,cs),
(88,372,o),
(87,366,o),
(86,362,cs),
(79,335,o),
(77,308,o),
(77,281,cs),
(77,254,o),
(79,227,o),
(79,200,c),
(86,139,o),
(86,70,o),
(94,14,c)
);
}
);
width = 455;
}
);
unicode = 223;
},
{
glyphname = t;
lastChange = "2023-11-03 10:39:56 +0000";
layers = (
{
anchors = (
{
name = bottom;
pos = (202,3);
},
{
name = center;
pos = (169,317);
},
{
name = top;
pos = (212,500);
},
{
name = topright;
pos = (204,814);
}
);
layerId = m01;
shapes = (
{
closed = 1;
nodes = (
(202,3,o),
(254,39,o),
(290,60,cs),
(296,64,o),
(304,74,o),
(309,77,cs),
(326,86,o),
(337,92,o),
(347,105,cs),
(356,115,o),
(362,126,o),
(350,133,c),
(350,143,l),
(341,145,o),
(331,134,o),
(306,113,cs),
(295,104,o),
(272,91,o),
(262,84,cs),
(238,67,o),
(185,36,o),
(181,36,c),
(183,91,o),
(182,128,o),
(182,194,cs),
(182,201,o),
(182,446,o),
(177,459,c),
(201,459,o),
(258,455,o),
(279,452,cs),
(282,452,o),
(286,452,o),
(289,451,cs),
(302,451,o),
(323,464,o),
(323,472,cs),
(323,478,o),
(313,491,o),
(303,491,cs),
(293,491,o),
(292,491,o),
(177,491,c),
(177,640,ls),
(177,645,o),
(179,663,o),
(179,677,cs),
(179,688,o),
(178,696,o),
(174,697,c),
(156,704,o),
(147,697,o),
(147,667,cs),
(147,664,o),
(147,648,o),
(147,641,cs),
(147,491,l),
(43,491,ls),
(15,491,o),
(-1,480,o),
(19,460,c),
(26,456,o),
(34,454,o),
(43,454,cs),
(68,454,o),
(110,460,o),
(147,459,c),
(147,173,o),
(147,39,o),
(147,24,cs),
(148,16,o),
(156,0,o),
(184,1,c)
);
}
);
width = 367;
}
);
unicode = 116;
},
{
glyphname = tdiagonalstroke;
lastChange = "2023-11-03 10:39:56 +0000";
layers = (
{
anchors = (
{
name = bottom;
pos = (202,3);
},
{
name = center;
pos = (169,317);
},
{
name = top;
pos = (212,500);
},
{
name = topright;
pos = (204,814);
}
);
layerId = m01;
shapes = (
{
closed = 1;
nodes = (
(48,28,o),
(77,27,o),
(80,66,c),
(96,79,o),
(99,100,o),
(102,119,c),
(118,134,o),
(124,153,o),
(125,173,c),
(135,194,o),
(141,210,o),
(147,223,c),
(147,24,l),
(148,16,o),
(156,0,o),
(184,1,cs),
(202,3,o),
(232,31,o),
(268,52,cs),
(274,56,o),
(282,66,o),
(287,69,cs),
(304,78,o),
(315,84,o),
(325,97,cs),
(334,107,o),
(340,118,o),
(328,125,c),
(328,135,l),
(319,137,o),
(309,126,o),
(284,105,cs),
(273,96,o),
(250,83,o),
(240,76,cs),
(216,59,o),
(185,36,o),
(181,36,c),
(183,91,o),
(182,128,o),
(182,194,cs),
(182,301,l),
(183,305,o),
(185,309,o),
(187,313,cs),
(192,325,o),
(205,334,o),
(206,349,cs),
(206,374,o),
(221,378,o),
(228,394,cs),
(237,416,o),
(246,436,o),
(254,455,c),
(279,452,ls),
(282,452,o),
(286,452,o),
(289,451,c),
(302,451,o),
(323,464,o),
(323,472,cs),
(323,478,o),
(313,491,o),
(303,491,cs),
(271,491,l),
(294,540,o),
(315,585,o),
(342,646,cs),
(348,657,o),
(350,671,o),
(349,681,cs),
(348,689,o),
(345,693,o),
(340,697,c),
(336,693,o),
(323,689,o),
(309,654,cs),
(306,646,o),
(294,614,o),
(290,606,cs),
(270,557,o),
(254,528,o),
(237,491,c),
(177,491,l),
(177,600,ls),
(177,605,o),
(179,623,o),
(179,637,cs),
(179,648,o),
(178,656,o),
(174,657,cs),
(156,664,o),
(147,657,o),
(147,627,cs),
(147,601,l),
(147,491,l),
(43,491,ls),
(15,491,o),
(-1,480,o),
(19,460,c),
(26,456,o),
(34,454,o),
(43,454,cs),
(68,454,o),
(110,460,o),
(147,459,c),
(147,295,l),
(143,287,o),
(140,279,o),
(136,267,cs),
(129,248,o),
(118,246,o),
(118,224,c),
(108,210,o),
(104,197,o),
(101,180,cs),
(100,171,o),
(92,155,o),
(86,144,cs),
(71,118,o),
(43,66,o),
(31,38,c),
(23,23,o),
(20,10,o),
(21,-1,cs),
(22,-15,o),
(29,-11,o),
(37,-7,c)
);
},
{
closed = 1;
nodes = (
(180,412,o),
(179,454,o),
(177,459,c),
(187,459,o),
(204,458,o),
(221,457,c),
(212,436,ls),
(203,415,o),
(183,365,o),
(181,362,c)
);
}
);
width = 367;
}
);
unicode = 11366;
},
{
glyphname = u;
lastChange = "2023-11-03 10:39:56 +0000";
layers = (
{
anchors = (
{
name = bottom;
pos = (270,0);
},
{
name = ogonek;
pos = (495,45);
},
{
name = top;
pos = (268,450);
},
{
name = topright;
pos = (373,743);
}
);
layerId = m01;
shapes = (
{
closed = 1;
nodes = (
(106,0,o),
(117,2,o),
(128,2,cs),
(150,2,o),
(403,-2,o),
(428,1,cs),
(435,1,o),
(446,12,o),
(446,19,cs),
(447,27,o),
(446,245,o),
(446,268,cs),
(445,315,o),
(456,301,o),
(456,330,cs),
(456,343,o),
(442,358,o),
(455,375,c),
(441,411,o),
(460,401,o),
(460,440,cs),
(460,463,o),
(432,452,o),
(423,441,cs),
(417,433,o),
(419,427,o),
(419,420,cs),
(418,341,o),
(418,249,o),
(418,170,cs),
(418,161,o),
(422,150,o),
(418,143,cs),
(408,124,o),
(403,105,o),
(417,89,c),
(405,74,o),
(406,66,o),
(417,52,cs),
(421,46,o),
(417,40,o),
(412,36,cs),
(388,22,o),
(368,29,o),
(357,36,cs),
(349,42,o),
(332,30,o),
(325,30,cs),
(317,30,o),
(310,38,o),
(301,38,cs),
(292,38,o),
(282,23,o),
(270,33,cs),
(262,39,o),
(243,30,o),
(202,30,cs),
(189,30,o),
(188,37,o),
(170,32,cs),
(160,29,o),
(125,29,o),
(112,30,c),
(108,38,o),
(106,46,o),
(106,54,cs),
(106,94,o),
(107,114,o),
(107,122,cs),
(107,136,o),
(106,150,o),
(98,163,c),
(98,176,o),
(96,194,o),
(107,206,c),
(107,284,l),
(108,295,o),
(102,301,o),
(99,310,cs),
(96,319,o),
(95,331,o),
(102,341,cs),
(105,345,o),
(107,361,o),
(107,367,cs),
(107,432,ls),
(107,459,o),
(70,458,o),
(70,431,cs),
(70,22,ls),
(70,7,o),
(84,2,o),
(92,-7,c)
);
},
{
closed = 1;
nodes = (
(258,184,o),
(281,201,o),
(290,213,cs),
(294,218,o),
(296,223,o),
(296,229,cs),
(296,240,o),
(287,255,o),
(278,257,cs),
(264,259,o),
(236,261,o),
(236,241,cs),
(236,226,o),
(219,223,o),
(230,212,cs),
(244,198,ls)
);
},
{
closed = 1;
nodes = (
(253,222,ls),
(250,225,o),
(255,225,o),
(255,230,cs),
(255,235,o),
(262,235,o),
(266,234,cs),
(269,233,o),
(271,229,o),
(271,226,cs),
(271,225,o),
(271,223,o),
(269,222,cs),
(267,219,o),
(261,214,o),
(257,218,cs)
);
}
);
width = 530;
}
);
unicode = 117;
},
